<svg width="24" height="24" viewBox="0 0 24 24" fill="none" xmlns="http://www.w3.org/2000/svg">
<path fill-rule="evenodd" clip-rule="evenodd" d="M16.0423 5.06836C16.4656 5.06836 16.821 5.21119 17.1078 5.49793L18.502 6.89303C18.7887 7.17974 18.9324 7.53448 18.9324 7.95763C18.9324 8.38078 18.7887 8.73552 18.502 9.02223L9.17241 18.3519L5.83408 19.0478C5.56979 19.1064 5.34199 19.0397 5.15115 18.8488C4.96044 18.6581 4.89448 18.4309 4.95301 18.1667L5.64812 14.8276L14.9778 5.49793C15.2644 5.21137 15.6193 5.06841 16.0423 5.06836ZM16.0464 6.30267C15.9745 6.3027 15.9149 6.32702 15.8669 6.37495L7.36398 14.869L9.131 16.636L17.6258 8.13384C17.6738 8.08589 17.6973 8.0255 17.6973 7.95357C17.6973 7.88155 17.6738 7.82122 17.6258 7.77329L16.2267 6.37495C16.1787 6.32699 16.1185 6.30267 16.0464 6.30267Z" fill="black"/>
</svg>
