<svg width="320" height="300" viewBox="0 0 320 300" fill="none" xmlns="http://www.w3.org/2000/svg">
<path opacity="0.2" d="M156.839 144.138L27.8976 78.2112L75.5615 27.6368L175.715 129.492L156.839 144.138Z" fill="url(#paint0_linear_3314_26716)" stroke="url(#paint1_linear_3314_26716)" stroke-width="0.917792"/>
<path opacity="0.2" d="M140.949 139.367L244.945 255.21L284.478 188.742L144.735 128.586L140.949 139.367Z" fill="url(#paint2_linear_3314_26716)" stroke="url(#paint3_linear_3314_26716)" stroke-width="0.917792"/>
<path opacity="0.3" d="M136.546 37.4326L186.774 1.7666L171.386 144.061L158.3 144.674L136.546 37.4326Z" fill="url(#paint4_linear_3314_26716)" stroke="url(#paint5_linear_3314_26716)" stroke-width="0.917792"/>
<path opacity="0.3" d="M161.929 157.844L140.68 246.069L197.511 292.848L177.043 151.648L161.929 157.844Z" fill="url(#paint6_linear_3314_26716)" stroke="url(#paint7_linear_3314_26716)" stroke-width="0.917792"/>
<path opacity="0.2" d="M294.009 139.441L313.7 82.18L187.038 140.122L189.949 153.184L294.009 139.441Z" fill="url(#paint8_linear_3314_26716)" stroke="url(#paint9_linear_3314_26716)" stroke-width="0.917792"/>
<path opacity="0.3" d="M166.178 126.999L222.507 40.0484L293.702 57.6219L172.14 140.804L166.178 126.999Z" fill="url(#paint10_linear_3314_26716)" stroke="url(#paint11_linear_3314_26716)" stroke-width="0.917792"/>
<path opacity="0.2" d="M10.5511 124.134L2.679 214.838L143.155 155.249L138.555 135.268L10.5511 124.134Z" fill="url(#paint12_linear_3314_26716)" stroke="url(#paint13_linear_3314_26716)" stroke-width="0.917792"/>
<path opacity="0.3" d="M156.561 138.469L85.5199 205.778L94.3822 258.318L175.594 145.661L156.561 138.469Z" fill="url(#paint14_linear_3314_26716)" stroke="url(#paint15_linear_3314_26716)" stroke-width="0.917792"/>
<g filter="url(#filter0_dd_3314_26716)">
<path d="M219.301 82.175L130.369 63.5518C126.4 62.7206 122.509 65.2644 121.678 69.2333L97.8812 182.869C97.05 186.838 99.5938 190.729 103.563 191.561L183.512 208.303L203.632 192.824L224.983 90.8664C225.814 86.8974 223.27 83.0062 219.301 82.175Z" fill="white"/>
</g>
<path d="M186.33 193.041L183.511 208.302L203.631 192.824L190.692 190.114C188.674 189.692 186.704 191.013 186.33 193.041Z" fill="#AAAAAD"/>
<rect x="137.914" y="85.7598" width="67.9166" height="3.67117" rx="1.83558" transform="rotate(11.8273 137.914 85.7598)" fill="#E1E1E4"/>
<rect x="135.656" y="96.5391" width="67.9166" height="3.67117" rx="1.83558" transform="rotate(11.8273 135.656 96.5391)" fill="#E1E1E4"/>
<rect x="133.399" y="107.319" width="67.9166" height="3.67117" rx="1.83558" transform="rotate(11.8273 133.399 107.319)" fill="#E1E1E4"/>
<rect x="131.142" y="118.099" width="67.9166" height="3.67117" rx="1.83558" transform="rotate(11.8273 131.142 118.099)" fill="#E1E1E4"/>
<rect x="128.884" y="128.879" width="67.9166" height="3.67117" rx="1.83558" transform="rotate(11.8273 128.884 128.879)" fill="#E1E1E4"/>
<rect x="126.627" y="139.658" width="33.0405" height="3.67117" rx="1.83558" transform="rotate(11.8273 126.627 139.658)" fill="#E1E1E4"/>
<circle cx="24.448" cy="24.448" r="22.637" transform="matrix(-0.610877 -0.791726 -0.791726 0.610877 151.493 176.253)" fill="url(#paint16_linear_3314_26716)" stroke="#919193" stroke-width="3.62193"/>
<path d="M99.1921 185.775L96.2599 188.038" stroke="#919193" stroke-width="3.62193" stroke-linecap="round"/>
<path d="M111.665 157.001C110.288 157.459 107.882 158.05 104.703 162.716C102.914 165.343 102.08 168.007 101.928 171.861" stroke="#DBDBDB" stroke-width="2.75338" stroke-linecap="round"/>
<rect x="92.9259" y="183.715" width="11.0135" height="31.2049" rx="1.83558" transform="rotate(52.3471 92.9259 183.715)" fill="#474748"/>
<g filter="url(#filter1_n_3314_26716)">
<path fill-rule="evenodd" clip-rule="evenodd" d="M130.975 168.668C131.066 169.425 130.617 170.194 129.719 171.734L124.581 180.543C123.783 181.912 123.383 182.597 122.751 182.903C122.547 183.002 122.328 183.07 122.104 183.105C121.411 183.213 120.692 182.876 119.256 182.204L110.315 178.018C109.426 177.602 108.981 177.394 108.931 177.101C108.916 177.011 108.923 176.919 108.951 176.831C109.042 176.549 109.513 176.403 110.453 176.112L119.715 173.246C119.9 173.188 119.992 173.16 120.065 173.191C120.089 173.202 120.11 173.216 120.129 173.233C120.186 173.289 120.196 173.385 120.215 173.578L120.4 175.435C120.479 176.234 120.519 176.634 120.779 176.724C121.038 176.815 121.318 176.526 121.876 175.949L127.413 170.23C127.956 169.669 128.228 169.388 128.146 169.108C128.065 168.828 127.685 168.737 126.926 168.553L119.188 166.687C118.407 166.499 118.017 166.405 117.846 166.62C117.675 166.836 117.855 167.195 118.216 167.912L119.054 169.578C119.141 169.751 119.184 169.838 119.165 169.915C119.159 169.94 119.149 169.963 119.134 169.984C119.089 170.05 118.996 170.076 118.809 170.126L109.454 172.667C108.504 172.925 108.029 173.054 107.8 172.865C107.729 172.806 107.674 172.732 107.639 172.647C107.524 172.374 107.789 171.96 108.317 171.131L113.626 162.808C114.479 161.471 114.906 160.802 115.549 160.522C115.758 160.431 115.978 160.372 116.204 160.346C116.901 160.266 117.605 160.63 119.014 161.359L128.069 166.048C129.651 166.868 130.443 167.277 130.771 167.965C130.876 168.187 130.945 168.424 130.975 168.668Z" fill="#7951FF"/>
</g>
<defs>
<filter id="filter0_dd_3314_26716" x="51.8342" y="21.1761" width="219.196" height="236.687" filterUnits="userSpaceOnUse" color-interpolation-filters="sRGB">
<feFlood flood-opacity="0" result="BackgroundImageFix"/>
<feColorMatrix in="SourceAlpha" type="matrix" values="0 0 0 0 0 0 0 0 0 0 0 0 0 0 0 0 0 0 127 0" result="hardAlpha"/>
<feOffset dy="3.67117"/>
<feGaussianBlur stdDeviation="22.9448"/>
<feComposite in2="hardAlpha" operator="out"/>
<feColorMatrix type="matrix" values="0 0 0 0 0.866827 0 0 0 0 0.829834 0 0 0 0 1 0 0 0 0.7 0"/>
<feBlend mode="normal" in2="BackgroundImageFix" result="effect1_dropShadow_3314_26716"/>
<feColorMatrix in="SourceAlpha" type="matrix" values="0 0 0 0 0 0 0 0 0 0 0 0 0 0 0 0 0 0 127 0" result="hardAlpha"/>
<feOffset/>
<feGaussianBlur stdDeviation="9.17792"/>
<feComposite in2="hardAlpha" operator="out"/>
<feColorMatrix type="matrix" values="0 0 0 0 0.476449 0 0 0 0 0.317107 0 0 0 0 1 0 0 0 0.25 0"/>
<feBlend mode="normal" in2="effect1_dropShadow_3314_26716" result="effect2_dropShadow_3314_26716"/>
<feBlend mode="normal" in="SourceGraphic" in2="effect2_dropShadow_3314_26716" result="shape"/>
</filter>
<filter id="filter1_n_3314_26716" x="107.613" y="160.335" width="23.3738" height="22.79" filterUnits="userSpaceOnUse" color-interpolation-filters="sRGB">
<feFlood flood-opacity="0" result="BackgroundImageFix"/>
<feBlend mode="normal" in="SourceGraphic" in2="BackgroundImageFix" result="shape"/>
<feTurbulence type="fractalNoise" baseFrequency="8.7710456848144531 8.7710456848144531" stitchTiles="stitch" numOctaves="3" result="noise" seed="606" />
<feColorMatrix in="noise" type="luminanceToAlpha" result="alphaNoise" />
<feComponentTransfer in="alphaNoise" result="coloredNoise1">
<feFuncA type="discrete" tableValues="1 1 1 1 1 1 1 1 1 1 1 1 1 1 1 1 1 1 1 1 1 1 1 1 1 1 1 1 1 1 1 1 1 1 1 1 1 1 1 1 1 1 1 1 1 1 1 1 1 1 1 0 0 0 0 0 0 0 0 0 0 0 0 0 0 0 0 0 0 0 0 0 0 0 0 0 0 0 0 0 0 0 0 0 0 0 0 0 0 0 0 0 0 0 0 0 0 0 0 0 "/>
</feComponentTransfer>
<feComposite operator="in" in2="shape" in="coloredNoise1" result="noise1Clipped" />
<feFlood flood-color="#A388FF" result="color1Flood" />
<feComposite operator="in" in2="noise1Clipped" in="color1Flood" result="color1" />
<feMerge result="effect1_noise_3314_26716">
<feMergeNode in="shape" />
<feMergeNode in="color1" />
</feMerge>
</filter>
<linearGradient id="paint0_linear_3314_26716" x1="59.2737" y1="44.4645" x2="164.588" y2="142.49" gradientUnits="userSpaceOnUse">
<stop stop-color="#7E58FF" stop-opacity="0"/>
<stop offset="0.645368" stop-color="#7E58FF" stop-opacity="0.559708"/>
<stop offset="0.848576" stop-color="#7E58FF"/>
<stop offset="1" stop-color="#7E58FF" stop-opacity="0"/>
</linearGradient>
<linearGradient id="paint1_linear_3314_26716" x1="59.273" y1="44.4647" x2="164.933" y2="142.812" gradientUnits="userSpaceOnUse">
<stop offset="0.178118" stop-color="#7951FF" stop-opacity="0"/>
<stop offset="1" stop-color="#7951FF"/>
</linearGradient>
<linearGradient id="paint2_linear_3314_26716" x1="269.342" y1="235.1" x2="135.318" y2="142.926" gradientUnits="userSpaceOnUse">
<stop offset="0.123655" stop-color="#7E58FF" stop-opacity="0"/>
<stop offset="0.848576" stop-color="#7E58FF"/>
<stop offset="1" stop-color="#7E58FF" stop-opacity="0"/>
</linearGradient>
<linearGradient id="paint3_linear_3314_26716" x1="260.103" y1="213.857" x2="136.527" y2="139.982" gradientUnits="userSpaceOnUse">
<stop offset="0.12369" stop-color="#7951FF" stop-opacity="0"/>
<stop offset="1" stop-color="#7951FF"/>
</linearGradient>
<linearGradient id="paint4_linear_3314_26716" x1="138.79" y1="31.2643" x2="163.448" y2="144.677" gradientUnits="userSpaceOnUse">
<stop stop-color="#7E58FF" stop-opacity="0"/>
<stop offset="0.848576" stop-color="#7E58FF"/>
<stop offset="1" stop-color="#7E58FF" stop-opacity="0"/>
</linearGradient>
<linearGradient id="paint5_linear_3314_26716" x1="160.358" y1="30.3465" x2="163.447" y2="145.149" gradientUnits="userSpaceOnUse">
<stop offset="0.12369" stop-color="#7951FF" stop-opacity="0"/>
<stop offset="1" stop-color="#7951FF"/>
</linearGradient>
<linearGradient id="paint6_linear_3314_26716" x1="155.525" y1="265.777" x2="160.888" y2="152.994" gradientUnits="userSpaceOnUse">
<stop offset="0.183868" stop-color="#7E58FF" stop-opacity="0"/>
<stop offset="0.848576" stop-color="#7E58FF"/>
<stop offset="1" stop-color="#7E58FF" stop-opacity="0"/>
</linearGradient>
<linearGradient id="paint7_linear_3314_26716" x1="155.483" y1="240.726" x2="168.961" y2="151.75" gradientUnits="userSpaceOnUse">
<stop offset="0.170053" stop-color="#7951FF" stop-opacity="0"/>
<stop offset="1" stop-color="#7951FF"/>
</linearGradient>
<linearGradient id="paint8_linear_3314_26716" x1="300.569" y1="114.502" x2="194.884" y2="154.245" gradientUnits="userSpaceOnUse">
<stop offset="0.119898" stop-color="#7E58FF" stop-opacity="0"/>
<stop offset="0.848576" stop-color="#7E58FF"/>
<stop offset="1" stop-color="#7E58FF" stop-opacity="0"/>
</linearGradient>
<linearGradient id="paint9_linear_3314_26716" x1="277.583" y1="124.461" x2="190.545" y2="147.324" gradientUnits="userSpaceOnUse">
<stop offset="0.170053" stop-color="#7951FF" stop-opacity="0"/>
<stop offset="1" stop-color="#7951FF"/>
</linearGradient>
<linearGradient id="paint10_linear_3314_26716" x1="215.876" y1="38.1477" x2="173.199" y2="164.344" gradientUnits="userSpaceOnUse">
<stop stop-color="#7E58FF" stop-opacity="0"/>
<stop offset="0.848576" stop-color="#7E58FF"/>
<stop offset="1" stop-color="#7E58FF" stop-opacity="0"/>
</linearGradient>
<linearGradient id="paint11_linear_3314_26716" x1="236.985" y1="62.0104" x2="164.7" y2="140.684" gradientUnits="userSpaceOnUse">
<stop offset="0.12369" stop-color="#7951FF" stop-opacity="0"/>
<stop offset="1" stop-color="#7951FF"/>
</linearGradient>
<linearGradient id="paint12_linear_3314_26716" x1="35.4459" y1="154.422" x2="153.684" y2="144.774" gradientUnits="userSpaceOnUse">
<stop stop-color="#7E58FF" stop-opacity="0"/>
<stop offset="0.653408" stop-color="#7E58FF"/>
<stop offset="0.844043" stop-color="#7E58FF" stop-opacity="0"/>
</linearGradient>
<linearGradient id="paint13_linear_3314_26716" x1="36.1728" y1="163.804" x2="140.564" y2="141.063" gradientUnits="userSpaceOnUse">
<stop offset="0.12369" stop-color="#7951FF" stop-opacity="0"/>
<stop offset="1" stop-color="#7951FF"/>
</linearGradient>
<linearGradient id="paint14_linear_3314_26716" x1="89.5686" y1="223.785" x2="161.223" y2="136.524" gradientUnits="userSpaceOnUse">
<stop offset="0.119898" stop-color="#7E58FF" stop-opacity="0"/>
<stop offset="0.848576" stop-color="#7E58FF"/>
<stop offset="1" stop-color="#7E58FF" stop-opacity="0"/>
</linearGradient>
<linearGradient id="paint15_linear_3314_26716" x1="104.495" y1="203.667" x2="168.441" y2="140.348" gradientUnits="userSpaceOnUse">
<stop offset="0.170053" stop-color="#7951FF" stop-opacity="0"/>
<stop offset="1" stop-color="#7951FF"/>
</linearGradient>
<linearGradient id="paint16_linear_3314_26716" x1="24.448" y1="0" x2="24.448" y2="48.896" gradientUnits="userSpaceOnUse">
<stop stop-color="white"/>
<stop offset="1" stop-color="#F1F1F5"/>
</linearGradient>
</defs>
</svg>
