<svg width="815" height="500" viewBox="0 0 815 500" fill="none" xmlns="http://www.w3.org/2000/svg">
<rect x="1.2" y="1.2" width="812.6" height="497.6" rx="14.8" fill="url(#paint0_linear_3638_22393)"/>
<rect x="1.2" y="1.2" width="812.6" height="497.6" rx="14.8" stroke="white" stroke-width="2.4"/>
<path opacity="0.2" d="M411.665 252.985L271.177 181.153L323.11 126.048L432.234 237.027L411.665 252.985Z" fill="url(#paint1_linear_3638_22393)" stroke="url(#paint2_linear_3638_22393)"/>
<path opacity="0.2" d="M394.355 247.786L507.665 374.006L550.738 301.584L398.479 236.039L394.355 247.786Z" fill="url(#paint3_linear_3638_22393)" stroke="url(#paint4_linear_3638_22393)"/>
<path opacity="0.3" d="M389.556 136.719L444.282 97.8604L427.516 252.899L413.258 253.567L389.556 136.719Z" fill="url(#paint5_linear_3638_22393)" stroke="url(#paint6_linear_3638_22393)"/>
<path opacity="0.3" d="M417.204 267.921L394.07 352.81L444.834 392.653L433.642 261.182L417.204 267.921Z" fill="url(#paint7_linear_3638_22393)" stroke="url(#paint8_linear_3638_22393)"/>
<path opacity="0.2" d="M561.127 247.868L582.581 185.478L444.575 248.61L447.746 262.841L561.127 247.868Z" fill="url(#paint9_linear_3638_22393)" stroke="url(#paint10_linear_3638_22393)"/>
<path opacity="0.3" d="M421.848 234.31L483.224 139.572L560.796 158.719L428.345 249.35L421.848 234.31Z" fill="url(#paint11_linear_3638_22393)" stroke="url(#paint12_linear_3638_22393)"/>
<path opacity="0.2" d="M252.277 231.189L243.701 330.016L396.758 265.09L391.747 243.319L252.277 231.189Z" fill="url(#paint13_linear_3638_22393)" stroke="url(#paint14_linear_3638_22393)"/>
<path opacity="0.3" d="M411.361 246.807L333.957 320.145L343.613 377.392L432.101 254.643L411.361 246.807Z" fill="url(#paint15_linear_3638_22393)" stroke="url(#paint16_linear_3638_22393)"/>
<g filter="url(#filter0_dd_3638_22393)">
<path d="M479.728 185.471L382.83 165.18C378.506 164.274 374.266 167.046 373.36 171.37L347.432 295.185C346.527 299.509 349.298 303.749 353.623 304.654L440.733 322.896L462.656 306.031L485.919 194.941C486.824 190.616 484.053 186.377 479.728 185.471Z" fill="white"/>
</g>
<path d="M443.804 306.268L440.733 322.896L462.655 306.031L448.558 303.079C446.359 302.619 444.212 304.059 443.804 306.268Z" fill="#AAAAAD"/>
<rect x="391.045" y="189.377" width="74" height="4" rx="2" transform="rotate(11.8273 391.045 189.377)" fill="#E1E1E4"/>
<rect x="388.585" y="201.122" width="74" height="4" rx="2" transform="rotate(11.8273 388.585 201.122)" fill="#E1E1E4"/>
<rect x="386.126" y="212.868" width="74" height="4" rx="2" transform="rotate(11.8273 386.126 212.868)" fill="#E1E1E4"/>
<rect x="383.666" y="224.613" width="74" height="4" rx="2" transform="rotate(11.8273 383.666 224.613)" fill="#E1E1E4"/>
<rect x="381.207" y="236.358" width="74" height="4" rx="2" transform="rotate(11.8273 381.207 236.358)" fill="#E1E1E4"/>
<rect x="378.747" y="248.103" width="36" height="4" rx="2" transform="rotate(11.8273 378.747 248.103)" fill="#E1E1E4"/>
<circle cx="26.6378" cy="26.6378" r="24.6647" transform="matrix(-0.610877 -0.791726 -0.791726 0.610877 405.895 287.977)" fill="url(#paint17_linear_3638_22393)" stroke="#919193" stroke-width="3.94635"/>
<path d="M348.911 298.352L345.716 300.818" stroke="#919193" stroke-width="3.94635" stroke-linecap="round"/>
<path d="M362.5 267C361 267.5 358.378 268.143 354.915 273.227C352.965 276.09 352.057 278.992 351.891 283.191" stroke="#DBDBDB" stroke-width="3" stroke-linecap="round"/>
<rect x="342.081" y="296.107" width="12" height="34" rx="2" transform="rotate(52.3471 342.081 296.107)" fill="#474748"/>
<g filter="url(#filter1_n_3638_22393)">
<path fill-rule="evenodd" clip-rule="evenodd" d="M380.158 279.853C380.25 280.61 379.801 281.38 378.903 282.919L373.765 291.728C372.966 293.098 372.567 293.782 371.935 294.088C371.73 294.187 371.512 294.255 371.287 294.29C370.594 294.398 369.876 294.061 368.439 293.389L359.499 289.203C358.61 288.787 358.165 288.579 358.115 288.286C358.1 288.196 358.106 288.104 358.135 288.016C358.226 287.734 358.696 287.588 359.637 287.297L368.898 284.431C369.083 284.373 369.176 284.345 369.249 284.376C369.272 284.387 369.294 284.401 369.312 284.418C369.37 284.474 369.38 284.57 369.399 284.763L369.583 286.62C369.663 287.419 369.702 287.819 369.962 287.909C370.222 288 370.501 287.711 371.06 287.135L376.596 281.415C377.14 280.854 377.411 280.573 377.33 280.293C377.248 280.013 376.869 279.922 376.11 279.739L368.371 277.872C367.591 277.684 367.2 277.59 367.029 277.805C366.858 278.021 367.039 278.38 367.4 279.097L368.237 280.763C368.324 280.936 368.368 281.023 368.349 281.1C368.343 281.125 368.332 281.148 368.318 281.169C368.273 281.235 368.179 281.261 367.993 281.311L358.638 283.852C357.687 284.11 357.212 284.239 356.984 284.05C356.913 283.991 356.858 283.917 356.822 283.832C356.708 283.559 356.972 283.145 357.5 282.316L362.81 273.993C363.663 272.656 364.089 271.987 364.733 271.707C364.941 271.616 365.162 271.557 365.388 271.531C366.085 271.451 366.789 271.815 368.197 272.544L377.252 277.233C378.835 278.053 379.626 278.463 379.954 279.15C380.06 279.372 380.129 279.609 380.158 279.853Z" fill="#7951FF"/>
</g>
<defs>
<filter id="filter0_dd_3638_22393" x="297.261" y="119.008" width="238.829" height="257.888" filterUnits="userSpaceOnUse" color-interpolation-filters="sRGB">
<feFlood flood-opacity="0" result="BackgroundImageFix"/>
<feColorMatrix in="SourceAlpha" type="matrix" values="0 0 0 0 0 0 0 0 0 0 0 0 0 0 0 0 0 0 127 0" result="hardAlpha"/>
<feOffset dy="4"/>
<feGaussianBlur stdDeviation="25"/>
<feComposite in2="hardAlpha" operator="out"/>
<feColorMatrix type="matrix" values="0 0 0 0 0.866827 0 0 0 0 0.829834 0 0 0 0 1 0 0 0 0.7 0"/>
<feBlend mode="normal" in2="BackgroundImageFix" result="effect1_dropShadow_3638_22393"/>
<feColorMatrix in="SourceAlpha" type="matrix" values="0 0 0 0 0 0 0 0 0 0 0 0 0 0 0 0 0 0 127 0" result="hardAlpha"/>
<feOffset/>
<feGaussianBlur stdDeviation="10"/>
<feComposite in2="hardAlpha" operator="out"/>
<feColorMatrix type="matrix" values="0 0 0 0 0.476449 0 0 0 0 0.317107 0 0 0 0 1 0 0 0 0.25 0"/>
<feBlend mode="normal" in2="effect1_dropShadow_3638_22393" result="effect2_dropShadow_3638_22393"/>
<feBlend mode="normal" in="SourceGraphic" in2="effect2_dropShadow_3638_22393" result="shape"/>
</filter>
<filter id="filter1_n_3638_22393" x="356.796" y="271.52" width="23.3738" height="22.7896" filterUnits="userSpaceOnUse" color-interpolation-filters="sRGB">
<feFlood flood-opacity="0" result="BackgroundImageFix"/>
<feBlend mode="normal" in="SourceGraphic" in2="BackgroundImageFix" result="shape"/>
<feTurbulence type="fractalNoise" baseFrequency="8.7710456848144531 8.7710456848144531" stitchTiles="stitch" numOctaves="3" result="noise" seed="606" />
<feColorMatrix in="noise" type="luminanceToAlpha" result="alphaNoise" />
<feComponentTransfer in="alphaNoise" result="coloredNoise1">
<feFuncA type="discrete" tableValues="1 1 1 1 1 1 1 1 1 1 1 1 1 1 1 1 1 1 1 1 1 1 1 1 1 1 1 1 1 1 1 1 1 1 1 1 1 1 1 1 1 1 1 1 1 1 1 1 1 1 1 0 0 0 0 0 0 0 0 0 0 0 0 0 0 0 0 0 0 0 0 0 0 0 0 0 0 0 0 0 0 0 0 0 0 0 0 0 0 0 0 0 0 0 0 0 0 0 0 0 "/>
</feComponentTransfer>
<feComposite operator="in" in2="shape" in="coloredNoise1" result="noise1Clipped" />
<feFlood flood-color="#A388FF" result="color1Flood" />
<feComposite operator="in" in2="noise1Clipped" in="color1Flood" result="color1" />
<feMerge result="effect1_noise_3638_22393">
<feMergeNode in="shape" />
<feMergeNode in="color1" />
</feMerge>
</filter>
<linearGradient id="paint0_linear_3638_22393" x1="407.5" y1="500" x2="407.5" y2="-176.5" gradientUnits="userSpaceOnUse">
<stop offset="0.337001" stop-color="white"/>
<stop offset="1" stop-color="#EDE7FF"/>
</linearGradient>
<linearGradient id="paint1_linear_3638_22393" x1="305.363" y1="144.383" x2="420.11" y2="251.189" gradientUnits="userSpaceOnUse">
<stop stop-color="#7E58FF" stop-opacity="0"/>
<stop offset="0.645368" stop-color="#7E58FF" stop-opacity="0.559708"/>
<stop offset="0.848576" stop-color="#7E58FF"/>
<stop offset="1" stop-color="#7E58FF" stop-opacity="0"/>
</linearGradient>
<linearGradient id="paint2_linear_3638_22393" x1="305.362" y1="144.383" x2="420.486" y2="251.54" gradientUnits="userSpaceOnUse">
<stop offset="0.178118" stop-color="#7951FF" stop-opacity="0"/>
<stop offset="1" stop-color="#7951FF"/>
</linearGradient>
<linearGradient id="paint3_linear_3638_22393" x1="534.247" y1="352.093" x2="388.218" y2="251.663" gradientUnits="userSpaceOnUse">
<stop offset="0.123655" stop-color="#7E58FF" stop-opacity="0"/>
<stop offset="0.848576" stop-color="#7E58FF"/>
<stop offset="1" stop-color="#7E58FF" stop-opacity="0"/>
</linearGradient>
<linearGradient id="paint4_linear_3638_22393" x1="524.181" y1="328.947" x2="389.536" y2="248.456" gradientUnits="userSpaceOnUse">
<stop offset="0.12369" stop-color="#7951FF" stop-opacity="0"/>
<stop offset="1" stop-color="#7951FF"/>
</linearGradient>
<linearGradient id="paint5_linear_3638_22393" x1="392" y1="130" x2="418.866" y2="253.571" gradientUnits="userSpaceOnUse">
<stop stop-color="#7E58FF" stop-opacity="0"/>
<stop offset="0.848576" stop-color="#7E58FF"/>
<stop offset="1" stop-color="#7E58FF" stop-opacity="0"/>
</linearGradient>
<linearGradient id="paint6_linear_3638_22393" x1="415.5" y1="129" x2="418.865" y2="254.086" gradientUnits="userSpaceOnUse">
<stop offset="0.12369" stop-color="#7951FF" stop-opacity="0"/>
<stop offset="1" stop-color="#7951FF"/>
</linearGradient>
<linearGradient id="paint7_linear_3638_22393" x1="410.234" y1="385.518" x2="416.077" y2="262.632" gradientUnits="userSpaceOnUse">
<stop offset="0.315893" stop-color="#7E58FF" stop-opacity="0"/>
<stop offset="0.848576" stop-color="#7E58FF"/>
<stop offset="1" stop-color="#7E58FF" stop-opacity="0"/>
</linearGradient>
<linearGradient id="paint8_linear_3638_22393" x1="410.188" y1="358.223" x2="424.874" y2="261.278" gradientUnits="userSpaceOnUse">
<stop offset="0.170053" stop-color="#7951FF" stop-opacity="0"/>
<stop offset="1" stop-color="#7951FF"/>
</linearGradient>
<linearGradient id="paint9_linear_3638_22393" x1="568.275" y1="220.693" x2="453.124" y2="263.996" gradientUnits="userSpaceOnUse">
<stop offset="0.119898" stop-color="#7E58FF" stop-opacity="0"/>
<stop offset="0.848576" stop-color="#7E58FF"/>
<stop offset="1" stop-color="#7E58FF" stop-opacity="0"/>
</linearGradient>
<linearGradient id="paint10_linear_3638_22393" x1="543.231" y1="231.545" x2="448.396" y2="256.456" gradientUnits="userSpaceOnUse">
<stop offset="0.170053" stop-color="#7951FF" stop-opacity="0"/>
<stop offset="1" stop-color="#7951FF"/>
</linearGradient>
<linearGradient id="paint11_linear_3638_22393" x1="475.999" y1="137.5" x2="429.499" y2="275" gradientUnits="userSpaceOnUse">
<stop stop-color="#7E58FF" stop-opacity="0"/>
<stop offset="0.848576" stop-color="#7E58FF"/>
<stop offset="1" stop-color="#7E58FF" stop-opacity="0"/>
</linearGradient>
<linearGradient id="paint12_linear_3638_22393" x1="498.999" y1="163.5" x2="420.239" y2="249.221" gradientUnits="userSpaceOnUse">
<stop offset="0.12369" stop-color="#7951FF" stop-opacity="0"/>
<stop offset="1" stop-color="#7951FF"/>
</linearGradient>
<linearGradient id="paint13_linear_3638_22393" x1="279.402" y1="264.189" x2="408.231" y2="253.677" gradientUnits="userSpaceOnUse">
<stop stop-color="#7E58FF" stop-opacity="0"/>
<stop offset="0.653408" stop-color="#7E58FF"/>
<stop offset="0.844043" stop-color="#7E58FF" stop-opacity="0"/>
</linearGradient>
<linearGradient id="paint14_linear_3638_22393" x1="280.194" y1="274.412" x2="393.936" y2="249.634" gradientUnits="userSpaceOnUse">
<stop offset="0.12369" stop-color="#7951FF" stop-opacity="0"/>
<stop offset="1" stop-color="#7951FF"/>
</linearGradient>
<linearGradient id="paint15_linear_3638_22393" x1="338.369" y1="339.765" x2="416.442" y2="244.688" gradientUnits="userSpaceOnUse">
<stop offset="0.119898" stop-color="#7E58FF" stop-opacity="0"/>
<stop offset="0.848576" stop-color="#7E58FF"/>
<stop offset="1" stop-color="#7E58FF" stop-opacity="0"/>
</linearGradient>
<linearGradient id="paint16_linear_3638_22393" x1="354.632" y1="317.845" x2="424.306" y2="248.855" gradientUnits="userSpaceOnUse">
<stop offset="0.170053" stop-color="#7951FF" stop-opacity="0"/>
<stop offset="1" stop-color="#7951FF"/>
</linearGradient>
<linearGradient id="paint17_linear_3638_22393" x1="26.6378" y1="0" x2="26.6378" y2="53.2757" gradientUnits="userSpaceOnUse">
<stop stop-color="white"/>
<stop offset="1" stop-color="#F1F1F5"/>
</linearGradient>
</defs>
</svg>
