<svg width="762" height="152" viewBox="0 0 762 152" fill="none" xmlns="http://www.w3.org/2000/svg">
<g clip-path="url(#clip0_4149_26109)">
<rect width="762" height="152" rx="7.75572" fill="url(#paint0_linear_4149_26109)"/>
<circle opacity="0.3" cx="498" cy="80.75" r="190.75" fill="url(#paint1_linear_4149_26109)" fill-opacity="0.5"/>
<circle opacity="0.4" cx="498.002" cy="80.7494" r="136.698" fill="url(#paint2_linear_4149_26109)" fill-opacity="0.5"/>
<circle opacity="0.8" cx="498.392" cy="80.3578" r="90.0873" fill="url(#paint3_linear_4149_26109)" fill-opacity="0.5"/>
<g opacity="0.5">
<g filter="url(#filter0_n_4149_26109)">
<path d="M425.76 127.171C444.027 103.141 458.663 40.7063 464.143 10.0412C464.324 9.03132 465.355 8.43991 466.329 8.76007C490.603 16.7335 515.111 20.7428 559.574 19.9911C560.656 19.9728 561.493 20.9581 561.264 22.0157C552.814 61.0696 542.177 112.387 524.926 127.435C494.646 153.847 437.959 134.164 426.431 129.757C425.377 129.354 425.077 128.069 425.76 127.171Z" fill="url(#paint4_linear_4149_26109)"/>
</g>
<g filter="url(#filter1_n_4149_26109)">
<path d="M517.574 121.323C513.078 135.215 496.667 137.638 491.258 140.681C522.847 136.416 531.812 123.381 540.844 99.1515C534.777 111.163 531.487 120.668 519.442 120.037C518.605 119.993 517.832 120.525 517.574 121.323Z" fill="url(#paint5_linear_4149_26109)"/>
</g>
<path d="M501.431 51.1405C510.316 52.1449 515.575 59.9952 513.193 68.6136C513.109 68.9181 513.014 69.2195 512.913 69.5177C521.153 71.0212 525.911 78.5508 523.622 86.833C521.233 95.4784 512.07 101.67 503.157 100.663L473.226 97.2791C464.314 96.2711 459.026 88.4455 461.415 79.8004C463.708 71.5064 472.234 65.4714 480.793 65.8846C480.858 65.583 480.932 65.2798 481.016 64.976C483.398 56.3579 492.546 50.1365 501.431 51.1405ZM497.047 68.7054C496.845 68.2947 496.265 68.2152 495.84 68.5399L484.669 77.0886C484.088 77.5341 484.237 78.349 484.914 78.4258L491.043 79.1187L488.399 88.6839L492.332 89.1285L494.976 79.5633L501.211 80.2681C501.871 80.3425 502.443 79.6451 502.173 79.0966L497.047 68.7054Z" fill="#FCF8FF" fill-opacity="0.8"/>
</g>
<rect x="539" y="82" width="173" height="37" rx="8" fill="white"/>
<path d="M564.047 106.656C563.25 106.656 562.536 106.521 561.906 106.25C561.276 105.979 560.781 105.602 560.422 105.117C560.062 104.628 559.875 104.068 559.859 103.438H561.906C561.927 103.734 562.031 103.997 562.219 104.227C562.411 104.451 562.667 104.625 562.984 104.75C563.302 104.875 563.656 104.938 564.047 104.938C564.458 104.938 564.826 104.867 565.148 104.727C565.477 104.581 565.732 104.38 565.914 104.125C566.096 103.87 566.188 103.578 566.188 103.25C566.188 102.911 566.094 102.609 565.906 102.344C565.719 102.078 565.448 101.872 565.094 101.727C564.74 101.576 564.323 101.5 563.844 101.5H562.828V99.9375H563.844C564.24 99.9375 564.591 99.8698 564.898 99.7344C565.211 99.5938 565.453 99.3984 565.625 99.1484C565.797 98.8932 565.88 98.6042 565.875 98.2812C565.88 97.9688 565.807 97.6927 565.656 97.4531C565.51 97.2083 565.299 97.0208 565.023 96.8906C564.747 96.7552 564.427 96.6875 564.062 96.6875C563.708 96.6875 563.378 96.7526 563.07 96.8828C562.768 97.0078 562.523 97.1875 562.336 97.4219C562.154 97.6562 562.057 97.9271 562.047 98.2344H560.094C560.109 97.6094 560.292 97.0547 560.641 96.5703C560.995 96.0859 561.471 95.7083 562.07 95.4375C562.674 95.1667 563.344 95.0312 564.078 95.0312C564.823 95.0312 565.482 95.1719 566.055 95.4531C566.628 95.7292 567.07 96.1068 567.383 96.5859C567.695 97.0651 567.849 97.5938 567.844 98.1719C567.849 98.5885 567.766 98.9661 567.594 99.3047C567.422 99.6432 567.18 99.9245 566.867 100.148C566.555 100.372 566.193 100.526 565.781 100.609V100.703C566.307 100.776 566.758 100.932 567.133 101.172C567.508 101.406 567.792 101.711 567.984 102.086C568.177 102.461 568.271 102.885 568.266 103.359C568.271 103.984 568.091 104.549 567.727 105.055C567.367 105.555 566.865 105.948 566.219 106.234C565.578 106.516 564.854 106.656 564.047 106.656ZM582.484 106.219H569.578V104.797H575.156V101.875H576.875V104.797H582.484V106.219ZM581.328 97.2188H576.914C576.956 97.8125 577.182 98.3724 577.594 98.8984C578.01 99.4245 578.589 99.875 579.328 100.25C580.068 100.62 580.932 100.87 581.922 101L581.281 102.359C580.062 102.188 578.997 101.844 578.086 101.328C577.174 100.807 576.484 100.159 576.016 99.3828C575.542 100.159 574.852 100.807 573.945 101.328C573.039 101.844 571.979 102.188 570.766 102.359L570.109 101C571.104 100.87 571.971 100.62 572.711 100.25C573.456 99.875 574.034 99.4245 574.445 98.8984C574.857 98.3724 575.086 97.8125 575.133 97.2188H570.719V95.8125H575.156V93.9844H576.875V95.8125H581.328V97.2188ZM592.266 97.7812C592.266 98.5208 592.406 99.2656 592.688 100.016C592.974 100.766 593.383 101.448 593.914 102.062C594.451 102.677 595.078 103.151 595.797 103.484L594.828 104.859C594.052 104.495 593.372 103.961 592.789 103.258C592.206 102.549 591.75 101.74 591.422 100.828C591.094 101.823 590.628 102.706 590.023 103.477C589.419 104.247 588.719 104.823 587.922 105.203L586.906 103.844C587.63 103.5 588.266 103.003 588.812 102.352C589.365 101.701 589.786 100.974 590.078 100.172C590.375 99.3698 590.526 98.5729 590.531 97.7812V96.5938H587.453V95.1562H595.219V96.5938H592.266V97.7812ZM598.266 99.2656H600.438V100.719H598.266V107.891H596.531V93.7656H598.266V99.2656ZM613.938 106.141H601.031V104.734H606.562V101.469H608.281V104.734H613.938V106.141ZM608.328 95.6562C608.328 96.3646 608.547 97.0521 608.984 97.7188C609.427 98.3854 610.036 98.9583 610.812 99.4375C611.594 99.9115 612.469 100.224 613.438 100.375L612.688 101.812C611.495 101.589 610.432 101.154 609.5 100.508C608.573 99.8568 607.875 99.0703 607.406 98.1484C607.094 98.7578 606.677 99.3151 606.156 99.8203C605.635 100.32 605.034 100.742 604.352 101.086C603.669 101.424 602.938 101.667 602.156 101.812L601.406 100.375C602.365 100.224 603.229 99.9115 604 99.4375C604.776 98.9583 605.383 98.3854 605.82 97.7188C606.258 97.0469 606.479 96.3594 606.484 95.6562V94.625H608.328V95.6562ZM620.078 97.1562C620.078 98.0417 620.214 98.8984 620.484 99.7266C620.76 100.549 621.161 101.279 621.688 101.914C622.219 102.549 622.849 103.026 623.578 103.344L622.531 104.734C621.75 104.354 621.076 103.807 620.508 103.094C619.945 102.38 619.51 101.552 619.203 100.609C618.885 101.609 618.438 102.49 617.859 103.25C617.286 104.01 616.604 104.594 615.812 105L614.719 103.594C615.464 103.245 616.104 102.734 616.641 102.062C617.182 101.391 617.594 100.628 617.875 99.7734C618.161 98.9193 618.307 98.0469 618.312 97.1562V94.9062H620.078V97.1562ZM626.703 107.906H624.984V99.7344H622.016V98.3281H624.984V93.7656H626.703V107.906ZM636.406 94.3906C637.01 94.3854 637.565 94.4922 638.07 94.7109C638.576 94.9245 638.997 95.2292 639.336 95.625C639.68 96.0156 639.909 96.4688 640.023 96.9844H642.578V93.7656H644.312V101.344H642.578V98.3906H640.039C639.924 98.9167 639.695 99.3802 639.352 99.7812C639.013 100.182 638.589 100.495 638.078 100.719C637.568 100.938 637.01 101.047 636.406 101.047C635.693 101.047 635.052 100.904 634.484 100.617C633.917 100.331 633.471 99.9349 633.148 99.4297C632.831 98.9193 632.672 98.3438 632.672 97.7031C632.672 97.0677 632.831 96.4974 633.148 95.9922C633.471 95.487 633.917 95.0938 634.484 94.8125C635.052 94.526 635.693 94.3854 636.406 94.3906ZM636.406 95.8438C636 95.8438 635.641 95.9193 635.328 96.0703C635.016 96.2214 634.771 96.4375 634.594 96.7188C634.417 97 634.328 97.3281 634.328 97.7031C634.328 98.0729 634.417 98.401 634.594 98.6875C634.771 98.9688 635.016 99.1875 635.328 99.3438C635.646 99.5 636.005 99.5781 636.406 99.5781C636.797 99.5781 637.146 99.5 637.453 99.3438C637.766 99.1875 638.008 98.9688 638.18 98.6875C638.357 98.401 638.448 98.0729 638.453 97.7031C638.448 97.3281 638.357 97 638.18 96.7188C638.008 96.4375 637.768 96.2214 637.461 96.0703C637.154 95.9193 636.802 95.8438 636.406 95.8438ZM636.719 103.5H642.578V102H644.312V107.719H635V102H636.719V103.5ZM642.578 106.312V104.844H636.719V106.312H642.578ZM659.219 106.25H646.312V104.812H651.875V102.516H647.844V97.8906H655.969V96.1406H647.812V94.7344H657.688V99.2656H649.578V101.094H658.016V102.516H653.594V104.812H659.219V106.25ZM671.609 101.781H661.703V95H671.5V96.4062H663.422V100.391H671.609V101.781ZM673.047 106.094H660.141V104.656H673.047V106.094ZM684.047 105.078L687.469 101.672H679.172V100.031H687.469L684.047 96.625L685.188 95.5L690.531 100.844L685.188 106.203L684.047 105.078Z" fill="#4B007C"/>
<rect opacity="0.1" x="129" y="94" width="93" height="26" fill="#7951FF"/>
<path d="M45.6172 82.2344C41.8906 82.2344 39.2188 80.1836 39.1484 77.2188H42.7109C42.7695 78.4844 44 79.3164 45.6406 79.3281C47.3281 79.3164 48.5352 78.3789 48.5234 77.0078C48.5352 75.625 47.3047 74.6523 45.3125 74.6406H43.7422V72.0391H45.3125C46.9883 72.0391 48.1602 71.125 48.1484 69.7891C48.1602 68.4883 47.1641 67.5977 45.6641 67.6094C44.1641 67.5977 42.9336 68.4414 42.875 69.7422H39.5C39.5586 66.8242 42.1836 64.7969 45.6641 64.7969C49.2031 64.7969 51.5586 66.8945 51.5469 69.5781C51.5586 71.4766 50.2344 72.8242 48.3359 73.1641V73.3047C50.832 73.6094 52.2031 75.1211 52.1797 77.2422C52.2031 80.1484 49.4492 82.2344 45.6172 82.2344ZM73.4844 79.2812V81.7188H53.9609V79.2812H62.2109V75.1094H65.1875V79.2812H73.4844ZM54.6172 73.5156C59.4805 72.9297 61.8945 70.5156 62.1641 68.1484H55.6484V65.7578H62.2109V63.0859H65.1875V65.7578H71.7734V68.1484H65.2578C65.5039 70.5156 67.9297 72.9297 72.7812 73.5156L71.7031 75.8359C67.8828 75.3438 65.1289 73.7617 63.6875 71.5586C62.2695 73.7617 59.5273 75.3438 55.7188 75.8359L54.6172 73.5156ZM85.5781 64.5859V74.8281H75.3359V64.5859H85.5781ZM77.7969 83.7812V76.8672H80.7734V81.3906H92.3984V83.7812H77.7969ZM78.2891 72.4844H82.625V66.9766H78.2891V72.4844ZM88.625 78.3906V62.8281H91.625V68.9688H94.5078V71.4297H91.625V78.3906H88.625ZM113.938 62.8281V84.1562H111.078V62.8281H113.938ZM95.6328 72.0625C95.6328 67.293 97.4492 64.3398 100.273 64.3516C102.84 64.3398 104.598 66.7422 104.926 70.7266H106.672V63.1328H109.484V83.1719H106.672V73.0938H104.949C104.691 77.2773 102.898 79.8203 100.273 79.8203C97.4492 79.8203 95.6328 76.8555 95.6328 72.0625ZM98.3984 72.0625C98.375 75.3438 99.0781 76.9609 100.273 76.9375C101.504 76.9609 102.23 75.3438 102.219 72.0625C102.23 68.793 101.504 67.1641 100.273 67.1641C99.0781 67.1641 98.375 68.793 98.3984 72.0625ZM127.672 63.7422C130.391 63.7188 132.559 65.2773 133.145 67.5625H136.719V62.8281H139.695V74.2891H136.719V69.9531H133.156C132.605 72.2969 130.414 73.8906 127.672 73.8906C124.391 73.8906 121.977 71.7578 122 68.7812C121.977 65.8633 124.391 63.7188 127.672 63.7422ZM124.836 68.7812C124.824 70.375 125.996 71.3828 127.672 71.3828C129.289 71.3828 130.449 70.375 130.461 68.7812C130.449 67.1875 129.289 66.2148 127.672 66.2266C125.996 66.2148 124.824 67.1875 124.836 68.7812ZM125.469 83.9219V75.2266H128.422V77.2891H136.719V75.2266H139.695V83.9219H125.469ZM128.422 81.5078H136.719V79.5859H128.422V81.5078ZM161.984 79.3281V81.7891H142.461V79.3281H150.688V76.1172H144.711V68.9453H156.781V66.6016H144.688V64.2109H159.734V71.2891H147.711V73.6797H160.227V76.1172H153.664V79.3281H161.984ZM180.594 72.6953V75.0859H165.5V64.6094H180.43V67.0234H168.453V72.6953H180.594ZM163.203 81.5547V79.0938H182.727V81.5547H163.203ZM200.773 62.8281V71.1719H203.914V73.6328H200.773V84.1562H197.82V62.8281H200.773ZM183.828 68.4062V66.0156H188.656V63.1562H191.656V66.0156H196.367V68.4062H183.828ZM184.695 74.6875C184.684 71.7109 187.004 69.5898 190.156 69.6016C193.262 69.5898 195.594 71.7109 195.594 74.6875C195.594 77.6641 193.262 79.7617 190.156 79.7734C187.004 79.7617 184.684 77.6641 184.695 74.6875ZM187.555 74.6875C187.555 76.3398 188.645 77.3242 190.156 77.3125C191.645 77.3242 192.734 76.3398 192.734 74.6875C192.734 73.0469 191.645 72.0391 190.156 72.0156C188.645 72.0391 187.555 73.0469 187.555 74.6875ZM222.266 64.6797V66.6953C222.254 69.3672 222.254 72.3672 221.398 76.8906L218.398 76.5859C219.219 72.5547 219.254 69.5547 219.266 67.0469H206.703V64.6797H222.266ZM204.688 81.5547V79.1172H211.648V71.7812H214.625V79.1172H224.141V81.5547H204.688ZM46.9062 100.641C46.8945 104.086 48.6758 107.777 52.25 109.266L50.6328 111.609C48.125 110.543 46.3906 108.422 45.4297 105.844C44.4688 108.645 42.6992 110.988 40.1797 112.148L38.4688 109.781C42.0078 108.199 43.8359 104.25 43.8359 100.641V99.3281H39.3125V96.8906H51.3594V99.3281H46.9062V100.641ZM53.4688 116.156V94.8281H56.4922V116.156H53.4688ZM76.5781 95.7891V97.5C76.5898 99.1641 76.5898 101.004 76.0742 103.453H78.8984V105.867H59.375V103.453H73.0625C73.5195 101.332 73.5781 99.6797 73.6016 98.1797H61.7656V95.7891H76.5781ZM61.6953 115.922V108.117H76.5078V115.922H61.6953ZM64.625 113.531H73.5312V110.461H64.625V113.531ZM102.477 94.8281V102.797H105.617V105.305H102.477V116.156H99.4766V94.8281H102.477ZM86.3281 111.211V96.5156H89.3047V101.719H93.7344V96.5156H96.7109V111.211H86.3281ZM89.3047 108.797H93.7344V104.039H89.3047V108.797ZM125.914 111.328V113.789H106.391V111.328H114.617V108.117H108.641V100.945H120.711V98.6016H108.617V96.2109H123.664V103.289H111.641V105.68H124.156V108.117H117.594V111.328H125.914ZM240.664 104.391V106.617H221.141V104.391H240.664ZM223.367 109.734V107.672H238.32V112.711H226.367V113.93H238.953V115.969H223.391V110.812H235.367V109.734H223.367ZM223.531 97.2422V95.2031H238.297V100.219H226.555V101.367H238.672V103.383H223.578V98.3203H235.297V97.2422H223.531ZM264.5 94.8516V100.945H267.219V103.406H264.5V109.336H261.5V94.8516H264.5ZM247.203 106.594C248.762 106.594 250.531 106.594 252.383 106.547V105.352C250.062 105.023 248.621 103.887 248.633 102.258C248.621 100.277 250.695 99.0586 253.859 99.0703C257 99.0586 259.074 100.277 259.086 102.258C259.074 103.887 257.645 105.012 255.359 105.34V106.441C257.117 106.348 258.875 106.219 260.516 106.008L260.727 108.07C256.215 108.867 251.27 108.914 247.508 108.914L247.203 106.594ZM247.766 98.5781V96.3984H252.383V94.6641H255.359V96.3984H259.977V98.5781H247.766ZM249.922 112.5V110.203H264.5V116.156H261.5V112.5H249.922ZM251.492 102.258C251.48 103.031 252.336 103.488 253.859 103.477C255.359 103.488 256.215 103.031 256.227 102.258C256.215 101.426 255.359 101.062 253.859 101.062C252.336 101.062 251.48 101.426 251.492 102.258ZM286.039 94.8516V110.18H283.039V94.8516H286.039ZM268.508 101.578C268.508 98.4492 271.062 96.1992 274.344 96.2109C277.613 96.1992 280.168 98.4492 280.18 101.578C280.168 104.754 277.613 106.992 274.344 106.992C271.062 106.992 268.508 104.754 268.508 101.578ZM271.438 101.578C271.414 103.359 272.668 104.391 274.344 104.391C275.961 104.391 277.215 103.359 277.227 101.578C277.215 99.8438 275.961 98.8008 274.344 98.8125C272.668 98.8008 271.414 99.8438 271.438 101.578ZM271.742 115.781V108.633H274.766V113.391H286.602V115.781H271.742ZM305.75 94.8281V103.172H308.891V105.633H305.75V116.156H302.797V94.8281H305.75ZM288.805 100.406V98.0156H293.633V95.1562H296.633V98.0156H301.344V100.406H288.805ZM289.672 106.688C289.66 103.711 291.98 101.59 295.133 101.602C298.238 101.59 300.57 103.711 300.57 106.688C300.57 109.664 298.238 111.762 295.133 111.773C291.98 111.762 289.66 109.664 289.672 106.688ZM292.531 106.688C292.531 108.34 293.621 109.324 295.133 109.312C296.621 109.324 297.711 108.34 297.711 106.688C297.711 105.047 296.621 104.039 295.133 104.016C293.621 104.039 292.531 105.047 292.531 106.688ZM316.508 100.195C316.496 103.652 317.457 107.215 320.375 109.078L318.758 111.398C316.906 110.285 315.746 108.434 315.066 106.254C314.305 108.668 313.027 110.695 311.094 111.867L309.266 109.664C312.43 107.707 313.602 103.945 313.602 100.336V96.6562H316.508V100.195ZM318.125 104.461V102.023H320.891V95.1328H323.68V115.172H320.891V104.461H318.125ZM325.297 116.156V94.8281H328.156V116.156H325.297ZM349.93 111.211V113.672H330.406V111.211H334.766V105.984C333.113 104.988 332.117 103.477 332.117 101.602C332.117 98.1445 335.492 95.8711 340.133 95.8594C344.75 95.8711 348.16 98.1445 348.172 101.602C348.16 103.441 347.199 104.93 345.594 105.926V111.211H349.93ZM335.07 101.602C335.07 103.688 337.074 104.977 340.133 104.977C343.145 104.977 345.207 103.688 345.219 101.602C345.207 99.457 343.145 98.2148 340.133 98.2266C337.074 98.2148 335.07 99.457 335.07 101.602ZM337.719 111.211H342.57V107.062C341.809 107.215 340.988 107.297 340.133 107.297C339.277 107.297 338.469 107.215 337.719 107.074V111.211ZM356 97.0312L355.695 108.914H352.695L352.391 97.0312H356ZM352.25 112.242C352.227 111.164 353.117 110.285 354.219 110.297C355.262 110.285 356.164 111.164 356.164 112.242C356.164 113.332 355.262 114.211 354.219 114.211C353.117 114.211 352.227 113.332 352.25 112.242Z" fill="black"/>
<path d="M143.539 96.2109V105.562H133.297V96.2109H143.539ZM134.562 113.789C138.395 113.32 140.48 111.797 140.961 110.156H135.477V107.789H149.844V110.156H144.383C144.875 111.75 146.996 113.332 150.781 113.836L149.727 116.109C146.305 115.652 143.891 114.293 142.66 112.465C141.441 114.293 139.051 115.629 135.641 116.062L134.562 113.789ZM136.25 103.195H140.586V98.5781H136.25V103.195ZM146.586 106.781V94.8281H149.586V99.4688H152.469V101.906H149.586V106.781H146.586ZM172.859 105.07V107.438H164.586V109.078H170.539V115.922H155.656V109.078H161.633V107.438H153.406V105.07H172.859ZM154.227 102.07C158.855 101.801 160.988 100.465 161.375 99H155.281V96.6562H161.633V94.8281H164.586V96.6562H170.984V99H164.832C165.219 100.465 167.398 101.801 171.992 102.07L171.125 104.273C167.176 104.004 164.445 102.926 163.109 101.25C161.762 102.926 159.031 104.004 155.094 104.273L154.227 102.07ZM158.609 113.531H167.609V111.445H158.609V113.531ZM189.289 108.117C193.953 108.117 196.883 109.594 196.906 112.148C196.883 114.668 193.953 116.168 189.289 116.156C184.66 116.168 181.684 114.668 181.695 112.148C181.684 109.594 184.66 108.117 189.289 108.117ZM179.727 106.758V104.344H186.992V100.617H189.945V104.344H199.086V106.758H179.727ZM181.906 98.1328V95.7891H196.789V97.5234C196.801 99.2227 196.801 101.051 196.18 103.242L193.25 102.961C193.73 101.027 193.789 99.5859 193.812 98.1328H181.906ZM184.672 112.148C184.66 113.297 186.348 113.883 189.289 113.883C192.23 113.883 193.93 113.297 193.93 112.148C193.93 110.965 192.23 110.332 189.289 110.344C186.348 110.332 184.66 110.965 184.672 112.148ZM218 96.6797V98.6953C217.988 101.367 217.988 104.367 217.133 108.891L214.133 108.586C214.953 104.555 214.988 101.555 215 99.0469H202.438V96.6797H218ZM200.422 113.555V111.117H207.383V103.781H210.359V111.117H219.875V113.555H200.422Z" fill="#7951FF"/>
<path opacity="0.8" d="M50.5938 47.3906H48.9219V40.25H47.3594V46.6719H45.7344V33.5312H47.3594V38.8281H48.9219V33.2656H50.5938V47.3906ZM40.8281 42.3438C42.2552 42.3177 43.599 42.1771 44.8594 41.9219L45.0312 43.4375C44.1354 43.599 43.2812 43.7135 42.4688 43.7812C41.6562 43.8438 40.8385 43.875 40.0156 43.875H39.0781V34.8906H40.8281V42.3438ZM61.1562 37.2812C61.1562 38.0208 61.2969 38.7656 61.5781 39.5156C61.8646 40.2656 62.2734 40.9479 62.8047 41.5625C63.3411 42.1771 63.9688 42.651 64.6875 42.9844L63.7188 44.3594C62.9427 43.9948 62.263 43.4609 61.6797 42.7578C61.0964 42.0495 60.6406 41.2396 60.3125 40.3281C59.9844 41.3229 59.5182 42.2057 58.9141 42.9766C58.3099 43.7474 57.6094 44.3229 56.8125 44.7031L55.7969 43.3438C56.5208 43 57.1562 42.5026 57.7031 41.8516C58.2552 41.2005 58.6771 40.474 58.9688 39.6719C59.2656 38.8698 59.4167 38.0729 59.4219 37.2812V36.0938H56.3438V34.6562H64.1094V36.0938H61.1562V37.2812ZM67.1562 38.7656H69.3281V40.2188H67.1562V47.3906H65.4219V33.2656H67.1562V38.7656ZM82.8281 45.6406H69.9219V44.2344H75.4531V40.9688H77.1719V44.2344H82.8281V45.6406ZM77.2188 35.1562C77.2188 35.8646 77.4375 36.5521 77.875 37.2188C78.3177 37.8854 78.9271 38.4583 79.7031 38.9375C80.4844 39.4115 81.3594 39.724 82.3281 39.875L81.5781 41.3125C80.3854 41.0885 79.3229 40.6536 78.3906 40.0078C77.4635 39.3568 76.7656 38.5703 76.2969 37.6484C75.9844 38.2578 75.5677 38.8151 75.0469 39.3203C74.526 39.8203 73.9245 40.2422 73.2422 40.5859C72.5599 40.9245 71.8281 41.1667 71.0469 41.3125L70.2969 39.875C71.2552 39.724 72.1198 39.4115 72.8906 38.9375C73.6667 38.4583 74.2734 37.8854 74.7109 37.2188C75.1484 36.5469 75.3698 35.8594 75.375 35.1562V34.125H77.2188V35.1562ZM88.9688 36.6562C88.9688 37.5417 89.1042 38.3984 89.375 39.2266C89.651 40.0495 90.0521 40.7786 90.5781 41.4141C91.1094 42.0495 91.7396 42.526 92.4688 42.8438L91.4219 44.2344C90.6406 43.8542 89.9661 43.3073 89.3984 42.5938C88.8359 41.8802 88.401 41.0521 88.0938 40.1094C87.776 41.1094 87.3281 41.9896 86.75 42.75C86.1771 43.5104 85.4948 44.0938 84.7031 44.5L83.6094 43.0938C84.3542 42.7448 84.9948 42.2344 85.5312 41.5625C86.0729 40.8906 86.4844 40.1276 86.7656 39.2734C87.0521 38.4193 87.1979 37.5469 87.2031 36.6562V34.4062H88.9688V36.6562ZM95.5938 47.4062H93.875V39.2344H90.9062V37.8281H93.875V33.2656H95.5938V47.4062ZM99.0312 47.7031H97.2812L100.938 34.1562H102.672L99.0312 47.7031ZM115.062 47.4062H113.312V33.2656H115.062V47.4062ZM107.453 34.2969C108.161 34.2969 108.792 34.5026 109.344 34.9141C109.901 35.3203 110.339 35.901 110.656 36.6562C110.974 37.4062 111.135 38.2812 111.141 39.2812C111.135 40.2865 110.974 41.1667 110.656 41.9219C110.344 42.6771 109.909 43.2604 109.352 43.6719C108.794 44.0781 108.161 44.2812 107.453 44.2812C106.74 44.2812 106.104 44.0781 105.547 43.6719C104.99 43.2604 104.552 42.6771 104.234 41.9219C103.922 41.1667 103.766 40.2865 103.766 39.2812C103.766 38.2812 103.922 37.4062 104.234 36.6562C104.552 35.901 104.99 35.3203 105.547 34.9141C106.104 34.5026 106.74 34.2969 107.453 34.2969ZM107.453 35.8594C107.052 35.8594 106.698 35.9948 106.391 36.2656C106.089 36.5365 105.854 36.9297 105.688 37.4453C105.521 37.9609 105.438 38.5729 105.438 39.2812C105.438 39.9948 105.521 40.6094 105.688 41.125C105.854 41.6406 106.089 42.0365 106.391 42.3125C106.698 42.5833 107.052 42.7188 107.453 42.7188C107.849 42.7188 108.198 42.5833 108.5 42.3125C108.802 42.0365 109.036 41.6406 109.203 41.125C109.37 40.6094 109.453 39.9948 109.453 39.2812C109.453 38.5729 109.37 37.9635 109.203 37.4531C109.036 36.9375 108.802 36.5443 108.5 36.2734C108.198 35.9974 107.849 35.8594 107.453 35.8594ZM123.891 38.3594H119.438V40.0938H119.75C120.812 40.0938 121.695 40.0703 122.398 40.0234C123.102 39.9714 123.802 39.8802 124.5 39.75L124.672 41.1562C123.87 41.2917 123.049 41.3802 122.211 41.4219C121.378 41.4635 120.224 41.4844 118.75 41.4844H117.719V37.0625H122.156V35.4844H117.688V34.1094H123.891V38.3594ZM128.969 41.9688H127.234V39.6406H124.734V38.25H127.234V36.6719H124.734V35.2812H127.234V33.2812H128.969V41.9688ZM128.969 47.3906H127.234V44.0312H119.312V42.6406H128.969V47.3906ZM136.188 36.6562C136.188 37.5417 136.323 38.3984 136.594 39.2266C136.87 40.0495 137.271 40.7786 137.797 41.4141C138.328 42.0495 138.958 42.526 139.688 42.8438L138.641 44.2344C137.859 43.8542 137.185 43.3073 136.617 42.5938C136.055 41.8802 135.62 41.0521 135.312 40.1094C134.995 41.1094 134.547 41.9896 133.969 42.75C133.396 43.5104 132.714 44.0938 131.922 44.5L130.828 43.0938C131.573 42.7448 132.214 42.2344 132.75 41.5625C133.292 40.8906 133.703 40.1276 133.984 39.2734C134.271 38.4193 134.417 37.5469 134.422 36.6562V34.4062H136.188V36.6562ZM142.812 47.4062H141.094V39.2344H138.125V37.8281H141.094V33.2656H142.812V47.4062ZM157.703 45.75H144.797V44.3125H150.359V42.0156H146.328V37.3906H154.453V35.6406H146.297V34.2344H156.172V38.7656H148.062V40.5938H156.5V42.0156H152.078V44.3125H157.703V45.75ZM167.5 36.1562C167.5 36.6719 167.628 37.1667 167.883 37.6406C168.138 38.1146 168.518 38.5365 169.023 38.9062C169.529 39.276 170.141 39.5573 170.859 39.75L170.078 41.0781C169.276 40.8698 168.583 40.5443 168 40.1016C167.422 39.6536 166.971 39.1224 166.648 38.5078C166.331 39.1797 165.875 39.7604 165.281 40.25C164.693 40.7396 163.99 41.1042 163.172 41.3438L162.344 39.9688C163.068 39.776 163.688 39.487 164.203 39.1016C164.719 38.7161 165.107 38.2682 165.367 37.7578C165.633 37.2474 165.766 36.7135 165.766 36.1562V36.1094H162.812V34.7344H165.766V33.2031H167.516V34.7344H170.453V36.1094H167.5V36.1562ZM173.562 36.5469H175.531V37.9844H173.562V41.3594H171.828V33.2656H173.562V36.5469ZM173.766 43.4062H170.031C170.141 43.8021 170.385 44.1771 170.766 44.5312C171.151 44.8854 171.651 45.1953 172.266 45.4609C172.88 45.7214 173.578 45.9062 174.359 46.0156L173.734 47.3438C172.641 47.1875 171.688 46.888 170.875 46.4453C170.062 46.0026 169.448 45.4557 169.031 44.8047C168.62 45.4453 168.01 45.9844 167.203 46.4219C166.401 46.8594 165.458 47.1562 164.375 47.3125L163.734 46C164.526 45.8906 165.227 45.7083 165.836 45.4531C166.451 45.1979 166.945 44.8958 167.32 44.5469C167.701 44.1927 167.945 43.8125 168.055 43.4062H164.312V42.0156H173.766V43.4062ZM187.688 38.6406H177.906V33.7812H179.625V37.2656H187.688V38.6406ZM189.141 41.6562H176.234V40.2812H189.141V41.6562ZM187.781 47.0625H177.781V42.9062H179.516V45.6562H187.781V47.0625ZM199.438 43.1172C200.792 43.0391 202 42.9219 203.062 42.7656L203.203 44.0469C201.802 44.3021 200.37 44.4688 198.906 44.5469C197.448 44.6198 195.865 44.6562 194.156 44.6562L193.938 43.25C195.578 43.2396 196.833 43.2214 197.703 43.1953V40.8281H199.438V43.1172ZM202.484 36.4062H199.461C199.492 36.9167 199.643 37.3984 199.914 37.8516C200.185 38.2995 200.573 38.6953 201.078 39.0391C201.583 39.3776 202.182 39.6354 202.875 39.8125L202.078 41.1719C201.255 40.9479 200.547 40.6042 199.953 40.1406C199.359 39.6771 198.898 39.125 198.57 38.4844C198.258 39.1615 197.805 39.7422 197.211 40.2266C196.622 40.7057 195.917 41.0573 195.094 41.2812L194.266 39.9688C194.964 39.776 195.56 39.5026 196.055 39.1484C196.555 38.7943 196.94 38.3828 197.211 37.9141C197.482 37.4453 197.633 36.9427 197.664 36.4062H194.688V35H197.703V33.3906H199.438V35H202.484V36.4062ZM205.641 47.4062H203.906V33.2656H205.641V47.4062ZM212.891 35.6875C212.891 36.2708 213.018 36.8385 213.273 37.3906C213.529 37.9375 213.906 38.4297 214.406 38.8672C214.906 39.2995 215.51 39.6354 216.219 39.875L215.344 41.2188C214.573 40.9688 213.906 40.5911 213.344 40.0859C212.786 39.5807 212.349 38.9896 212.031 38.3125C211.714 39.0677 211.26 39.7266 210.672 40.2891C210.083 40.8464 209.38 41.2604 208.562 41.5312L207.672 40.1562C208.401 39.9167 209.023 39.5677 209.539 39.1094C210.06 38.6458 210.453 38.1198 210.719 37.5312C210.99 36.9375 211.125 36.3281 211.125 35.7031V35.5156H208.188V34.125H215.812V35.5156H212.891V35.6875ZM219.531 47.3906H217.797V43.75H209.906V42.3594H219.531V47.3906ZM219.531 41.6875H217.797V38.1875H215.391V36.7656H217.797V33.2656H219.531V41.6875ZM231.688 42.0938C232.708 42.099 233.594 42.2083 234.344 42.4219C235.094 42.6302 235.672 42.9323 236.078 43.3281C236.49 43.724 236.698 44.1979 236.703 44.75C236.698 45.2917 236.49 45.7578 236.078 46.1484C235.672 46.5443 235.091 46.8464 234.336 47.0547C233.586 47.2682 232.703 47.375 231.688 47.375C230.677 47.375 229.794 47.2682 229.039 47.0547C228.289 46.8464 227.708 46.5443 227.297 46.1484C226.891 45.7578 226.688 45.2917 226.688 44.75C226.688 44.1979 226.891 43.724 227.297 43.3281C227.708 42.9323 228.289 42.6302 229.039 42.4219C229.789 42.2083 230.672 42.099 231.688 42.0938ZM231.688 43.4062C230.667 43.4062 229.867 43.5234 229.289 43.7578C228.716 43.9922 228.432 44.3229 228.438 44.75C228.432 45.1615 228.716 45.4792 229.289 45.7031C229.862 45.9219 230.661 46.0312 231.688 46.0312C232.719 46.0312 233.523 45.9219 234.102 45.7031C234.685 45.4792 234.979 45.1615 234.984 44.75C234.979 44.3229 234.685 43.9922 234.102 43.7578C233.523 43.5234 232.719 43.4062 231.688 43.4062ZM236.609 35.1094C236.609 35.8594 236.586 36.5104 236.539 37.0625C236.497 37.6146 236.391 38.2135 236.219 38.8594L234.5 38.7031C234.656 38.0833 234.758 37.5234 234.805 37.0234C234.852 36.5182 234.875 35.9479 234.875 35.3125H226.828V33.9375H236.609V35.1094ZM238.172 41.0781H225.359V39.6719H230.328V37.1094H232.047V39.6719H238.172V41.0781ZM250.688 35.9219V36.0938C250.682 36.875 250.667 37.5547 250.641 38.1328C250.62 38.7057 250.57 39.3724 250.492 40.1328C250.414 40.888 250.292 41.7083 250.125 42.5938L248.375 42.4062C248.542 41.5833 248.664 40.8073 248.742 40.0781C248.82 39.3438 248.87 38.6927 248.891 38.125C248.917 37.5573 248.932 36.8906 248.938 36.125V35.9531H240.5V34.5625H250.688V35.9219ZM252.031 45.5625H239.156V44.1406H243.906V39.2344H245.625V44.1406H252.031V45.5625Z" fill="#474748"/>
</g>
<defs>
<filter id="filter0_n_4149_26109" x="425.395" y="8.67285" width="135.906" height="132.272" filterUnits="userSpaceOnUse" color-interpolation-filters="sRGB">
<feFlood flood-opacity="0" result="BackgroundImageFix"/>
<feBlend mode="normal" in="SourceGraphic" in2="BackgroundImageFix" result="shape"/>
<feTurbulence type="fractalNoise" baseFrequency="2.3887250423431396 2.3887250423431396" stitchTiles="stitch" numOctaves="3" result="noise" seed="36" />
<feColorMatrix in="noise" type="luminanceToAlpha" result="alphaNoise" />
<feComponentTransfer in="alphaNoise" result="coloredNoise1">
<feFuncA type="discrete" tableValues="1 1 1 1 1 1 1 1 1 1 1 1 1 1 1 1 1 1 1 1 1 1 1 1 1 1 1 1 1 1 1 1 1 1 1 1 1 1 1 1 1 1 1 1 1 1 1 1 1 1 1 0 0 0 0 0 0 0 0 0 0 0 0 0 0 0 0 0 0 0 0 0 0 0 0 0 0 0 0 0 0 0 0 0 0 0 0 0 0 0 0 0 0 0 0 0 0 0 0 0 "/>
</feComponentTransfer>
<feComposite operator="in" in2="shape" in="coloredNoise1" result="noise1Clipped" />
<feFlood flood-color="#C1AFFF" result="color1Flood" />
<feComposite operator="in" in2="noise1Clipped" in="color1Flood" result="color1" />
<feMerge result="effect1_noise_4149_26109">
<feMergeNode in="shape" />
<feMergeNode in="color1" />
</feMerge>
</filter>
<filter id="filter1_n_4149_26109" x="491.258" y="99.1514" width="49.5859" height="41.5293" filterUnits="userSpaceOnUse" color-interpolation-filters="sRGB">
<feFlood flood-opacity="0" result="BackgroundImageFix"/>
<feBlend mode="normal" in="SourceGraphic" in2="BackgroundImageFix" result="shape"/>
<feTurbulence type="fractalNoise" baseFrequency="2.3887250423431396 2.3887250423431396" stitchTiles="stitch" numOctaves="3" result="noise" seed="2798" />
<feColorMatrix in="noise" type="luminanceToAlpha" result="alphaNoise" />
<feComponentTransfer in="alphaNoise" result="coloredNoise1">
<feFuncA type="discrete" tableValues="1 1 1 1 1 1 1 1 1 1 1 1 1 1 1 1 1 1 1 1 1 1 1 1 1 1 1 1 1 1 1 1 1 1 1 1 1 1 1 1 1 1 1 1 1 1 1 1 1 1 1 0 0 0 0 0 0 0 0 0 0 0 0 0 0 0 0 0 0 0 0 0 0 0 0 0 0 0 0 0 0 0 0 0 0 0 0 0 0 0 0 0 0 0 0 0 0 0 0 0 "/>
</feComponentTransfer>
<feComposite operator="in" in2="shape" in="coloredNoise1" result="noise1Clipped" />
<feFlood flood-color="rgba(169, 67, 237, 0.25)" result="color1Flood" />
<feComposite operator="in" in2="noise1Clipped" in="color1Flood" result="color1" />
<feMerge result="effect1_noise_4149_26109">
<feMergeNode in="shape" />
<feMergeNode in="color1" />
</feMerge>
</filter>
<linearGradient id="paint0_linear_4149_26109" x1="-143.6" y1="76" x2="813.251" y2="76" gradientUnits="userSpaceOnUse">
<stop offset="0.0845162" stop-color="#F7F1FB"/>
<stop offset="0.517107" stop-color="#EBDCF5"/>
<stop offset="0.968809" stop-color="#EBDCF5"/>
</linearGradient>
<linearGradient id="paint1_linear_4149_26109" x1="351.974" y1="-21.6299" x2="652.648" y2="196.601" gradientUnits="userSpaceOnUse">
<stop stop-color="white"/>
<stop offset="1" stop-color="white"/>
</linearGradient>
<linearGradient id="paint2_linear_4149_26109" x1="393.355" y1="7.3806" x2="608.828" y2="163.772" gradientUnits="userSpaceOnUse">
<stop stop-color="white"/>
<stop offset="1" stop-color="white"/>
</linearGradient>
<linearGradient id="paint3_linear_4149_26109" x1="498.392" y1="-9.72949" x2="609.071" y2="227.929" gradientUnits="userSpaceOnUse">
<stop stop-color="white"/>
<stop offset="1" stop-color="white" stop-opacity="0.2"/>
</linearGradient>
<linearGradient id="paint4_linear_4149_26109" x1="439.94" y1="-87.5706" x2="509.483" y2="123.054" gradientUnits="userSpaceOnUse">
<stop stop-color="#EED5FF"/>
<stop offset="1" stop-color="#C671FF"/>
</linearGradient>
<linearGradient id="paint5_linear_4149_26109" x1="528.856" y1="133.22" x2="515.023" y2="112.326" gradientUnits="userSpaceOnUse">
<stop stop-color="#DEADFF"/>
<stop offset="0.594777" stop-color="#7951FF"/>
</linearGradient>
<clipPath id="clip0_4149_26109">
<rect width="762" height="152" rx="7.75572" fill="white"/>
</clipPath>
</defs>
</svg>
