<svg width="836" height="152" viewBox="0 0 836 152" fill="none" xmlns="http://www.w3.org/2000/svg">
<g clip-path="url(#clip0_4528_8398)">
<rect width="836" height="152" rx="7.75572" fill="url(#paint0_linear_4528_8398)"/>
<circle opacity="0.3" cx="556" cy="80.75" r="190.75" fill="url(#paint1_linear_4528_8398)" fill-opacity="0.5"/>
<circle opacity="0.4" cx="556.002" cy="80.7494" r="136.698" fill="url(#paint2_linear_4528_8398)" fill-opacity="0.5"/>
<circle opacity="0.8" cx="556.392" cy="80.3578" r="90.0873" fill="url(#paint3_linear_4528_8398)" fill-opacity="0.5"/>
<g opacity="0.5">
<g filter="url(#filter0_n_4528_8398)">
<path d="M483.756 127.171C502.023 103.141 516.659 40.7063 522.139 10.0412C522.32 9.03132 523.351 8.43991 524.325 8.76007C548.599 16.7335 573.107 20.7428 617.571 19.9911C618.652 19.9728 619.489 20.9581 619.26 22.0157C610.81 61.0696 600.173 112.387 582.922 127.435C552.642 153.847 495.955 134.164 484.427 129.757C483.373 129.354 483.073 128.069 483.756 127.171Z" fill="url(#paint4_linear_4528_8398)"/>
</g>
<g filter="url(#filter1_n_4528_8398)">
<path d="M575.57 121.323C571.075 135.215 554.663 137.638 549.254 140.681C580.843 136.416 589.808 123.381 598.84 99.1515C592.773 111.163 589.483 120.668 577.438 120.037C576.601 119.993 575.828 120.525 575.57 121.323Z" fill="url(#paint5_linear_4528_8398)"/>
</g>
<path d="M559.431 51.1405C568.316 52.1449 573.575 59.9952 571.193 68.6136C571.109 68.9181 571.014 69.2195 570.913 69.5177C579.153 71.0212 583.911 78.5508 581.622 86.833C579.233 95.4784 570.07 101.67 561.157 100.663L531.226 97.2791C522.314 96.2711 517.026 88.4455 519.415 79.8004C521.708 71.5064 530.234 65.4714 538.793 65.8846C538.858 65.583 538.932 65.2798 539.016 64.976C541.398 56.3579 550.546 50.1365 559.431 51.1405ZM555.048 68.7056C554.846 68.2946 554.265 68.2149 553.84 68.5399L542.669 77.0886C542.087 77.534 542.237 78.349 542.914 78.4258L549.044 79.1188L546.4 88.684L550.333 89.1286L552.977 79.5634L559.211 80.2681C559.87 80.3424 560.444 79.6451 560.174 79.0967L555.048 68.7056Z" fill="#FCF8FF" fill-opacity="0.8"/>
</g>
<rect x="597" y="82" width="173" height="37" rx="8" fill="white"/>
<path d="M622.047 106.656C621.25 106.656 620.536 106.521 619.906 106.25C619.276 105.979 618.781 105.602 618.422 105.117C618.062 104.628 617.875 104.068 617.859 103.438H619.906C619.927 103.734 620.031 103.997 620.219 104.227C620.411 104.451 620.667 104.625 620.984 104.75C621.302 104.875 621.656 104.938 622.047 104.938C622.458 104.938 622.826 104.867 623.148 104.727C623.477 104.581 623.732 104.38 623.914 104.125C624.096 103.87 624.188 103.578 624.188 103.25C624.188 102.911 624.094 102.609 623.906 102.344C623.719 102.078 623.448 101.872 623.094 101.727C622.74 101.576 622.323 101.5 621.844 101.5H620.828V99.9375H621.844C622.24 99.9375 622.591 99.8698 622.898 99.7344C623.211 99.5938 623.453 99.3984 623.625 99.1484C623.797 98.8932 623.88 98.6042 623.875 98.2812C623.88 97.9688 623.807 97.6927 623.656 97.4531C623.51 97.2083 623.299 97.0208 623.023 96.8906C622.747 96.7552 622.427 96.6875 622.062 96.6875C621.708 96.6875 621.378 96.7526 621.07 96.8828C620.768 97.0078 620.523 97.1875 620.336 97.4219C620.154 97.6562 620.057 97.9271 620.047 98.2344H618.094C618.109 97.6094 618.292 97.0547 618.641 96.5703C618.995 96.0859 619.471 95.7083 620.07 95.4375C620.674 95.1667 621.344 95.0312 622.078 95.0312C622.823 95.0312 623.482 95.1719 624.055 95.4531C624.628 95.7292 625.07 96.1068 625.383 96.5859C625.695 97.0651 625.849 97.5938 625.844 98.1719C625.849 98.5885 625.766 98.9661 625.594 99.3047C625.422 99.6432 625.18 99.9245 624.867 100.148C624.555 100.372 624.193 100.526 623.781 100.609V100.703C624.307 100.776 624.758 100.932 625.133 101.172C625.508 101.406 625.792 101.711 625.984 102.086C626.177 102.461 626.271 102.885 626.266 103.359C626.271 103.984 626.091 104.549 625.727 105.055C625.367 105.555 624.865 105.948 624.219 106.234C623.578 106.516 622.854 106.656 622.047 106.656ZM640.484 106.219H627.578V104.797H633.156V101.875H634.875V104.797H640.484V106.219ZM639.328 97.2188H634.914C634.956 97.8125 635.182 98.3724 635.594 98.8984C636.01 99.4245 636.589 99.875 637.328 100.25C638.068 100.62 638.932 100.87 639.922 101L639.281 102.359C638.062 102.188 636.997 101.844 636.086 101.328C635.174 100.807 634.484 100.159 634.016 99.3828C633.542 100.159 632.852 100.807 631.945 101.328C631.039 101.844 629.979 102.188 628.766 102.359L628.109 101C629.104 100.87 629.971 100.62 630.711 100.25C631.456 99.875 632.034 99.4245 632.445 98.8984C632.857 98.3724 633.086 97.8125 633.133 97.2188H628.719V95.8125H633.156V93.9844H634.875V95.8125H639.328V97.2188ZM650.266 97.7812C650.266 98.5208 650.406 99.2656 650.688 100.016C650.974 100.766 651.383 101.448 651.914 102.062C652.451 102.677 653.078 103.151 653.797 103.484L652.828 104.859C652.052 104.495 651.372 103.961 650.789 103.258C650.206 102.549 649.75 101.74 649.422 100.828C649.094 101.823 648.628 102.706 648.023 103.477C647.419 104.247 646.719 104.823 645.922 105.203L644.906 103.844C645.63 103.5 646.266 103.003 646.812 102.352C647.365 101.701 647.786 100.974 648.078 100.172C648.375 99.3698 648.526 98.5729 648.531 97.7812V96.5938H645.453V95.1562H653.219V96.5938H650.266V97.7812ZM656.266 99.2656H658.438V100.719H656.266V107.891H654.531V93.7656H656.266V99.2656ZM671.938 106.141H659.031V104.734H664.562V101.469H666.281V104.734H671.938V106.141ZM666.328 95.6562C666.328 96.3646 666.547 97.0521 666.984 97.7188C667.427 98.3854 668.036 98.9583 668.812 99.4375C669.594 99.9115 670.469 100.224 671.438 100.375L670.688 101.812C669.495 101.589 668.432 101.154 667.5 100.508C666.573 99.8568 665.875 99.0703 665.406 98.1484C665.094 98.7578 664.677 99.3151 664.156 99.8203C663.635 100.32 663.034 100.742 662.352 101.086C661.669 101.424 660.938 101.667 660.156 101.812L659.406 100.375C660.365 100.224 661.229 99.9115 662 99.4375C662.776 98.9583 663.383 98.3854 663.82 97.7188C664.258 97.0469 664.479 96.3594 664.484 95.6562V94.625H666.328V95.6562ZM678.078 97.1562C678.078 98.0417 678.214 98.8984 678.484 99.7266C678.76 100.549 679.161 101.279 679.688 101.914C680.219 102.549 680.849 103.026 681.578 103.344L680.531 104.734C679.75 104.354 679.076 103.807 678.508 103.094C677.945 102.38 677.51 101.552 677.203 100.609C676.885 101.609 676.438 102.49 675.859 103.25C675.286 104.01 674.604 104.594 673.812 105L672.719 103.594C673.464 103.245 674.104 102.734 674.641 102.062C675.182 101.391 675.594 100.628 675.875 99.7734C676.161 98.9193 676.307 98.0469 676.312 97.1562V94.9062H678.078V97.1562ZM684.703 107.906H682.984V99.7344H680.016V98.3281H682.984V93.7656H684.703V107.906ZM694.406 94.3906C695.01 94.3854 695.565 94.4922 696.07 94.7109C696.576 94.9245 696.997 95.2292 697.336 95.625C697.68 96.0156 697.909 96.4688 698.023 96.9844H700.578V93.7656H702.312V101.344H700.578V98.3906H698.039C697.924 98.9167 697.695 99.3802 697.352 99.7812C697.013 100.182 696.589 100.495 696.078 100.719C695.568 100.938 695.01 101.047 694.406 101.047C693.693 101.047 693.052 100.904 692.484 100.617C691.917 100.331 691.471 99.9349 691.148 99.4297C690.831 98.9193 690.672 98.3438 690.672 97.7031C690.672 97.0677 690.831 96.4974 691.148 95.9922C691.471 95.487 691.917 95.0938 692.484 94.8125C693.052 94.526 693.693 94.3854 694.406 94.3906ZM694.406 95.8438C694 95.8438 693.641 95.9193 693.328 96.0703C693.016 96.2214 692.771 96.4375 692.594 96.7188C692.417 97 692.328 97.3281 692.328 97.7031C692.328 98.0729 692.417 98.401 692.594 98.6875C692.771 98.9688 693.016 99.1875 693.328 99.3438C693.646 99.5 694.005 99.5781 694.406 99.5781C694.797 99.5781 695.146 99.5 695.453 99.3438C695.766 99.1875 696.008 98.9688 696.18 98.6875C696.357 98.401 696.448 98.0729 696.453 97.7031C696.448 97.3281 696.357 97 696.18 96.7188C696.008 96.4375 695.768 96.2214 695.461 96.0703C695.154 95.9193 694.802 95.8438 694.406 95.8438ZM694.719 103.5H700.578V102H702.312V107.719H693V102H694.719V103.5ZM700.578 106.312V104.844H694.719V106.312H700.578ZM717.219 106.25H704.312V104.812H709.875V102.516H705.844V97.8906H713.969V96.1406H705.812V94.7344H715.688V99.2656H707.578V101.094H716.016V102.516H711.594V104.812H717.219V106.25ZM729.609 101.781H719.703V95H729.5V96.4062H721.422V100.391H729.609V101.781ZM731.047 106.094H718.141V104.656H731.047V106.094ZM742.047 105.078L745.469 101.672H737.172V100.031H745.469L742.047 96.625L743.188 95.5L748.531 100.844L743.188 106.203L742.047 105.078Z" fill="#4B007C"/>
<rect opacity="0.1" x="129" y="94" width="93" height="26" fill="#7951FF"/>
<path d="M70.6172 82.2344C66.8906 82.2344 64.2188 80.1836 64.1484 77.2188H67.7109C67.7695 78.4844 69 79.3164 70.6406 79.3281C72.3281 79.3164 73.5352 78.3789 73.5234 77.0078C73.5352 75.625 72.3047 74.6523 70.3125 74.6406H68.7422V72.0391H70.3125C71.9883 72.0391 73.1602 71.125 73.1484 69.7891C73.1602 68.4883 72.1641 67.5977 70.6641 67.6094C69.1641 67.5977 67.9336 68.4414 67.875 69.7422H64.5C64.5586 66.8242 67.1836 64.7969 70.6641 64.7969C74.2031 64.7969 76.5586 66.8945 76.5469 69.5781C76.5586 71.4766 75.2344 72.8242 73.3359 73.1641V73.3047C75.832 73.6094 77.2031 75.1211 77.1797 77.2422C77.2031 80.1484 74.4492 82.2344 70.6172 82.2344ZM98.4844 79.2812V81.7188H78.9609V79.2812H87.2109V75.1094H90.1875V79.2812H98.4844ZM79.6172 73.5156C84.4805 72.9297 86.8945 70.5156 87.1641 68.1484H80.6484V65.7578H87.2109V63.0859H90.1875V65.7578H96.7734V68.1484H90.2578C90.5039 70.5156 92.9297 72.9297 97.7812 73.5156L96.7031 75.8359C92.8828 75.3438 90.1289 73.7617 88.6875 71.5586C87.2695 73.7617 84.5273 75.3438 80.7188 75.8359L79.6172 73.5156ZM110.578 64.5859V74.8281H100.336V64.5859H110.578ZM102.797 83.7812V76.8672H105.773V81.3906H117.398V83.7812H102.797ZM103.289 72.4844H107.625V66.9766H103.289V72.4844ZM113.625 78.3906V62.8281H116.625V68.9688H119.508V71.4297H116.625V78.3906H113.625ZM138.938 62.8281V84.1562H136.078V62.8281H138.938ZM120.633 72.0625C120.633 67.293 122.449 64.3398 125.273 64.3516C127.84 64.3398 129.598 66.7422 129.926 70.7266H131.672V63.1328H134.484V83.1719H131.672V73.0938H129.949C129.691 77.2773 127.898 79.8203 125.273 79.8203C122.449 79.8203 120.633 76.8555 120.633 72.0625ZM123.398 72.0625C123.375 75.3438 124.078 76.9609 125.273 76.9375C126.504 76.9609 127.23 75.3438 127.219 72.0625C127.23 68.793 126.504 67.1641 125.273 67.1641C124.078 67.1641 123.375 68.793 123.398 72.0625ZM152.672 63.7422C155.391 63.7188 157.559 65.2773 158.145 67.5625H161.719V62.8281H164.695V74.2891H161.719V69.9531H158.156C157.605 72.2969 155.414 73.8906 152.672 73.8906C149.391 73.8906 146.977 71.7578 147 68.7812C146.977 65.8633 149.391 63.7188 152.672 63.7422ZM149.836 68.7812C149.824 70.375 150.996 71.3828 152.672 71.3828C154.289 71.3828 155.449 70.375 155.461 68.7812C155.449 67.1875 154.289 66.2148 152.672 66.2266C150.996 66.2148 149.824 67.1875 149.836 68.7812ZM150.469 83.9219V75.2266H153.422V77.2891H161.719V75.2266H164.695V83.9219H150.469ZM153.422 81.5078H161.719V79.5859H153.422V81.5078ZM186.984 79.3281V81.7891H167.461V79.3281H175.688V76.1172H169.711V68.9453H181.781V66.6016H169.688V64.2109H184.734V71.2891H172.711V73.6797H185.227V76.1172H178.664V79.3281H186.984ZM205.594 72.6953V75.0859H190.5V64.6094H205.43V67.0234H193.453V72.6953H205.594ZM188.203 81.5547V79.0938H207.727V81.5547H188.203ZM225.773 62.8281V71.1719H228.914V73.6328H225.773V84.1562H222.82V62.8281H225.773ZM208.828 68.4062V66.0156H213.656V63.1562H216.656V66.0156H221.367V68.4062H208.828ZM209.695 74.6875C209.684 71.7109 212.004 69.5898 215.156 69.6016C218.262 69.5898 220.594 71.7109 220.594 74.6875C220.594 77.6641 218.262 79.7617 215.156 79.7734C212.004 79.7617 209.684 77.6641 209.695 74.6875ZM212.555 74.6875C212.555 76.3398 213.645 77.3242 215.156 77.3125C216.645 77.3242 217.734 76.3398 217.734 74.6875C217.734 73.0469 216.645 72.0391 215.156 72.0156C213.645 72.0391 212.555 73.0469 212.555 74.6875ZM247.266 64.6797V66.6953C247.254 69.3672 247.254 72.3672 246.398 76.8906L243.398 76.5859C244.219 72.5547 244.254 69.5547 244.266 67.0469H231.703V64.6797H247.266ZM229.688 81.5547V79.1172H236.648V71.7812H239.625V79.1172H249.141V81.5547H229.688ZM71.9062 100.641C71.8945 104.086 73.6758 107.777 77.25 109.266L75.6328 111.609C73.125 110.543 71.3906 108.422 70.4297 105.844C69.4688 108.645 67.6992 110.988 65.1797 112.148L63.4688 109.781C67.0078 108.199 68.8359 104.25 68.8359 100.641V99.3281H64.3125V96.8906H76.3594V99.3281H71.9062V100.641ZM78.4688 116.156V94.8281H81.4922V116.156H78.4688ZM101.578 95.7891V97.5C101.59 99.1641 101.59 101.004 101.074 103.453H103.898V105.867H84.375V103.453H98.0625C98.5195 101.332 98.5781 99.6797 98.6016 98.1797H86.7656V95.7891H101.578ZM86.6953 115.922V108.117H101.508V115.922H86.6953ZM89.625 113.531H98.5312V110.461H89.625V113.531ZM127.477 94.8281V102.797H130.617V105.305H127.477V116.156H124.477V94.8281H127.477ZM111.328 111.211V96.5156H114.305V101.719H118.734V96.5156H121.711V111.211H111.328ZM114.305 108.797H118.734V104.039H114.305V108.797ZM150.914 111.328V113.789H131.391V111.328H139.617V108.117H133.641V100.945H145.711V98.6016H133.617V96.2109H148.664V103.289H136.641V105.68H149.156V108.117H142.594V111.328H150.914ZM265.664 104.391V106.617H246.141V104.391H265.664ZM248.367 109.734V107.672H263.32V112.711H251.367V113.93H263.953V115.969H248.391V110.812H260.367V109.734H248.367ZM248.531 97.2422V95.2031H263.297V100.219H251.555V101.367H263.672V103.383H248.578V98.3203H260.297V97.2422H248.531ZM289.5 94.8516V100.945H292.219V103.406H289.5V109.336H286.5V94.8516H289.5ZM272.203 106.594C273.762 106.594 275.531 106.594 277.383 106.547V105.352C275.062 105.023 273.621 103.887 273.633 102.258C273.621 100.277 275.695 99.0586 278.859 99.0703C282 99.0586 284.074 100.277 284.086 102.258C284.074 103.887 282.645 105.012 280.359 105.34V106.441C282.117 106.348 283.875 106.219 285.516 106.008L285.727 108.07C281.215 108.867 276.27 108.914 272.508 108.914L272.203 106.594ZM272.766 98.5781V96.3984H277.383V94.6641H280.359V96.3984H284.977V98.5781H272.766ZM274.922 112.5V110.203H289.5V116.156H286.5V112.5H274.922ZM276.492 102.258C276.48 103.031 277.336 103.488 278.859 103.477C280.359 103.488 281.215 103.031 281.227 102.258C281.215 101.426 280.359 101.062 278.859 101.062C277.336 101.062 276.48 101.426 276.492 102.258ZM311.039 94.8516V110.18H308.039V94.8516H311.039ZM293.508 101.578C293.508 98.4492 296.062 96.1992 299.344 96.2109C302.613 96.1992 305.168 98.4492 305.18 101.578C305.168 104.754 302.613 106.992 299.344 106.992C296.062 106.992 293.508 104.754 293.508 101.578ZM296.438 101.578C296.414 103.359 297.668 104.391 299.344 104.391C300.961 104.391 302.215 103.359 302.227 101.578C302.215 99.8438 300.961 98.8008 299.344 98.8125C297.668 98.8008 296.414 99.8438 296.438 101.578ZM296.742 115.781V108.633H299.766V113.391H311.602V115.781H296.742ZM330.75 94.8281V103.172H333.891V105.633H330.75V116.156H327.797V94.8281H330.75ZM313.805 100.406V98.0156H318.633V95.1562H321.633V98.0156H326.344V100.406H313.805ZM314.672 106.688C314.66 103.711 316.98 101.59 320.133 101.602C323.238 101.59 325.57 103.711 325.57 106.688C325.57 109.664 323.238 111.762 320.133 111.773C316.98 111.762 314.66 109.664 314.672 106.688ZM317.531 106.688C317.531 108.34 318.621 109.324 320.133 109.312C321.621 109.324 322.711 108.34 322.711 106.688C322.711 105.047 321.621 104.039 320.133 104.016C318.621 104.039 317.531 105.047 317.531 106.688ZM341.508 100.195C341.496 103.652 342.457 107.215 345.375 109.078L343.758 111.398C341.906 110.285 340.746 108.434 340.066 106.254C339.305 108.668 338.027 110.695 336.094 111.867L334.266 109.664C337.43 107.707 338.602 103.945 338.602 100.336V96.6562H341.508V100.195ZM343.125 104.461V102.023H345.891V95.1328H348.68V115.172H345.891V104.461H343.125ZM350.297 116.156V94.8281H353.156V116.156H350.297ZM374.93 111.211V113.672H355.406V111.211H359.766V105.984C358.113 104.988 357.117 103.477 357.117 101.602C357.117 98.1445 360.492 95.8711 365.133 95.8594C369.75 95.8711 373.16 98.1445 373.172 101.602C373.16 103.441 372.199 104.93 370.594 105.926V111.211H374.93ZM360.07 101.602C360.07 103.688 362.074 104.977 365.133 104.977C368.145 104.977 370.207 103.688 370.219 101.602C370.207 99.457 368.145 98.2148 365.133 98.2266C362.074 98.2148 360.07 99.457 360.07 101.602ZM362.719 111.211H367.57V107.062C366.809 107.215 365.988 107.297 365.133 107.297C364.277 107.297 363.469 107.215 362.719 107.074V111.211ZM381 97.0312L380.695 108.914H377.695L377.391 97.0312H381ZM377.25 112.242C377.227 111.164 378.117 110.285 379.219 110.297C380.262 110.285 381.164 111.164 381.164 112.242C381.164 113.332 380.262 114.211 379.219 114.211C378.117 114.211 377.227 113.332 377.25 112.242Z" fill="black"/>
<path d="M168.539 96.2109V105.562H158.297V96.2109H168.539ZM159.562 113.789C163.395 113.32 165.48 111.797 165.961 110.156H160.477V107.789H174.844V110.156H169.383C169.875 111.75 171.996 113.332 175.781 113.836L174.727 116.109C171.305 115.652 168.891 114.293 167.66 112.465C166.441 114.293 164.051 115.629 160.641 116.062L159.562 113.789ZM161.25 103.195H165.586V98.5781H161.25V103.195ZM171.586 106.781V94.8281H174.586V99.4688H177.469V101.906H174.586V106.781H171.586ZM197.859 105.07V107.438H189.586V109.078H195.539V115.922H180.656V109.078H186.633V107.438H178.406V105.07H197.859ZM179.227 102.07C183.855 101.801 185.988 100.465 186.375 99H180.281V96.6562H186.633V94.8281H189.586V96.6562H195.984V99H189.832C190.219 100.465 192.398 101.801 196.992 102.07L196.125 104.273C192.176 104.004 189.445 102.926 188.109 101.25C186.762 102.926 184.031 104.004 180.094 104.273L179.227 102.07ZM183.609 113.531H192.609V111.445H183.609V113.531ZM214.289 108.117C218.953 108.117 221.883 109.594 221.906 112.148C221.883 114.668 218.953 116.168 214.289 116.156C209.66 116.168 206.684 114.668 206.695 112.148C206.684 109.594 209.66 108.117 214.289 108.117ZM204.727 106.758V104.344H211.992V100.617H214.945V104.344H224.086V106.758H204.727ZM206.906 98.1328V95.7891H221.789V97.5234C221.801 99.2227 221.801 101.051 221.18 103.242L218.25 102.961C218.73 101.027 218.789 99.5859 218.812 98.1328H206.906ZM209.672 112.148C209.66 113.297 211.348 113.883 214.289 113.883C217.23 113.883 218.93 113.297 218.93 112.148C218.93 110.965 217.23 110.332 214.289 110.344C211.348 110.332 209.66 110.965 209.672 112.148ZM243 96.6797V98.6953C242.988 101.367 242.988 104.367 242.133 108.891L239.133 108.586C239.953 104.555 239.988 101.555 240 99.0469H227.438V96.6797H243ZM225.422 113.555V111.117H232.383V103.781H235.359V111.117H244.875V113.555H225.422Z" fill="#7951FF"/>
<path opacity="0.8" d="M75.5938 47.3906H73.9219V40.25H72.3594V46.6719H70.7344V33.5312H72.3594V38.8281H73.9219V33.2656H75.5938V47.3906ZM65.8281 42.3438C67.2552 42.3177 68.599 42.1771 69.8594 41.9219L70.0312 43.4375C69.1354 43.599 68.2812 43.7135 67.4688 43.7812C66.6562 43.8438 65.8385 43.875 65.0156 43.875H64.0781V34.8906H65.8281V42.3438ZM86.1562 37.2812C86.1562 38.0208 86.2969 38.7656 86.5781 39.5156C86.8646 40.2656 87.2734 40.9479 87.8047 41.5625C88.3411 42.1771 88.9688 42.651 89.6875 42.9844L88.7188 44.3594C87.9427 43.9948 87.263 43.4609 86.6797 42.7578C86.0964 42.0495 85.6406 41.2396 85.3125 40.3281C84.9844 41.3229 84.5182 42.2057 83.9141 42.9766C83.3099 43.7474 82.6094 44.3229 81.8125 44.7031L80.7969 43.3438C81.5208 43 82.1562 42.5026 82.7031 41.8516C83.2552 41.2005 83.6771 40.474 83.9688 39.6719C84.2656 38.8698 84.4167 38.0729 84.4219 37.2812V36.0938H81.3438V34.6562H89.1094V36.0938H86.1562V37.2812ZM92.1562 38.7656H94.3281V40.2188H92.1562V47.3906H90.4219V33.2656H92.1562V38.7656ZM107.828 45.6406H94.9219V44.2344H100.453V40.9688H102.172V44.2344H107.828V45.6406ZM102.219 35.1562C102.219 35.8646 102.438 36.5521 102.875 37.2188C103.318 37.8854 103.927 38.4583 104.703 38.9375C105.484 39.4115 106.359 39.724 107.328 39.875L106.578 41.3125C105.385 41.0885 104.323 40.6536 103.391 40.0078C102.464 39.3568 101.766 38.5703 101.297 37.6484C100.984 38.2578 100.568 38.8151 100.047 39.3203C99.526 39.8203 98.9245 40.2422 98.2422 40.5859C97.5599 40.9245 96.8281 41.1667 96.0469 41.3125L95.2969 39.875C96.2552 39.724 97.1198 39.4115 97.8906 38.9375C98.6667 38.4583 99.2734 37.8854 99.7109 37.2188C100.148 36.5469 100.37 35.8594 100.375 35.1562V34.125H102.219V35.1562ZM113.969 36.6562C113.969 37.5417 114.104 38.3984 114.375 39.2266C114.651 40.0495 115.052 40.7786 115.578 41.4141C116.109 42.0495 116.74 42.526 117.469 42.8438L116.422 44.2344C115.641 43.8542 114.966 43.3073 114.398 42.5938C113.836 41.8802 113.401 41.0521 113.094 40.1094C112.776 41.1094 112.328 41.9896 111.75 42.75C111.177 43.5104 110.495 44.0938 109.703 44.5L108.609 43.0938C109.354 42.7448 109.995 42.2344 110.531 41.5625C111.073 40.8906 111.484 40.1276 111.766 39.2734C112.052 38.4193 112.198 37.5469 112.203 36.6562V34.4062H113.969V36.6562ZM120.594 47.4062H118.875V39.2344H115.906V37.8281H118.875V33.2656H120.594V47.4062ZM124.031 47.7031H122.281L125.938 34.1562H127.672L124.031 47.7031ZM140.062 47.4062H138.312V33.2656H140.062V47.4062ZM132.453 34.2969C133.161 34.2969 133.792 34.5026 134.344 34.9141C134.901 35.3203 135.339 35.901 135.656 36.6562C135.974 37.4062 136.135 38.2812 136.141 39.2812C136.135 40.2865 135.974 41.1667 135.656 41.9219C135.344 42.6771 134.909 43.2604 134.352 43.6719C133.794 44.0781 133.161 44.2812 132.453 44.2812C131.74 44.2812 131.104 44.0781 130.547 43.6719C129.99 43.2604 129.552 42.6771 129.234 41.9219C128.922 41.1667 128.766 40.2865 128.766 39.2812C128.766 38.2812 128.922 37.4062 129.234 36.6562C129.552 35.901 129.99 35.3203 130.547 34.9141C131.104 34.5026 131.74 34.2969 132.453 34.2969ZM132.453 35.8594C132.052 35.8594 131.698 35.9948 131.391 36.2656C131.089 36.5365 130.854 36.9297 130.688 37.4453C130.521 37.9609 130.438 38.5729 130.438 39.2812C130.438 39.9948 130.521 40.6094 130.688 41.125C130.854 41.6406 131.089 42.0365 131.391 42.3125C131.698 42.5833 132.052 42.7188 132.453 42.7188C132.849 42.7188 133.198 42.5833 133.5 42.3125C133.802 42.0365 134.036 41.6406 134.203 41.125C134.37 40.6094 134.453 39.9948 134.453 39.2812C134.453 38.5729 134.37 37.9635 134.203 37.4531C134.036 36.9375 133.802 36.5443 133.5 36.2734C133.198 35.9974 132.849 35.8594 132.453 35.8594ZM148.891 38.3594H144.438V40.0938H144.75C145.812 40.0938 146.695 40.0703 147.398 40.0234C148.102 39.9714 148.802 39.8802 149.5 39.75L149.672 41.1562C148.87 41.2917 148.049 41.3802 147.211 41.4219C146.378 41.4635 145.224 41.4844 143.75 41.4844H142.719V37.0625H147.156V35.4844H142.688V34.1094H148.891V38.3594ZM153.969 41.9688H152.234V39.6406H149.734V38.25H152.234V36.6719H149.734V35.2812H152.234V33.2812H153.969V41.9688ZM153.969 47.3906H152.234V44.0312H144.312V42.6406H153.969V47.3906ZM161.188 36.6562C161.188 37.5417 161.323 38.3984 161.594 39.2266C161.87 40.0495 162.271 40.7786 162.797 41.4141C163.328 42.0495 163.958 42.526 164.688 42.8438L163.641 44.2344C162.859 43.8542 162.185 43.3073 161.617 42.5938C161.055 41.8802 160.62 41.0521 160.312 40.1094C159.995 41.1094 159.547 41.9896 158.969 42.75C158.396 43.5104 157.714 44.0938 156.922 44.5L155.828 43.0938C156.573 42.7448 157.214 42.2344 157.75 41.5625C158.292 40.8906 158.703 40.1276 158.984 39.2734C159.271 38.4193 159.417 37.5469 159.422 36.6562V34.4062H161.188V36.6562ZM167.812 47.4062H166.094V39.2344H163.125V37.8281H166.094V33.2656H167.812V47.4062ZM182.703 45.75H169.797V44.3125H175.359V42.0156H171.328V37.3906H179.453V35.6406H171.297V34.2344H181.172V38.7656H173.062V40.5938H181.5V42.0156H177.078V44.3125H182.703V45.75ZM192.5 36.1562C192.5 36.6719 192.628 37.1667 192.883 37.6406C193.138 38.1146 193.518 38.5365 194.023 38.9062C194.529 39.276 195.141 39.5573 195.859 39.75L195.078 41.0781C194.276 40.8698 193.583 40.5443 193 40.1016C192.422 39.6536 191.971 39.1224 191.648 38.5078C191.331 39.1797 190.875 39.7604 190.281 40.25C189.693 40.7396 188.99 41.1042 188.172 41.3438L187.344 39.9688C188.068 39.776 188.688 39.487 189.203 39.1016C189.719 38.7161 190.107 38.2682 190.367 37.7578C190.633 37.2474 190.766 36.7135 190.766 36.1562V36.1094H187.812V34.7344H190.766V33.2031H192.516V34.7344H195.453V36.1094H192.5V36.1562ZM198.562 36.5469H200.531V37.9844H198.562V41.3594H196.828V33.2656H198.562V36.5469ZM198.766 43.4062H195.031C195.141 43.8021 195.385 44.1771 195.766 44.5312C196.151 44.8854 196.651 45.1953 197.266 45.4609C197.88 45.7214 198.578 45.9062 199.359 46.0156L198.734 47.3438C197.641 47.1875 196.688 46.888 195.875 46.4453C195.062 46.0026 194.448 45.4557 194.031 44.8047C193.62 45.4453 193.01 45.9844 192.203 46.4219C191.401 46.8594 190.458 47.1562 189.375 47.3125L188.734 46C189.526 45.8906 190.227 45.7083 190.836 45.4531C191.451 45.1979 191.945 44.8958 192.32 44.5469C192.701 44.1927 192.945 43.8125 193.055 43.4062H189.312V42.0156H198.766V43.4062ZM212.688 38.6406H202.906V33.7812H204.625V37.2656H212.688V38.6406ZM214.141 41.6562H201.234V40.2812H214.141V41.6562ZM212.781 47.0625H202.781V42.9062H204.516V45.6562H212.781V47.0625ZM224.438 43.1172C225.792 43.0391 227 42.9219 228.062 42.7656L228.203 44.0469C226.802 44.3021 225.37 44.4688 223.906 44.5469C222.448 44.6198 220.865 44.6562 219.156 44.6562L218.938 43.25C220.578 43.2396 221.833 43.2214 222.703 43.1953V40.8281H224.438V43.1172ZM227.484 36.4062H224.461C224.492 36.9167 224.643 37.3984 224.914 37.8516C225.185 38.2995 225.573 38.6953 226.078 39.0391C226.583 39.3776 227.182 39.6354 227.875 39.8125L227.078 41.1719C226.255 40.9479 225.547 40.6042 224.953 40.1406C224.359 39.6771 223.898 39.125 223.57 38.4844C223.258 39.1615 222.805 39.7422 222.211 40.2266C221.622 40.7057 220.917 41.0573 220.094 41.2812L219.266 39.9688C219.964 39.776 220.56 39.5026 221.055 39.1484C221.555 38.7943 221.94 38.3828 222.211 37.9141C222.482 37.4453 222.633 36.9427 222.664 36.4062H219.688V35H222.703V33.3906H224.438V35H227.484V36.4062ZM230.641 47.4062H228.906V33.2656H230.641V47.4062ZM237.891 35.6875C237.891 36.2708 238.018 36.8385 238.273 37.3906C238.529 37.9375 238.906 38.4297 239.406 38.8672C239.906 39.2995 240.51 39.6354 241.219 39.875L240.344 41.2188C239.573 40.9688 238.906 40.5911 238.344 40.0859C237.786 39.5807 237.349 38.9896 237.031 38.3125C236.714 39.0677 236.26 39.7266 235.672 40.2891C235.083 40.8464 234.38 41.2604 233.562 41.5312L232.672 40.1562C233.401 39.9167 234.023 39.5677 234.539 39.1094C235.06 38.6458 235.453 38.1198 235.719 37.5312C235.99 36.9375 236.125 36.3281 236.125 35.7031V35.5156H233.188V34.125H240.812V35.5156H237.891V35.6875ZM244.531 47.3906H242.797V43.75H234.906V42.3594H244.531V47.3906ZM244.531 41.6875H242.797V38.1875H240.391V36.7656H242.797V33.2656H244.531V41.6875ZM256.688 42.0938C257.708 42.099 258.594 42.2083 259.344 42.4219C260.094 42.6302 260.672 42.9323 261.078 43.3281C261.49 43.724 261.698 44.1979 261.703 44.75C261.698 45.2917 261.49 45.7578 261.078 46.1484C260.672 46.5443 260.091 46.8464 259.336 47.0547C258.586 47.2682 257.703 47.375 256.688 47.375C255.677 47.375 254.794 47.2682 254.039 47.0547C253.289 46.8464 252.708 46.5443 252.297 46.1484C251.891 45.7578 251.688 45.2917 251.688 44.75C251.688 44.1979 251.891 43.724 252.297 43.3281C252.708 42.9323 253.289 42.6302 254.039 42.4219C254.789 42.2083 255.672 42.099 256.688 42.0938ZM256.688 43.4062C255.667 43.4062 254.867 43.5234 254.289 43.7578C253.716 43.9922 253.432 44.3229 253.438 44.75C253.432 45.1615 253.716 45.4792 254.289 45.7031C254.862 45.9219 255.661 46.0312 256.688 46.0312C257.719 46.0312 258.523 45.9219 259.102 45.7031C259.685 45.4792 259.979 45.1615 259.984 44.75C259.979 44.3229 259.685 43.9922 259.102 43.7578C258.523 43.5234 257.719 43.4062 256.688 43.4062ZM261.609 35.1094C261.609 35.8594 261.586 36.5104 261.539 37.0625C261.497 37.6146 261.391 38.2135 261.219 38.8594L259.5 38.7031C259.656 38.0833 259.758 37.5234 259.805 37.0234C259.852 36.5182 259.875 35.9479 259.875 35.3125H251.828V33.9375H261.609V35.1094ZM263.172 41.0781H250.359V39.6719H255.328V37.1094H257.047V39.6719H263.172V41.0781ZM275.688 35.9219V36.0938C275.682 36.875 275.667 37.5547 275.641 38.1328C275.62 38.7057 275.57 39.3724 275.492 40.1328C275.414 40.888 275.292 41.7083 275.125 42.5938L273.375 42.4062C273.542 41.5833 273.664 40.8073 273.742 40.0781C273.82 39.3438 273.87 38.6927 273.891 38.125C273.917 37.5573 273.932 36.8906 273.938 36.125V35.9531H265.5V34.5625H275.688V35.9219ZM277.031 45.5625H264.156V44.1406H268.906V39.2344H270.625V44.1406H277.031V45.5625Z" fill="#474748"/>
</g>
<defs>
<filter id="filter0_n_4528_8398" x="483.391" y="8.67285" width="135.906" height="132.272" filterUnits="userSpaceOnUse" color-interpolation-filters="sRGB">
<feFlood flood-opacity="0" result="BackgroundImageFix"/>
<feBlend mode="normal" in="SourceGraphic" in2="BackgroundImageFix" result="shape"/>
<feTurbulence type="fractalNoise" baseFrequency="2.3887250423431396 2.3887250423431396" stitchTiles="stitch" numOctaves="3" result="noise" seed="36" />
<feColorMatrix in="noise" type="luminanceToAlpha" result="alphaNoise" />
<feComponentTransfer in="alphaNoise" result="coloredNoise1">
<feFuncA type="discrete" tableValues="1 1 1 1 1 1 1 1 1 1 1 1 1 1 1 1 1 1 1 1 1 1 1 1 1 1 1 1 1 1 1 1 1 1 1 1 1 1 1 1 1 1 1 1 1 1 1 1 1 1 1 0 0 0 0 0 0 0 0 0 0 0 0 0 0 0 0 0 0 0 0 0 0 0 0 0 0 0 0 0 0 0 0 0 0 0 0 0 0 0 0 0 0 0 0 0 0 0 0 0 "/>
</feComponentTransfer>
<feComposite operator="in" in2="shape" in="coloredNoise1" result="noise1Clipped" />
<feFlood flood-color="#C1AFFF" result="color1Flood" />
<feComposite operator="in" in2="noise1Clipped" in="color1Flood" result="color1" />
<feMerge result="effect1_noise_4528_8398">
<feMergeNode in="shape" />
<feMergeNode in="color1" />
</feMerge>
</filter>
<filter id="filter1_n_4528_8398" x="549.254" y="99.1514" width="49.5859" height="41.5293" filterUnits="userSpaceOnUse" color-interpolation-filters="sRGB">
<feFlood flood-opacity="0" result="BackgroundImageFix"/>
<feBlend mode="normal" in="SourceGraphic" in2="BackgroundImageFix" result="shape"/>
<feTurbulence type="fractalNoise" baseFrequency="2.3887250423431396 2.3887250423431396" stitchTiles="stitch" numOctaves="3" result="noise" seed="2798" />
<feColorMatrix in="noise" type="luminanceToAlpha" result="alphaNoise" />
<feComponentTransfer in="alphaNoise" result="coloredNoise1">
<feFuncA type="discrete" tableValues="1 1 1 1 1 1 1 1 1 1 1 1 1 1 1 1 1 1 1 1 1 1 1 1 1 1 1 1 1 1 1 1 1 1 1 1 1 1 1 1 1 1 1 1 1 1 1 1 1 1 1 0 0 0 0 0 0 0 0 0 0 0 0 0 0 0 0 0 0 0 0 0 0 0 0 0 0 0 0 0 0 0 0 0 0 0 0 0 0 0 0 0 0 0 0 0 0 0 0 0 "/>
</feComponentTransfer>
<feComposite operator="in" in2="shape" in="coloredNoise1" result="noise1Clipped" />
<feFlood flood-color="rgba(169, 67, 237, 0.25)" result="color1Flood" />
<feComposite operator="in" in2="noise1Clipped" in="color1Flood" result="color1" />
<feMerge result="effect1_noise_4528_8398">
<feMergeNode in="shape" />
<feMergeNode in="color1" />
</feMerge>
</filter>
<linearGradient id="paint0_linear_4528_8398" x1="-157.546" y1="76" x2="892.228" y2="76" gradientUnits="userSpaceOnUse">
<stop offset="0.0845162" stop-color="#F7F1FB"/>
<stop offset="0.517107" stop-color="#EBDCF5"/>
<stop offset="0.968809" stop-color="#EBDCF5"/>
</linearGradient>
<linearGradient id="paint1_linear_4528_8398" x1="409.974" y1="-21.6299" x2="710.648" y2="196.601" gradientUnits="userSpaceOnUse">
<stop stop-color="white"/>
<stop offset="1" stop-color="white"/>
</linearGradient>
<linearGradient id="paint2_linear_4528_8398" x1="451.355" y1="7.3806" x2="666.828" y2="163.772" gradientUnits="userSpaceOnUse">
<stop stop-color="white"/>
<stop offset="1" stop-color="white"/>
</linearGradient>
<linearGradient id="paint3_linear_4528_8398" x1="556.392" y1="-9.72949" x2="667.071" y2="227.929" gradientUnits="userSpaceOnUse">
<stop stop-color="white"/>
<stop offset="1" stop-color="white" stop-opacity="0.2"/>
</linearGradient>
<linearGradient id="paint4_linear_4528_8398" x1="497.936" y1="-87.5706" x2="567.479" y2="123.054" gradientUnits="userSpaceOnUse">
<stop stop-color="#EED5FF"/>
<stop offset="1" stop-color="#C671FF"/>
</linearGradient>
<linearGradient id="paint5_linear_4528_8398" x1="586.852" y1="133.22" x2="573.019" y2="112.326" gradientUnits="userSpaceOnUse">
<stop stop-color="#DEADFF"/>
<stop offset="0.594777" stop-color="#7951FF"/>
</linearGradient>
<clipPath id="clip0_4528_8398">
<rect width="836" height="152" rx="7.75572" fill="white"/>
</clipPath>
</defs>
</svg>
