<svg width="272" height="200" viewBox="0 0 272 200" fill="none" xmlns="http://www.w3.org/2000/svg">
<g clip-path="url(#clip0_4149_26155)">
<rect width="272" height="200" rx="8" fill="white"/>
<rect width="272" height="200" rx="8" fill="url(#paint0_linear_4149_26155)"/>
<circle opacity="0.3" cx="139" cy="74" r="141" fill="url(#paint1_linear_4149_26155)" fill-opacity="0.5"/>
<circle opacity="0.4" cx="139" cy="74" r="101" fill="url(#paint2_linear_4149_26155)" fill-opacity="0.5"/>
<circle opacity="0.8" cx="139.5" cy="73.5" r="66.5" fill="url(#paint3_linear_4149_26155)" fill-opacity="0.5"/>
<rect x="37.832" y="78.3516" width="65.4478" height="20.9321" rx="10.4661" fill="white"/>
<path d="M53.5749 89.7679H52.2823L52.0296 91.3174H51.2093L51.462 89.7679H50.621L50.7536 88.9559H51.5987L51.8059 87.6798H50.969L51.1016 86.8678H51.9426L52.1953 85.3183H53.0156L52.7629 86.8678H54.0555L54.3082 85.3183H55.1203L54.8676 86.8678H55.7169L55.576 87.6798H54.7308L54.5237 88.9559H55.3689L55.2363 89.7679H54.387L54.1342 91.3174H53.3222L53.5749 89.7679ZM53.7117 88.9559L53.9188 87.6798H52.6262L52.419 88.9559H53.7117ZM58.4595 91.4002C58.0369 91.4002 57.6586 91.3284 57.3243 91.1848C56.9901 91.0412 56.7278 90.8409 56.5372 90.5841C56.3466 90.3244 56.2472 90.0275 56.2389 89.6933H57.3243C57.3354 89.8508 57.3906 89.9902 57.4901 90.1118C57.5923 90.2305 57.7276 90.3231 57.8961 90.3894C58.0646 90.4556 58.2524 90.4888 58.4595 90.4888C58.6777 90.4888 58.8725 90.4515 59.0437 90.3769C59.2177 90.2996 59.353 90.1932 59.4497 90.0579C59.5464 89.9226 59.5947 89.7679 59.5947 89.5939C59.5947 89.4144 59.545 89.2542 59.4456 89.1133C59.3461 88.9724 59.2025 88.8633 59.0147 88.786C58.8269 88.7059 58.6059 88.6659 58.3518 88.6659H57.8132V87.8373H58.3518C58.5617 87.8373 58.7482 87.8014 58.9111 87.7295C59.0768 87.655 59.2053 87.5514 59.2964 87.4188C59.3876 87.2835 59.4318 87.1302 59.429 86.9589C59.4318 86.7932 59.3931 86.6468 59.313 86.5198C59.2357 86.39 59.1238 86.2905 58.9774 86.2215C58.831 86.1497 58.6612 86.1138 58.4678 86.1138C58.28 86.1138 58.1046 86.1483 57.9417 86.2173C57.7815 86.2836 57.6516 86.3789 57.5522 86.5032C57.4555 86.6275 57.4044 86.7711 57.3989 86.9341H56.3632C56.3715 86.6026 56.4681 86.3085 56.6532 86.0516C56.841 85.7948 57.0937 85.5945 57.4114 85.4509C57.7317 85.3073 58.0867 85.2355 58.4761 85.2355C58.8711 85.2355 59.2205 85.31 59.5243 85.4592C59.8281 85.6056 60.0629 85.8058 60.2286 86.0599C60.3943 86.314 60.4758 86.5944 60.473 86.9009C60.4758 87.1219 60.4316 87.3221 60.3405 87.5017C60.2493 87.6812 60.1209 87.8304 59.9552 87.9491C59.7894 88.0679 59.5975 88.1494 59.3793 88.1936V88.2433C59.6582 88.2819 59.8972 88.3648 60.096 88.4919C60.2949 88.6161 60.4454 88.7777 60.5476 88.9766C60.6498 89.1755 60.6995 89.4006 60.6968 89.6519C60.6995 89.9833 60.6042 90.283 60.4109 90.5509C60.2203 90.8161 59.9538 91.0246 59.6113 91.1765C59.2716 91.3257 58.8876 91.4002 58.4595 91.4002ZM68.237 91.1682H61.3928V90.4142H64.3509V88.8647H65.2623V90.4142H68.237V91.1682ZM67.6238 86.3955H65.2831C65.3051 86.7104 65.4253 87.0073 65.6435 87.2862C65.8645 87.5652 66.171 87.8041 66.5632 88.003C66.9554 88.1991 67.4139 88.3317 67.9387 88.4007L67.599 89.1216C66.9527 89.0304 66.3879 88.8482 65.9045 88.5747C65.4212 88.2985 65.0552 87.9546 64.8066 87.5431C64.5553 87.9546 64.1893 88.2985 63.7087 88.5747C63.2281 88.8482 62.6661 89.0304 62.0225 89.1216L61.6745 88.4007C62.202 88.3317 62.6619 88.1991 63.0541 88.003C63.4491 87.8041 63.7557 87.5652 63.9739 87.2862C64.1921 87.0073 64.3136 86.7104 64.3384 86.3955H61.9977V85.6498H64.3509V84.6803H65.2623V85.6498H67.6238V86.3955ZM70.8057 84.8957C71.1261 84.893 71.4202 84.9496 71.6881 85.0656C71.956 85.1788 72.1798 85.3404 72.3593 85.5503C72.5416 85.7575 72.6631 85.9978 72.7239 86.2712H74.0786V84.5643H74.9984V88.583H74.0786V87.0169H72.7322C72.6714 87.2959 72.5499 87.5417 72.3676 87.7544C72.1881 87.9671 71.963 88.1328 71.6923 88.2516C71.4216 88.3676 71.1261 88.4256 70.8057 88.4256C70.4273 88.4256 70.0876 88.3496 69.7865 88.1977C69.4854 88.0458 69.2493 87.8359 69.078 87.568C68.9096 87.2973 68.8253 86.9921 68.8253 86.6524C68.8253 86.3154 68.9096 86.013 69.078 85.745C69.2493 85.4771 69.4854 85.2686 69.7865 85.1195C70.0876 84.9675 70.4273 84.893 70.8057 84.8957ZM70.8057 85.6663C70.5902 85.6663 70.3997 85.7064 70.2339 85.7865C70.0682 85.8666 69.9384 85.9812 69.8445 86.1303C69.7506 86.2795 69.7036 86.4535 69.7036 86.6524C69.7036 86.8485 69.7506 87.0225 69.8445 87.1744C69.9384 87.3235 70.0682 87.4395 70.2339 87.5224C70.4024 87.6053 70.593 87.6467 70.8057 87.6467C71.0128 87.6467 71.1979 87.6053 71.3608 87.5224C71.5266 87.4395 71.655 87.3235 71.7461 87.1744C71.84 87.0225 71.8884 86.8485 71.8911 86.6524C71.8884 86.4535 71.84 86.2795 71.7461 86.1303C71.655 85.9812 71.5279 85.8666 71.365 85.7865C71.202 85.7064 71.0156 85.6663 70.8057 85.6663ZM70.9714 89.7265H74.0786V88.931H74.9984V91.9637H70.0599V88.931H70.9714V89.7265ZM74.0786 91.218V90.4391H70.9714V91.218H74.0786ZM82.9032 91.1848H76.059V90.4225H79.0088V89.2045H76.871V86.7518H81.1797V85.8238H76.8545V85.078H82.0912V87.481H77.7908V88.4504H82.2652V89.2045H79.9203V90.4225H82.9032V91.1848ZM89.474 88.815H84.2207V85.2189H89.416V85.9646H85.1322V88.0776H89.474V88.815ZM90.2363 91.1019H83.3921V90.3396H90.2363V91.1019Z" fill="#7951FF"/>
<g filter="url(#filter0_n_4149_26155)">
<path d="M84.1525 114.635C96.9645 93.4236 104.53 42.4623 104.822 15.3552C104.831 14.5245 105.597 13.9245 106.41 14.0934C126.987 18.3662 147.39 19.375 183.688 14.6427C184.524 14.5337 185.258 15.2228 185.173 16.0614L185.091 16.8744C181.797 49.4463 177.539 91.5406 164.931 105.322C142.581 129.754 94.504 119.026 84.9005 116.575C84.0472 116.358 83.6973 115.388 84.1525 114.635Z" fill="url(#paint4_linear_4149_26155)"/>
</g>
<g filter="url(#filter1_n_4149_26155)">
<path d="M158.934 99.5811C154.771 112.098 145.391 115.608 141.187 118.641C164.348 111.692 168.98 104.164 175.929 79.844C171.679 90.0451 169.092 95.2542 159.755 98.7285C159.369 98.8722 159.064 99.1902 158.934 99.5811Z" fill="url(#paint5_linear_4149_26155)"/>
</g>
<path d="M141.956 45.5273C148.95 45.5276 153.733 51.1276 152.639 58.0355L152.425 59.3897C152.421 59.4093 152.417 59.429 152.414 59.4485C159.268 59.5845 163.92 65.1311 162.84 71.9538L162.625 73.308C161.531 80.2159 154.974 85.8158 147.98 85.8162H121.849C114.855 85.8161 110.072 80.2161 111.166 73.308L111.381 71.9538C112.463 65.1205 118.891 59.567 125.799 59.4476L126.023 58.0355C127.117 51.1275 133.674 45.5273 140.668 45.5273H141.956ZM139.327 60.2462C139.134 59.9459 138.678 59.9353 138.377 60.224L129.953 68.3242C129.542 68.7199 129.728 69.3377 130.259 69.338H135.402L134.126 77.3948H137.378L138.655 69.338H143.886C144.403 69.3379 144.786 68.7473 144.528 68.3464L139.327 60.2462Z" fill="#FCF8FF" fill-opacity="0.8"/>
<rect x="183.25" y="59.4414" width="60.1448" height="20.9321" rx="10.4661" fill="white"/>
<path d="M198.844 70.8577H197.552L197.299 72.4072H196.479L196.732 70.8577H195.891L196.023 70.0457H196.868L197.075 68.7697H196.239L196.371 67.9576H197.212L197.465 66.4082H198.285L198.032 67.9576H199.325L199.578 66.4082H200.39L200.137 67.9576H200.986L200.846 68.7697H200L199.793 70.0457H200.638L200.506 70.8577H199.656L199.404 72.4072H198.592L198.844 70.8577ZM198.981 70.0457L199.188 68.7697H197.896L197.689 70.0457H198.981ZM205.105 69.4077H201.558V66.1513H205.105V69.4077ZM202.461 68.6702H204.201V66.8888H202.461V68.6702ZM207.209 67.3362H208.253V68.0985H207.209V69.88H206.289V65.6541H207.209V67.3362ZM207.317 70.9903H205.324C205.374 71.2058 205.5 71.4115 205.701 71.6076C205.903 71.801 206.168 71.9694 206.497 72.1131C206.828 72.2539 207.206 72.3547 207.632 72.4155L207.3 73.1198C206.723 73.037 206.218 72.8781 205.784 72.6434C205.353 72.4086 205.029 72.12 204.81 71.7775C204.592 72.12 204.269 72.4072 203.841 72.6392C203.413 72.874 202.912 73.0287 202.337 73.1033L201.997 72.4072C202.425 72.3492 202.804 72.2512 203.132 72.1131C203.464 71.9722 203.728 71.8051 203.924 71.6118C204.123 71.4184 204.248 71.2113 204.301 70.9903H202.304V70.2612H207.317V70.9903ZM215.462 70.0209H212.496V70.6755H214.633V73.0535H209.438V70.6755H211.584V70.0209H208.634V69.2917H215.462V70.0209ZM212.496 66.317H214.791V67.0462H212.562C212.598 67.2533 212.719 67.4439 212.927 67.6179C213.136 67.7892 213.426 67.9328 213.797 68.0488C214.169 68.162 214.611 68.2366 215.122 68.2725L214.857 68.952C214.18 68.8995 213.6 68.7766 213.117 68.5832C212.634 68.3899 212.275 68.1358 212.04 67.8209C211.805 68.1358 211.446 68.3899 210.963 68.5832C210.479 68.7766 209.902 68.8995 209.231 68.952L208.958 68.2725C209.468 68.2366 209.909 68.162 210.279 68.0488C210.652 67.9328 210.942 67.7892 211.149 67.6179C211.356 67.4439 211.478 67.2533 211.514 67.0462H209.306V66.317H211.584V65.6459H212.496V66.317ZM210.35 72.3078H213.739V71.4129H210.35V72.3078ZM219.34 70.3357C219.881 70.3385 220.351 70.3965 220.749 70.5097C221.146 70.6202 221.453 70.7804 221.668 70.9903C221.886 71.2002 221.997 71.4516 222 71.7443C221.997 72.0316 221.886 72.2788 221.668 72.4859C221.453 72.6959 221.145 72.8561 220.744 72.9665C220.347 73.0798 219.878 73.1364 219.34 73.1364C218.804 73.1364 218.336 73.0798 217.935 72.9665C217.538 72.8561 217.23 72.6959 217.012 72.4859C216.796 72.2788 216.688 72.0316 216.688 71.7443C216.688 71.4516 216.796 71.2002 217.012 70.9903C217.23 70.7804 217.538 70.6202 217.935 70.5097C218.333 70.3965 218.801 70.3385 219.34 70.3357ZM219.34 71.0318C218.799 71.0318 218.375 71.0939 218.068 71.2182C217.764 71.3425 217.614 71.5179 217.616 71.7443C217.614 71.9625 217.764 72.131 218.068 72.2498C218.372 72.3658 218.796 72.4238 219.34 72.4238C219.887 72.4238 220.313 72.3658 220.62 72.2498C220.929 72.131 221.085 71.9625 221.088 71.7443C221.085 71.5179 220.929 71.3425 220.62 71.2182C220.313 71.0939 219.887 71.0318 219.34 71.0318ZM221.95 66.6319C221.95 67.0296 221.938 67.3749 221.913 67.6676C221.891 67.9604 221.834 68.278 221.743 68.6205L220.831 68.5377C220.914 68.209 220.968 67.9121 220.993 67.6469C221.018 67.379 221.03 67.0766 221.03 66.7396H216.763V66.0104H221.95V66.6319ZM222.779 69.7971H215.984V69.0514H218.619V67.6925H219.53V69.0514H222.779V69.7971ZM229.416 67.0628V67.1539C229.413 67.5682 229.405 67.9286 229.391 68.2352C229.38 68.539 229.354 68.8926 229.312 69.2958C229.271 69.6963 229.206 70.1313 229.117 70.6009L228.189 70.5014C228.278 70.0651 228.343 69.6535 228.384 69.2668C228.425 68.8774 228.452 68.5321 228.463 68.2311C228.477 67.93 228.485 67.5765 228.488 67.1705V67.0793H224.013V66.3419H229.416V67.0628ZM230.128 72.1752H223.301V71.4212H225.82V68.8194H226.731V71.4212H230.128V72.1752Z" fill="#7951FF"/>
<rect x="162.402" y="35.7344" width="69.4251" height="20.9321" rx="10.4661" fill="white"/>
<path d="M178.134 47.1507H176.841L176.588 48.7002H175.768L176.021 47.1507H175.18L175.312 46.3387H176.157L176.364 45.0626H175.528L175.66 44.2506H176.501L176.754 42.7011H177.574L177.322 44.2506H178.614L178.867 42.7011H179.679L179.426 44.2506H180.275L180.135 45.0626H179.289L179.082 46.3387H179.927L179.795 47.1507H178.946L178.693 48.7002H177.881L178.134 47.1507ZM178.27 46.3387L178.477 45.0626H177.185L176.978 46.3387H178.27ZM186.821 49.4459H185.893V41.9471H186.821V49.4459ZM182.786 42.494C183.162 42.494 183.496 42.6031 183.789 42.8213C184.084 43.0367 184.316 43.3447 184.485 43.7452C184.653 44.1429 184.739 44.6069 184.742 45.1372C184.739 45.6703 184.653 46.1371 184.485 46.5375C184.319 46.938 184.088 47.2474 183.793 47.4656C183.497 47.681 183.162 47.7887 182.786 47.7887C182.408 47.7887 182.071 47.681 181.775 47.4656C181.48 47.2474 181.248 46.938 181.079 46.5375C180.913 46.1371 180.831 45.6703 180.831 45.1372C180.831 44.6069 180.913 44.1429 181.079 43.7452C181.248 43.3447 181.48 43.0367 181.775 42.8213C182.071 42.6031 182.408 42.494 182.786 42.494ZM182.786 43.3226C182.573 43.3226 182.386 43.3944 182.223 43.538C182.062 43.6816 181.938 43.8902 181.85 44.1636C181.761 44.437 181.717 44.7616 181.717 45.1372C181.717 45.5156 181.761 45.8415 181.85 46.115C181.938 46.3884 182.062 46.5983 182.223 46.7447C182.386 46.8883 182.573 46.9601 182.786 46.9601C182.996 46.9601 183.181 46.8883 183.341 46.7447C183.501 46.5983 183.626 46.3884 183.714 46.115C183.803 45.8415 183.847 45.5156 183.847 45.1372C183.847 44.7616 183.803 44.4384 183.714 44.1678C183.626 43.8943 183.501 43.6858 183.341 43.5422C183.181 43.3958 182.996 43.3226 182.786 43.3226ZM191.503 44.6483H189.141V45.5681H189.307C189.871 45.5681 190.339 45.5557 190.712 45.5308C191.085 45.5032 191.456 45.4548 191.826 45.3858L191.917 46.1315C191.492 46.2033 191.057 46.2503 190.612 46.2724C190.17 46.2945 189.559 46.3055 188.777 46.3055H188.23V43.9606H190.583V43.1237H188.213V42.3945H191.503V44.6483ZM194.196 46.5624H193.276V45.3278H191.95V44.5903H193.276V43.7535H191.95V43.016H193.276V41.9554H194.196V46.5624ZM194.196 49.4376H193.276V47.6562H189.075V46.9187H194.196V49.4376ZM198.024 43.7452C198.024 44.2147 198.096 44.6691 198.24 45.1082C198.386 45.5446 198.599 45.9313 198.878 46.2683C199.159 46.6052 199.493 46.8579 199.88 47.0264L199.325 47.7639C198.911 47.5623 198.553 47.2722 198.252 46.8938C197.954 46.5155 197.723 46.0763 197.56 45.5764C197.392 46.1067 197.154 46.5735 196.847 46.9767C196.544 47.38 196.182 47.6893 195.762 47.9047L195.182 47.159C195.577 46.9739 195.917 46.7033 196.201 46.347C196.488 45.9907 196.707 45.586 196.856 45.1331C197.008 44.6801 197.085 44.2175 197.088 43.7452V42.552H198.024V43.7452ZM201.537 49.4459H200.626V45.1124H199.052V44.3666H200.626V41.9471H201.537V49.4459ZM210.47 44.8721H211.58V45.6427H210.47V49.4211H209.55V41.9471H210.47V44.8721ZM208.489 42.726C208.489 45.1842 207.354 46.9712 205.084 48.087L204.562 47.3744C205.473 46.9215 206.176 46.3732 206.671 45.7297C207.168 45.0861 207.463 44.339 207.557 43.4883H204.968V42.726H208.489ZM217.993 44.6401H212.823V42.0797H213.743V43.8943H217.993V44.6401ZM218.772 46.1067H211.936V45.3609H218.772V46.1067ZM215.342 46.6453C215.88 46.648 216.343 46.7047 216.73 46.8151C217.116 46.9228 217.413 47.0803 217.62 47.2874C217.828 47.4918 217.933 47.739 217.935 48.029C217.933 48.319 217.828 48.5662 217.62 48.7706C217.413 48.9778 217.116 49.1352 216.73 49.2429C216.343 49.3506 215.88 49.4045 215.342 49.4045C214.798 49.4045 214.33 49.3506 213.937 49.2429C213.548 49.1352 213.25 48.9778 213.042 48.7706C212.835 48.5662 212.732 48.319 212.732 48.029C212.732 47.739 212.835 47.4918 213.042 47.2874C213.25 47.0803 213.548 46.9228 213.937 46.8151C214.33 46.7047 214.798 46.648 215.342 46.6453ZM215.342 47.3661C214.218 47.3744 213.66 47.5954 213.668 48.029C213.663 48.2445 213.803 48.4102 214.091 48.5262C214.378 48.6422 214.795 48.7002 215.342 48.7002C215.875 48.7002 216.285 48.6422 216.572 48.5262C216.862 48.4102 217.01 48.2445 217.016 48.029C217.007 47.5954 216.449 47.3744 215.342 47.3661Z" fill="#7951FF"/>
<rect opacity="0.5" x="-2" y="112" width="274" height="88" fill="url(#paint6_linear_4149_26155)"/>
<rect opacity="0.1" x="74" y="169" width="56" height="18" fill="#7951FF"/>
<path d="M20.7607 161.166C18.4316 161.166 16.7617 159.884 16.7178 158.031H18.9443C18.981 158.822 19.75 159.342 20.7754 159.35C21.8301 159.342 22.5845 158.756 22.5771 157.899C22.5845 157.035 21.8154 156.427 20.5703 156.42H19.5889V154.794H20.5703C21.6177 154.794 22.3501 154.223 22.3428 153.388C22.3501 152.575 21.7275 152.018 20.79 152.025C19.8525 152.018 19.0835 152.545 19.0469 153.358H16.9375C16.9741 151.535 18.6147 150.268 20.79 150.268C23.002 150.268 24.4741 151.579 24.4668 153.256C24.4741 154.442 23.6465 155.285 22.46 155.497V155.585C24.02 155.775 24.877 156.72 24.8623 158.046C24.877 159.862 23.1558 161.166 20.7607 161.166ZM38.1777 159.32V160.844H25.9756V159.32H31.1318V156.713H32.9922V159.32H38.1777ZM26.3857 155.717C29.4253 155.351 30.9341 153.842 31.1025 152.362H27.0303V150.868H31.1318V149.198H32.9922V150.868H37.1084V152.362H33.0361C33.1899 153.842 34.7061 155.351 37.7383 155.717L37.0645 157.167C34.6768 156.859 32.9556 155.871 32.0547 154.494C31.1685 155.871 29.4546 156.859 27.0742 157.167L26.3857 155.717ZM45.7363 150.136V156.537H39.335V150.136H45.7363ZM40.873 162.133V157.812H42.7334V160.639H49.999V162.133H40.873ZM41.1807 155.072H43.8906V151.63H41.1807V155.072ZM47.6406 158.764V149.037H49.5156V152.875H51.3174V154.413H49.5156V158.764H47.6406ZM63.4609 149.037V162.367H61.6738V149.037H63.4609ZM52.0205 154.809C52.0205 151.828 53.1558 149.982 54.9209 149.989C56.5249 149.982 57.6235 151.483 57.8286 153.974H58.9199V149.228H60.6777V161.752H58.9199V155.453H57.8433C57.6821 158.068 56.5615 159.657 54.9209 159.657C53.1558 159.657 52.0205 157.804 52.0205 154.809ZM53.749 154.809C53.7344 156.859 54.1738 157.87 54.9209 157.855C55.6899 157.87 56.144 156.859 56.1367 154.809C56.144 152.765 55.6899 151.747 54.9209 151.747C54.1738 151.747 53.7344 152.765 53.749 154.809ZM72.0449 149.608C73.7441 149.594 75.0991 150.568 75.4653 151.996H77.6992V149.037H79.5596V156.2H77.6992V153.49H75.4727C75.1284 154.955 73.7588 155.951 72.0449 155.951C69.9941 155.951 68.4854 154.618 68.5 152.758C68.4854 150.934 69.9941 149.594 72.0449 149.608ZM70.2725 152.758C70.2651 153.754 70.9976 154.384 72.0449 154.384C73.0557 154.384 73.7808 153.754 73.7881 152.758C73.7808 151.762 73.0557 151.154 72.0449 151.161C70.9976 151.154 70.2651 151.762 70.2725 152.758ZM70.668 162.221V156.786H72.5137V158.075H77.6992V156.786H79.5596V162.221H70.668ZM72.5137 160.712H77.6992V159.511H72.5137V160.712ZM93.4902 159.35V160.888H81.2881V159.35H86.4297V157.343H82.6943V152.86H90.2383V151.396H82.6797V149.901H92.084V154.325H84.5693V155.819H92.3916V157.343H88.29V159.35H93.4902ZM105.121 155.204V156.698H95.6875V150.15H105.019V151.659H97.5332V155.204H105.121ZM94.252 160.741V159.203H106.454V160.741H94.252ZM117.733 149.037V154.252H119.696V155.79H117.733V162.367H115.888V149.037H117.733ZM107.143 152.523V151.029H110.16V149.242H112.035V151.029H114.979V152.523H107.143ZM107.685 156.449C107.677 154.589 109.127 153.263 111.098 153.271C113.039 153.263 114.496 154.589 114.496 156.449C114.496 158.31 113.039 159.621 111.098 159.628C109.127 159.621 107.677 158.31 107.685 156.449ZM109.472 156.449C109.472 157.482 110.153 158.097 111.098 158.09C112.028 158.097 112.709 157.482 112.709 156.449C112.709 155.424 112.028 154.794 111.098 154.779C110.153 154.794 109.472 155.424 109.472 156.449ZM131.166 150.194V151.454C131.159 153.124 131.159 154.999 130.624 157.826L128.749 157.636C129.262 155.116 129.284 153.241 129.291 151.674H121.439V150.194H131.166ZM120.18 160.741V159.218H124.53V154.633H126.391V159.218H132.338V160.741H120.18ZM21.5664 174.67C21.5591 176.823 22.6724 179.13 24.9062 180.061L23.8955 181.525C22.3281 180.859 21.2441 179.533 20.6436 177.922C20.043 179.672 18.937 181.137 17.3623 181.862L16.293 180.383C18.5049 179.394 19.6475 176.926 19.6475 174.67V173.85H16.8203V172.326H24.3496V173.85H21.5664V174.67ZM25.668 184.367V171.037H27.5576V184.367H25.668ZM40.1113 171.638V172.707C40.1187 173.747 40.1187 174.897 39.7964 176.428H41.5615V177.937H29.3594V176.428H37.9141C38.1997 175.102 38.2363 174.069 38.251 173.132H30.8535V171.638H40.1113ZM30.8096 184.221V179.343H40.0674V184.221H30.8096ZM32.6406 182.727H38.207V180.808H32.6406V182.727ZM56.2979 171.037V176.018H58.2607V177.585H56.2979V184.367H54.4229V171.037H56.2979ZM46.2051 181.276V172.092H48.0654V175.344H50.834V172.092H52.6943V181.276H46.2051ZM48.0654 179.768H50.834V176.794H48.0654V179.768ZM70.9463 181.35V182.888H58.7441V181.35H63.8857V179.343H60.1504V174.86H67.6943V173.396H60.1357V171.901H69.54V176.325H62.0254V177.819H69.8477V179.343H65.7461V181.35H70.9463ZM142.665 177.014V178.405H130.463V177.014H142.665ZM131.854 180.354V179.064H141.2V182.214H133.729V182.976H141.596V184.25H131.869V181.027H139.354V180.354H131.854ZM131.957 172.546V171.271H141.186V174.406H133.847V175.124H141.42V176.384H131.986V173.22H139.311V172.546H131.957ZM157.562 171.052V174.86H159.262V176.398H157.562V180.104H155.688V171.052H157.562ZM146.752 178.391C147.726 178.391 148.832 178.391 149.989 178.361V177.614C148.539 177.409 147.638 176.699 147.646 175.681C147.638 174.443 148.935 173.681 150.912 173.688C152.875 173.681 154.171 174.443 154.179 175.681C154.171 176.699 153.278 177.402 151.85 177.607V178.295C152.948 178.237 154.047 178.156 155.072 178.024L155.204 179.313C152.384 179.812 149.293 179.841 146.942 179.841L146.752 178.391ZM147.104 173.381V172.019H149.989V170.935H151.85V172.019H154.735V173.381H147.104ZM148.451 182.082V180.646H157.562V184.367H155.688V182.082H148.451ZM149.433 175.681C149.425 176.164 149.96 176.45 150.912 176.442C151.85 176.45 152.384 176.164 152.392 175.681C152.384 175.161 151.85 174.934 150.912 174.934C149.96 174.934 149.425 175.161 149.433 175.681ZM171.024 171.052V180.632H169.149V171.052H171.024ZM160.067 175.256C160.067 173.3 161.664 171.894 163.715 171.901C165.758 171.894 167.355 173.3 167.362 175.256C167.355 177.241 165.758 178.64 163.715 178.64C161.664 178.64 160.067 177.241 160.067 175.256ZM161.898 175.256C161.884 176.369 162.667 177.014 163.715 177.014C164.726 177.014 165.509 176.369 165.517 175.256C165.509 174.172 164.726 173.52 163.715 173.527C162.667 173.52 161.884 174.172 161.898 175.256ZM162.089 184.133V179.665H163.979V182.639H171.376V184.133H162.089ZM183.344 171.037V176.252H185.307V177.79H183.344V184.367H181.498V171.037H183.344ZM172.753 174.523V173.029H175.771V171.242H177.646V173.029H180.59V174.523H172.753ZM173.295 178.449C173.288 176.589 174.738 175.263 176.708 175.271C178.649 175.263 180.106 176.589 180.106 178.449C180.106 180.31 178.649 181.621 176.708 181.628C174.738 181.621 173.288 180.31 173.295 178.449ZM175.082 178.449C175.082 179.482 175.763 180.097 176.708 180.09C177.638 180.097 178.319 179.482 178.319 178.449C178.319 177.424 177.638 176.794 176.708 176.779C175.763 176.794 175.082 177.424 175.082 178.449ZM190.067 174.392C190.06 176.552 190.661 178.779 192.484 179.943L191.474 181.394C190.316 180.698 189.591 179.541 189.167 178.178C188.69 179.687 187.892 180.954 186.684 181.687L185.541 180.31C187.519 179.086 188.251 176.735 188.251 174.479V172.18H190.067V174.392ZM191.078 177.058V175.534H192.807V171.228H194.55V183.752H192.807V177.058H191.078ZM195.561 184.367V171.037H197.348V184.367H195.561ZM210.956 181.276V182.814H198.754V181.276H201.479V178.01C200.446 177.387 199.823 176.442 199.823 175.271C199.823 173.11 201.933 171.689 204.833 171.682C207.719 171.689 209.85 173.11 209.857 175.271C209.85 176.42 209.25 177.351 208.246 177.973V181.276H210.956ZM201.669 175.271C201.669 176.574 202.921 177.38 204.833 177.38C206.715 177.38 208.004 176.574 208.012 175.271C208.004 173.93 206.715 173.154 204.833 173.161C202.921 173.154 201.669 173.93 201.669 175.271ZM203.324 181.276H206.356V178.684C205.88 178.779 205.368 178.83 204.833 178.83C204.298 178.83 203.793 178.779 203.324 178.691V181.276ZM214.75 172.414L214.56 179.841H212.685L212.494 172.414H214.75ZM212.406 181.921C212.392 181.247 212.948 180.698 213.637 180.705C214.289 180.698 214.853 181.247 214.853 181.921C214.853 182.602 214.289 183.151 213.637 183.151C212.948 183.151 212.392 182.602 212.406 181.921Z" fill="black"/>
<path d="M81.9619 171.901V177.746H75.5605V171.901H81.9619ZM76.3516 182.888C78.7466 182.595 80.0503 181.643 80.3506 180.617H76.9229V179.138H85.9023V180.617H82.4893C82.7969 181.613 84.1226 182.602 86.4883 182.917L85.8291 184.338C83.6904 184.052 82.1816 183.203 81.4126 182.06C80.6509 183.203 79.1567 184.038 77.0254 184.309L76.3516 182.888ZM77.4062 176.267H80.1162V173.381H77.4062V176.267ZM83.8662 178.508V171.037H85.7412V173.938H87.543V175.461H85.7412V178.508H83.8662ZM100.287 177.438V178.918H95.1162V179.943H98.8369V184.221H89.5352V179.943H93.2705V178.918H88.1289V177.438H100.287ZM88.6416 175.563C91.5347 175.395 92.8677 174.56 93.1094 173.645H89.3008V172.18H93.2705V171.037H95.1162V172.18H99.1152V173.645H95.27C95.5117 174.56 96.874 175.395 99.7451 175.563L99.2031 176.94C96.7349 176.772 95.0283 176.098 94.1934 175.051C93.3511 176.098 91.6445 176.772 89.1836 176.94L88.6416 175.563ZM91.3809 182.727H97.0059V181.423H91.3809V182.727ZM110.556 179.343C113.471 179.343 115.302 180.266 115.316 181.862C115.302 183.437 113.471 184.375 110.556 184.367C107.663 184.375 105.802 183.437 105.81 181.862C105.802 180.266 107.663 179.343 110.556 179.343ZM104.579 178.493V176.984H109.12V174.655H110.966V176.984H116.679V178.493H104.579ZM105.941 173.103V171.638H115.243V172.722C115.25 173.784 115.25 174.926 114.862 176.296L113.031 176.12C113.332 174.912 113.368 174.011 113.383 173.103H105.941ZM107.67 181.862C107.663 182.58 108.717 182.946 110.556 182.946C112.394 182.946 113.456 182.58 113.456 181.862C113.456 181.123 112.394 180.727 110.556 180.734C108.717 180.727 107.663 181.123 107.67 181.862ZM128.5 172.194V173.454C128.493 175.124 128.493 176.999 127.958 179.826L126.083 179.636C126.596 177.116 126.618 175.241 126.625 173.674H118.773V172.194H128.5ZM117.514 182.741V181.218H121.864V176.633H123.725V181.218H129.672V182.741H117.514Z" fill="#7951FF"/>
<path opacity="0.8" d="M23.8711 141.006H22.8262V136.543H21.8496V140.557H20.834V132.344H21.8496V135.654H22.8262V132.178H23.8711V141.006ZM17.7676 137.852C18.6595 137.835 19.4993 137.747 20.2871 137.588L20.3945 138.535C19.8346 138.636 19.3008 138.708 18.793 138.75C18.2852 138.789 17.7741 138.809 17.2598 138.809H16.6738V133.193H17.7676V137.852ZM30.4727 134.688C30.4727 135.15 30.5605 135.615 30.7363 136.084C30.9154 136.553 31.1709 136.979 31.5029 137.363C31.8382 137.747 32.2305 138.044 32.6797 138.252L32.0742 139.111C31.5892 138.883 31.1644 138.55 30.7998 138.11C30.4352 137.668 30.1504 137.161 29.9453 136.592C29.7402 137.214 29.4489 137.765 29.0713 138.247C28.6937 138.729 28.2559 139.089 27.7578 139.326L27.123 138.477C27.5755 138.262 27.9727 137.951 28.3145 137.544C28.6595 137.137 28.9232 136.683 29.1055 136.182C29.291 135.68 29.3854 135.182 29.3887 134.688V133.945H27.4648V133.047H32.3184V133.945H30.4727V134.688ZM34.2227 135.615H35.5801V136.523H34.2227V141.006H33.1387V132.178H34.2227V135.615ZM44.0176 139.912H35.9512V139.033H39.4082V136.992H40.4824V139.033H44.0176V139.912ZM40.5117 133.359C40.5117 133.802 40.6484 134.232 40.9219 134.648C41.1986 135.065 41.5794 135.423 42.0645 135.723C42.5527 136.019 43.0996 136.214 43.7051 136.309L43.2363 137.207C42.4909 137.067 41.8268 136.795 41.2441 136.392C40.6647 135.985 40.2285 135.493 39.9355 134.917C39.7402 135.298 39.4798 135.646 39.1543 135.962C38.8288 136.274 38.4528 136.538 38.0264 136.753C37.5999 136.965 37.1426 137.116 36.6543 137.207L36.1855 136.309C36.7845 136.214 37.3249 136.019 37.8066 135.723C38.2917 135.423 38.6709 135.065 38.9443 134.648C39.2178 134.229 39.3561 133.799 39.3594 133.359V132.715H40.5117V133.359ZM47.8555 134.297C47.8555 134.85 47.9401 135.386 48.1094 135.903C48.2819 136.418 48.5326 136.873 48.8613 137.271C49.1934 137.668 49.5872 137.965 50.043 138.164L49.3887 139.033C48.9004 138.796 48.4788 138.454 48.124 138.008C47.7725 137.562 47.5007 137.044 47.3086 136.455C47.11 137.08 46.8301 137.63 46.4688 138.105C46.1107 138.581 45.6842 138.945 45.1895 139.199L44.5059 138.32C44.9714 138.102 45.3717 137.783 45.707 137.363C46.0456 136.943 46.3027 136.466 46.4785 135.933C46.6576 135.399 46.7487 134.854 46.752 134.297V132.891H47.8555V134.297ZM51.9961 141.016H50.9219V135.908H49.0664V135.029H50.9219V132.178H51.9961V141.016ZM54.1445 141.201H53.0508L55.3359 132.734H56.4199L54.1445 141.201ZM64.1641 141.016H63.0703V132.178H64.1641V141.016ZM59.4082 132.822C59.8509 132.822 60.2448 132.951 60.5898 133.208C60.9382 133.462 61.2116 133.825 61.4102 134.297C61.6087 134.766 61.7096 135.312 61.7129 135.938C61.7096 136.566 61.6087 137.116 61.4102 137.588C61.2148 138.06 60.943 138.424 60.5947 138.682C60.2464 138.936 59.8509 139.062 59.4082 139.062C58.9622 139.062 58.5651 138.936 58.2168 138.682C57.8685 138.424 57.5951 138.06 57.3965 137.588C57.2012 137.116 57.1035 136.566 57.1035 135.938C57.1035 135.312 57.2012 134.766 57.3965 134.297C57.5951 133.825 57.8685 133.462 58.2168 133.208C58.5651 132.951 58.9622 132.822 59.4082 132.822ZM59.4082 133.799C59.1576 133.799 58.9362 133.883 58.7441 134.053C58.5553 134.222 58.4089 134.468 58.3047 134.79C58.2005 135.112 58.1484 135.495 58.1484 135.938C58.1484 136.383 58.2005 136.768 58.3047 137.09C58.4089 137.412 58.5553 137.66 58.7441 137.832C58.9362 138.001 59.1576 138.086 59.4082 138.086C59.6556 138.086 59.8737 138.001 60.0625 137.832C60.2513 137.66 60.3978 137.412 60.502 137.09C60.6061 136.768 60.6582 136.383 60.6582 135.938C60.6582 135.495 60.6061 135.114 60.502 134.795C60.3978 134.473 60.2513 134.227 60.0625 134.058C59.8737 133.885 59.6556 133.799 59.4082 133.799ZM69.6816 135.361H66.8984V136.445H67.0938C67.7578 136.445 68.3096 136.431 68.749 136.401C69.1885 136.369 69.6263 136.312 70.0625 136.23L70.1699 137.109C69.6686 137.194 69.1559 137.249 68.6318 137.275C68.111 137.301 67.39 137.314 66.4688 137.314H65.8242V134.551H68.5977V133.564H65.8047V132.705H69.6816V135.361ZM72.8555 137.617H71.7715V136.162H70.209V135.293H71.7715V134.307H70.209V133.438H71.7715V132.188H72.8555V137.617ZM72.8555 141.006H71.7715V138.906H66.8203V138.037H72.8555V141.006ZM77.3672 134.297C77.3672 134.85 77.4518 135.386 77.6211 135.903C77.7936 136.418 78.0443 136.873 78.373 137.271C78.7051 137.668 79.099 137.965 79.5547 138.164L78.9004 139.033C78.4121 138.796 77.9906 138.454 77.6357 138.008C77.2842 137.562 77.0124 137.044 76.8203 136.455C76.6217 137.08 76.3418 137.63 75.9805 138.105C75.6224 138.581 75.196 138.945 74.7012 139.199L74.0176 138.32C74.4831 138.102 74.8835 137.783 75.2188 137.363C75.5573 136.943 75.8145 136.466 75.9902 135.933C76.1693 135.399 76.2604 134.854 76.2637 134.297V132.891H77.3672V134.297ZM81.5078 141.016H80.4336V135.908H78.5781V135.029H80.4336V132.178H81.5078V141.016ZM90.8145 139.98H82.748V139.082H86.2246V137.646H83.7051V134.756H88.7832V133.662H83.6855V132.783H89.8574V135.615H84.7891V136.758H90.0625V137.646H87.2988V139.082H90.8145V139.98ZM96.9375 133.984C96.9375 134.307 97.0173 134.616 97.1768 134.912C97.3363 135.208 97.5739 135.472 97.8896 135.703C98.2054 135.934 98.5879 136.11 99.0371 136.23L98.5488 137.061C98.0475 136.93 97.6146 136.727 97.25 136.45C96.8887 136.17 96.6071 135.838 96.4053 135.454C96.2067 135.874 95.9219 136.237 95.5508 136.543C95.1829 136.849 94.7435 137.077 94.2324 137.227L93.7148 136.367C94.1673 136.247 94.5547 136.066 94.877 135.825C95.1992 135.584 95.4417 135.304 95.6045 134.985C95.7705 134.666 95.8535 134.333 95.8535 133.984V133.955H94.0078V133.096H95.8535V132.139H96.9473V133.096H98.7832V133.955H96.9375V133.984ZM100.727 134.229H101.957V135.127H100.727V137.236H99.6426V132.178H100.727V134.229ZM100.854 138.516H98.5195C98.5879 138.763 98.7409 138.997 98.9785 139.219C99.2194 139.44 99.5319 139.634 99.916 139.8C100.3 139.963 100.736 140.078 101.225 140.146L100.834 140.977C100.15 140.879 99.5547 140.692 99.0469 140.415C98.5391 140.138 98.1549 139.797 97.8945 139.39C97.6374 139.79 97.2565 140.127 96.752 140.4C96.2507 140.674 95.6615 140.859 94.9844 140.957L94.584 140.137C95.0788 140.068 95.5166 139.954 95.8975 139.795C96.2816 139.635 96.5908 139.447 96.8252 139.229C97.0628 139.007 97.2158 138.77 97.2842 138.516H94.9453V137.646H100.854V138.516ZM109.555 135.537H103.441V132.5H104.516V134.678H109.555V135.537ZM110.463 137.422H102.396V136.562H110.463V137.422ZM109.613 140.801H103.363V138.203H104.447V139.922H109.613V140.801ZM116.898 138.335C117.745 138.286 118.5 138.213 119.164 138.115L119.252 138.916C118.376 139.076 117.481 139.18 116.566 139.229C115.655 139.274 114.665 139.297 113.598 139.297L113.461 138.418C114.486 138.411 115.271 138.4 115.814 138.384V136.904H116.898V138.335ZM118.803 134.141H116.913C116.933 134.46 117.027 134.761 117.196 135.044C117.366 135.324 117.608 135.571 117.924 135.786C118.24 135.998 118.614 136.159 119.047 136.27L118.549 137.119C118.035 136.979 117.592 136.764 117.221 136.475C116.85 136.185 116.562 135.84 116.356 135.439C116.161 135.863 115.878 136.226 115.507 136.528C115.139 136.828 114.698 137.048 114.184 137.188L113.666 136.367C114.102 136.247 114.475 136.076 114.784 135.854C115.097 135.633 115.338 135.376 115.507 135.083C115.676 134.79 115.771 134.476 115.79 134.141H113.93V133.262H115.814V132.256H116.898V133.262H118.803V134.141ZM120.775 141.016H119.691V132.178H120.775V141.016ZM125.307 133.691C125.307 134.056 125.386 134.411 125.546 134.756C125.705 135.098 125.941 135.405 126.254 135.679C126.566 135.949 126.944 136.159 127.387 136.309L126.84 137.148C126.358 136.992 125.941 136.756 125.59 136.44C125.242 136.125 124.968 135.755 124.77 135.332C124.571 135.804 124.288 136.216 123.92 136.567C123.552 136.916 123.113 137.174 122.602 137.344L122.045 136.484C122.501 136.335 122.89 136.117 123.212 135.83C123.537 135.54 123.783 135.212 123.949 134.844C124.118 134.473 124.203 134.092 124.203 133.701V133.584H122.367V132.715H127.133V133.584H125.307V133.691ZM129.457 141.006H128.373V138.73H123.441V137.861H129.457V141.006ZM129.457 137.441H128.373V135.254H126.869V134.365H128.373V132.178H129.457V137.441ZM137.055 137.695C137.693 137.699 138.246 137.767 138.715 137.9C139.184 138.031 139.545 138.219 139.799 138.467C140.056 138.714 140.186 139.01 140.189 139.355C140.186 139.694 140.056 139.985 139.799 140.229C139.545 140.477 139.182 140.666 138.71 140.796C138.241 140.929 137.689 140.996 137.055 140.996C136.423 140.996 135.871 140.929 135.399 140.796C134.931 140.666 134.568 140.477 134.311 140.229C134.057 139.985 133.93 139.694 133.93 139.355C133.93 139.01 134.057 138.714 134.311 138.467C134.568 138.219 134.931 138.031 135.399 137.9C135.868 137.767 136.42 137.699 137.055 137.695ZM137.055 138.516C136.417 138.516 135.917 138.589 135.556 138.735C135.198 138.882 135.02 139.089 135.023 139.355C135.02 139.613 135.198 139.811 135.556 139.951C135.914 140.088 136.413 140.156 137.055 140.156C137.699 140.156 138.202 140.088 138.563 139.951C138.928 139.811 139.112 139.613 139.115 139.355C139.112 139.089 138.928 138.882 138.563 138.735C138.202 138.589 137.699 138.516 137.055 138.516ZM140.131 133.33C140.131 133.799 140.116 134.206 140.087 134.551C140.061 134.896 139.994 135.27 139.887 135.674L138.812 135.576C138.91 135.189 138.974 134.839 139.003 134.526C139.032 134.211 139.047 133.854 139.047 133.457H134.018V132.598H140.131V133.33ZM141.107 137.061H133.1V136.182H136.205V134.58H137.279V136.182H141.107V137.061ZM148.93 133.838V133.945C148.926 134.434 148.917 134.858 148.9 135.22C148.887 135.578 148.856 135.994 148.808 136.47C148.759 136.942 148.682 137.454 148.578 138.008L147.484 137.891C147.589 137.376 147.665 136.891 147.714 136.436C147.763 135.977 147.794 135.57 147.807 135.215C147.823 134.86 147.833 134.443 147.836 133.965V133.857H142.562V132.988H148.93V133.838ZM149.77 139.863H141.723V138.975H144.691V135.908H145.766V138.975H149.77V139.863Z" fill="#474748"/>
</g>
<defs>
<filter id="filter0_n_4149_26155" x="83.9531" y="14.0645" width="101.227" height="106.966" filterUnits="userSpaceOnUse" color-interpolation-filters="sRGB">
<feFlood flood-opacity="0" result="BackgroundImageFix"/>
<feBlend mode="normal" in="SourceGraphic" in2="BackgroundImageFix" result="shape"/>
<feTurbulence type="fractalNoise" baseFrequency="3.066615104675293 3.066615104675293" stitchTiles="stitch" numOctaves="3" result="noise" seed="36" />
<feColorMatrix in="noise" type="luminanceToAlpha" result="alphaNoise" />
<feComponentTransfer in="alphaNoise" result="coloredNoise1">
<feFuncA type="discrete" tableValues="1 1 1 1 1 1 1 1 1 1 1 1 1 1 1 1 1 1 1 1 1 1 1 1 1 1 1 1 1 1 1 1 1 1 1 1 1 1 1 1 1 1 1 1 1 1 1 1 1 1 1 0 0 0 0 0 0 0 0 0 0 0 0 0 0 0 0 0 0 0 0 0 0 0 0 0 0 0 0 0 0 0 0 0 0 0 0 0 0 0 0 0 0 0 0 0 0 0 0 0 "/>
</feComponentTransfer>
<feComposite operator="in" in2="shape" in="coloredNoise1" result="noise1Clipped" />
<feFlood flood-color="#C1AFFF" result="color1Flood" />
<feComposite operator="in" in2="noise1Clipped" in="color1Flood" result="color1" />
<feMerge result="effect1_noise_4149_26155">
<feMergeNode in="shape" />
<feMergeNode in="color1" />
</feMerge>
</filter>
<filter id="filter1_n_4149_26155" x="141.188" y="79.8438" width="34.7422" height="38.7969" filterUnits="userSpaceOnUse" color-interpolation-filters="sRGB">
<feFlood flood-opacity="0" result="BackgroundImageFix"/>
<feBlend mode="normal" in="SourceGraphic" in2="BackgroundImageFix" result="shape"/>
<feTurbulence type="fractalNoise" baseFrequency="3.066615104675293 3.066615104675293" stitchTiles="stitch" numOctaves="3" result="noise" seed="2798" />
<feColorMatrix in="noise" type="luminanceToAlpha" result="alphaNoise" />
<feComponentTransfer in="alphaNoise" result="coloredNoise1">
<feFuncA type="discrete" tableValues="1 1 1 1 1 1 1 1 1 1 1 1 1 1 1 1 1 1 1 1 1 1 1 1 1 1 1 1 1 1 1 1 1 1 1 1 1 1 1 1 1 1 1 1 1 1 1 1 1 1 1 0 0 0 0 0 0 0 0 0 0 0 0 0 0 0 0 0 0 0 0 0 0 0 0 0 0 0 0 0 0 0 0 0 0 0 0 0 0 0 0 0 0 0 0 0 0 0 0 0 "/>
</feComponentTransfer>
<feComposite operator="in" in2="shape" in="coloredNoise1" result="noise1Clipped" />
<feFlood flood-color="rgba(169, 67, 237, 0.25)" result="color1Flood" />
<feComposite operator="in" in2="noise1Clipped" in="color1Flood" result="color1" />
<feMerge result="effect1_noise_4149_26155">
<feMergeNode in="shape" />
<feMergeNode in="color1" />
</feMerge>
</filter>
<linearGradient id="paint0_linear_4149_26155" x1="-51.2589" y1="100" x2="290.294" y2="100" gradientUnits="userSpaceOnUse">
<stop offset="0.0845162" stop-color="#F7F1FB"/>
<stop offset="0.517107" stop-color="#EBDCF5"/>
<stop offset="0.968809" stop-color="#EBDCF5"/>
</linearGradient>
<linearGradient id="paint1_linear_4149_26155" x1="31.0593" y1="-1.67797" x2="253.314" y2="159.636" gradientUnits="userSpaceOnUse">
<stop stop-color="white"/>
<stop offset="1" stop-color="white"/>
</linearGradient>
<linearGradient id="paint2_linear_4149_26155" x1="61.6808" y1="19.791" x2="220.884" y2="135.342" gradientUnits="userSpaceOnUse">
<stop stop-color="white"/>
<stop offset="1" stop-color="white"/>
</linearGradient>
<linearGradient id="paint3_linear_4149_26155" x1="139.5" y1="7" x2="221.2" y2="182.433" gradientUnits="userSpaceOnUse">
<stop stop-color="white"/>
<stop offset="1" stop-color="white" stop-opacity="0.2"/>
</linearGradient>
<linearGradient id="paint4_linear_4149_26155" x1="75.9502" y1="-62.1531" x2="152.201" y2="103.459" gradientUnits="userSpaceOnUse">
<stop stop-color="#EED5FF"/>
<stop offset="1" stop-color="#C671FF"/>
</linearGradient>
<linearGradient id="paint5_linear_4149_26155" x1="168.958" y1="109.974" x2="155.73" y2="94.1854" gradientUnits="userSpaceOnUse">
<stop offset="0.176189" stop-color="#DEADFF"/>
<stop offset="0.762689" stop-color="#7951FF"/>
</linearGradient>
<linearGradient id="paint6_linear_4149_26155" x1="135" y1="112" x2="135" y2="200" gradientUnits="userSpaceOnUse">
<stop stop-color="#D4A6FF" stop-opacity="0"/>
<stop offset="1" stop-color="#D4A6FF" stop-opacity="0.6"/>
</linearGradient>
<clipPath id="clip0_4149_26155">
<rect width="272" height="200" rx="8" fill="white"/>
</clipPath>
</defs>
</svg>
