<svg width="788" height="238" viewBox="0 0 788 238" fill="none" xmlns="http://www.w3.org/2000/svg">
<g clip-path="url(#clip0_4149_26129)">
<rect width="788" height="238" rx="8" fill="url(#paint0_linear_4149_26129)"/>
<rect width="788" height="238" rx="8" fill="url(#paint1_linear_4149_26129)"/>
<rect opacity="0.1" x="144" y="173" width="100" height="26" fill="#7951FF"/>
<circle opacity="0.3" cx="584.5" cy="121.5" r="243.5" fill="url(#paint2_linear_4149_26129)" fill-opacity="0.5"/>
<circle opacity="0.4" cx="584.5" cy="121.5" r="174.5" fill="url(#paint3_linear_4149_26129)" fill-opacity="0.5"/>
<circle opacity="0.8" cx="585" cy="121" r="115" fill="url(#paint4_linear_4149_26129)" fill-opacity="0.5"/>
<path d="M44.8867 160.273C40.5391 160.273 37.4219 157.881 37.3398 154.422H41.4961C41.5645 155.898 43 156.869 44.9141 156.883C46.8828 156.869 48.291 155.775 48.2773 154.176C48.291 152.562 46.8555 151.428 44.5312 151.414H42.6992V148.379H44.5312C46.4863 148.379 47.8535 147.312 47.8398 145.754C47.8535 144.236 46.6914 143.197 44.9414 143.211C43.1914 143.197 41.7559 144.182 41.6875 145.699H37.75C37.8184 142.295 40.8809 139.93 44.9414 139.93C49.0703 139.93 51.8184 142.377 51.8047 145.508C51.8184 147.723 50.2734 149.295 48.0586 149.691V149.855C50.9707 150.211 52.5703 151.975 52.543 154.449C52.5703 157.84 49.3574 160.273 44.8867 160.273ZM77.3984 156.828V159.672H54.6211V156.828H64.2461V151.961H67.7188V156.828H77.3984ZM55.3867 150.102C61.0605 149.418 63.877 146.602 64.1914 143.84H56.5898V141.051H64.2461V137.934H67.7188V141.051H75.4023V143.84H67.8008C68.0879 146.602 70.918 149.418 76.5781 150.102L75.3203 152.809C70.8633 152.234 67.6504 150.389 65.9688 147.818C64.3145 150.389 61.1152 152.234 56.6719 152.809L55.3867 150.102ZM91.5078 139.684V151.633H79.5586V139.684H91.5078ZM82.4297 162.078V154.012H85.9023V159.289H99.4648V162.078H82.4297ZM83.0039 148.898H88.0625V142.473H83.0039V148.898ZM95.0625 155.789V137.633H98.5625V144.797H101.926V147.668H98.5625V155.789H95.0625ZM124.594 137.633V162.516H121.258V137.633H124.594ZM103.238 148.406C103.238 142.842 105.357 139.396 108.652 139.41C111.646 139.396 113.697 142.199 114.08 146.848H116.117V137.988H119.398V161.367H116.117V149.609H114.107C113.807 154.49 111.715 157.457 108.652 157.457C105.357 157.457 103.238 153.998 103.238 148.406ZM106.465 148.406C106.438 152.234 107.258 154.121 108.652 154.094C110.088 154.121 110.936 152.234 110.922 148.406C110.936 144.592 110.088 142.691 108.652 142.691C107.258 142.691 106.438 144.592 106.465 148.406ZM140.617 138.699C143.789 138.672 146.318 140.49 147.002 143.156H151.172V137.633H154.645V151.004H151.172V145.945H147.016C146.373 148.68 143.816 150.539 140.617 150.539C136.789 150.539 133.973 148.051 134 144.578C133.973 141.174 136.789 138.672 140.617 138.699ZM137.309 144.578C137.295 146.438 138.662 147.613 140.617 147.613C142.504 147.613 143.857 146.438 143.871 144.578C143.857 142.719 142.504 141.584 140.617 141.598C138.662 141.584 137.295 142.719 137.309 144.578ZM138.047 162.242V152.098H141.492V154.504H151.172V152.098H154.645V162.242H138.047ZM141.492 159.426H151.172V157.184H141.492V159.426ZM180.648 156.883V159.754H157.871V156.883H167.469V153.137H160.496V144.77H174.578V142.035H160.469V139.246H178.023V147.504H163.996V150.293H178.598V153.137H170.941V156.883H180.648ZM202.359 149.145V151.934H184.75V139.711H202.168V142.527H188.195V149.145H202.359ZM182.07 159.48V156.609H204.848V159.48H182.07ZM225.902 137.633V147.367H229.566V150.238H225.902V162.516H222.457V137.633H225.902ZM206.133 144.141V141.352H211.766V138.016H215.266V141.352H220.762V144.141H206.133ZM207.145 151.469C207.131 147.996 209.838 145.521 213.516 145.535C217.139 145.521 219.859 147.996 219.859 151.469C219.859 154.941 217.139 157.389 213.516 157.402C209.838 157.389 207.131 154.941 207.145 151.469ZM210.48 151.469C210.48 153.396 211.752 154.545 213.516 154.531C215.252 154.545 216.523 153.396 216.523 151.469C216.523 149.555 215.252 148.379 213.516 148.352C211.752 148.379 210.48 149.555 210.48 151.469ZM250.977 139.793V142.145C250.963 145.262 250.963 148.762 249.965 154.039L246.465 153.684C247.422 148.98 247.463 145.48 247.477 142.555H232.82V139.793H250.977ZM230.469 159.48V156.637H238.59V148.078H242.062V156.637H253.164V159.48H230.469ZM46.3906 180.414C46.377 184.434 48.4551 188.74 52.625 190.477L50.7383 193.211C47.8125 191.967 45.7891 189.492 44.668 186.484C43.5469 189.752 41.4824 192.486 38.543 193.84L36.5469 191.078C40.6758 189.232 42.8086 184.625 42.8086 180.414V178.883H37.5312V176.039H51.5859V178.883H46.3906V180.414ZM54.0469 198.516V173.633H57.5742V198.516H54.0469ZM81.0078 174.754V176.75C81.0215 178.691 81.0215 180.838 80.4199 183.695H83.7148V186.512H60.9375V183.695H76.9062C77.4395 181.221 77.5078 179.293 77.5352 177.543H63.7266V174.754H81.0078ZM63.6445 198.242V189.137H80.9258V198.242H63.6445ZM67.0625 195.453H77.4531V191.871H67.0625V195.453ZM111.223 173.633V182.93H114.887V185.855H111.223V198.516H107.723V173.633H111.223ZM92.3828 192.746V175.602H95.8555V181.672H101.023V175.602H104.496V192.746H92.3828ZM95.8555 189.93H101.023V184.379H95.8555V189.93ZM138.566 192.883V195.754H115.789V192.883H125.387V189.137H118.414V180.77H132.496V178.035H118.387V175.246H135.941V183.504H121.914V186.293H136.516V189.137H128.859V192.883H138.566ZM265.988 184.789V187.387H243.211V184.789H265.988ZM245.809 191.023V188.617H263.254V194.496H249.309V195.918H263.992V198.297H245.836V192.281H259.809V191.023H245.809ZM246 176.449V174.07H263.227V179.922H249.527V181.262H263.664V183.613H246.055V177.707H259.727V176.449H246ZM293.797 173.66V180.77H296.969V183.641H293.797V190.559H290.297V173.66H293.797ZM273.617 187.359C275.436 187.359 277.5 187.359 279.66 187.305V185.91C276.953 185.527 275.271 184.201 275.285 182.301C275.271 179.99 277.691 178.568 281.383 178.582C285.047 178.568 287.467 179.99 287.48 182.301C287.467 184.201 285.799 185.514 283.133 185.896V187.182C285.184 187.072 287.234 186.922 289.148 186.676L289.395 189.082C284.131 190.012 278.361 190.066 273.973 190.066L273.617 187.359ZM274.273 178.008V175.465H279.66V173.441H283.133V175.465H288.52V178.008H274.273ZM276.789 194.25V191.57H293.797V198.516H290.297V194.25H276.789ZM278.621 182.301C278.607 183.203 279.605 183.736 281.383 183.723C283.133 183.736 284.131 183.203 284.145 182.301C284.131 181.33 283.133 180.906 281.383 180.906C279.605 180.906 278.607 181.33 278.621 182.301ZM318.926 173.66V191.543H315.426V173.66H318.926ZM298.473 181.508C298.473 177.857 301.453 175.232 305.281 175.246C309.096 175.232 312.076 177.857 312.09 181.508C312.076 185.213 309.096 187.824 305.281 187.824C301.453 187.824 298.473 185.213 298.473 181.508ZM301.891 181.508C301.863 183.586 303.326 184.789 305.281 184.789C307.168 184.789 308.631 183.586 308.645 181.508C308.631 179.484 307.168 178.268 305.281 178.281C303.326 178.268 301.863 179.484 301.891 181.508ZM302.246 198.078V189.738H305.773V195.289H319.582V198.078H302.246ZM341.922 173.633V183.367H345.586V186.238H341.922V198.516H338.477V173.633H341.922ZM322.152 180.141V177.352H327.785V174.016H331.285V177.352H336.781V180.141H322.152ZM323.164 187.469C323.15 183.996 325.857 181.521 329.535 181.535C333.158 181.521 335.879 183.996 335.879 187.469C335.879 190.941 333.158 193.389 329.535 193.402C325.857 193.389 323.15 190.941 323.164 187.469ZM326.5 187.469C326.5 189.396 327.771 190.545 329.535 190.531C331.271 190.545 332.543 189.396 332.543 187.469C332.543 185.555 331.271 184.379 329.535 184.352C327.771 184.379 326.5 185.555 326.5 187.469ZM354.473 179.895C354.459 183.928 355.58 188.084 358.984 190.258L357.098 192.965C354.938 191.666 353.584 189.506 352.791 186.963C351.902 189.779 350.412 192.145 348.156 193.512L346.023 190.941C349.715 188.658 351.082 184.27 351.082 180.059V175.766H354.473V179.895ZM356.359 184.871V182.027H359.586V173.988H362.84V197.367H359.586V184.871H356.359ZM364.727 198.516V173.633H368.062V198.516H364.727ZM393.465 192.746V195.617H370.688V192.746H375.773V186.648C373.846 185.486 372.684 183.723 372.684 181.535C372.684 177.502 376.621 174.85 382.035 174.836C387.422 174.85 391.4 177.502 391.414 181.535C391.4 183.682 390.279 185.418 388.406 186.58V192.746H393.465ZM376.129 181.535C376.129 183.969 378.467 185.473 382.035 185.473C385.549 185.473 387.955 183.969 387.969 181.535C387.955 179.033 385.549 177.584 382.035 177.598C378.467 177.584 376.129 179.033 376.129 181.535ZM379.219 192.746H384.879V187.906C383.99 188.084 383.033 188.18 382.035 188.18C381.037 188.18 380.094 188.084 379.219 187.92V192.746ZM400.547 176.203L400.191 190.066H396.691L396.336 176.203H400.547ZM396.172 193.949C396.145 192.691 397.184 191.666 398.469 191.68C399.686 191.666 400.738 192.691 400.738 193.949C400.738 195.221 399.686 196.246 398.469 196.246C397.184 196.246 396.145 195.221 396.172 193.949Z" fill="black"/>
<path d="M159.129 175.246V186.156H147.18V175.246H159.129ZM148.656 195.754C153.127 195.207 155.561 193.43 156.121 191.516H149.723V188.754H166.484V191.516H160.113C160.688 193.375 163.162 195.221 167.578 195.809L166.348 198.461C162.355 197.928 159.539 196.342 158.104 194.209C156.682 196.342 153.893 197.9 149.914 198.406L148.656 195.754ZM150.625 183.395H155.684V178.008H150.625V183.395ZM162.684 187.578V173.633H166.184V179.047H169.547V181.891H166.184V187.578H162.684ZM193.336 185.582V188.344H183.684V190.258H190.629V198.242H173.266V190.258H180.238V188.344H170.641V185.582H193.336ZM171.598 182.082C176.998 181.768 179.486 180.209 179.938 178.5H172.828V175.766H180.238V173.633H183.684V175.766H191.148V178.5H183.971C184.422 180.209 186.965 181.768 192.324 182.082L191.312 184.652C186.705 184.338 183.52 183.08 181.961 181.125C180.389 183.08 177.203 184.338 172.609 184.652L171.598 182.082ZM176.711 195.453H187.211V193.02H176.711V195.453ZM206.051 189.137C211.492 189.137 214.91 190.859 214.938 193.84C214.91 196.779 211.492 198.529 206.051 198.516C200.65 198.529 197.178 196.779 197.191 193.84C197.178 190.859 200.65 189.137 206.051 189.137ZM194.895 187.551V184.734H203.371V180.387H206.816V184.734H217.48V187.551H194.895ZM197.438 177.488V174.754H214.801V176.777C214.814 178.76 214.814 180.893 214.09 183.449L210.672 183.121C211.232 180.865 211.301 179.184 211.328 177.488H197.438ZM200.664 193.84C200.65 195.18 202.619 195.863 206.051 195.863C209.482 195.863 211.465 195.18 211.465 193.84C211.465 192.459 209.482 191.721 206.051 191.734C202.619 191.721 200.65 192.459 200.664 193.84ZM239.547 175.793V178.145C239.533 181.262 239.533 184.762 238.535 190.039L235.035 189.684C235.992 184.98 236.033 181.48 236.047 178.555H221.391V175.793H239.547ZM219.039 195.48V192.637H227.16V184.078H230.633V192.637H241.734V195.48H219.039Z" fill="#7951FF"/>
<path opacity="0.8" d="M50.168 122.676H48.2871V114.643H46.5293V121.867H44.7012V107.084H46.5293V113.043H48.2871V106.785H50.168V122.676ZM39.1816 116.998C40.7871 116.969 42.2988 116.811 43.7168 116.523L43.9102 118.229C42.9023 118.41 41.9414 118.539 41.0273 118.615C40.1133 118.686 39.1934 118.721 38.2676 118.721H37.2129V108.613H39.1816V116.998ZM62.0508 111.303C62.0508 112.135 62.209 112.973 62.5254 113.816C62.8477 114.66 63.3076 115.428 63.9053 116.119C64.5088 116.811 65.2148 117.344 66.0234 117.719L64.9336 119.266C64.0605 118.855 63.2959 118.255 62.6396 117.464C61.9834 116.667 61.4707 115.756 61.1016 114.73C60.7324 115.85 60.208 116.843 59.5283 117.71C58.8486 118.577 58.0605 119.225 57.1641 119.652L56.0215 118.123C56.8359 117.736 57.5508 117.177 58.166 116.444C58.7871 115.712 59.2617 114.895 59.5898 113.992C59.9238 113.09 60.0938 112.193 60.0996 111.303V109.967H56.6367V108.35H65.373V109.967H62.0508V111.303ZM68.8008 112.973H71.2441V114.607H68.8008V122.676H66.8496V106.785H68.8008V112.973ZM86.4316 120.707H71.9121V119.125H78.1348V115.451H80.0684V119.125H86.4316V120.707ZM80.1211 108.912C80.1211 109.709 80.3672 110.482 80.8594 111.232C81.3574 111.982 82.043 112.627 82.916 113.166C83.7949 113.699 84.7793 114.051 85.8691 114.221L85.0254 115.838C83.6836 115.586 82.4883 115.097 81.4395 114.37C80.3965 113.638 79.6113 112.753 79.084 111.716C78.7324 112.401 78.2637 113.028 77.6777 113.597C77.0918 114.159 76.415 114.634 75.6475 115.021C74.8799 115.401 74.0566 115.674 73.1777 115.838L72.334 114.221C73.4121 114.051 74.3848 113.699 75.252 113.166C76.125 112.627 76.8076 111.982 77.2998 111.232C77.792 110.477 78.041 109.703 78.0469 108.912V107.752H80.1211V108.912ZM93.3398 110.6C93.3398 111.596 93.4922 112.56 93.7969 113.491C94.1074 114.417 94.5586 115.237 95.1504 115.952C95.748 116.667 96.457 117.203 97.2773 117.561L96.0996 119.125C95.2207 118.697 94.4619 118.082 93.8232 117.279C93.1904 116.477 92.7012 115.545 92.3555 114.484C91.998 115.609 91.4941 116.6 90.8438 117.455C90.1992 118.311 89.4316 118.967 88.541 119.424L87.3105 117.842C88.1484 117.449 88.8691 116.875 89.4727 116.119C90.082 115.363 90.5449 114.505 90.8613 113.544C91.1836 112.583 91.3477 111.602 91.3535 110.6V108.068H93.3398V110.6ZM100.793 122.693H98.8594V113.5H95.5195V111.918H98.8594V106.785H100.793V122.693ZM104.66 123.027H102.691L106.805 107.787H108.756L104.66 123.027ZM122.695 122.693H120.727V106.785H122.695V122.693ZM114.135 107.945C114.932 107.945 115.641 108.177 116.262 108.64C116.889 109.097 117.381 109.75 117.738 110.6C118.096 111.443 118.277 112.428 118.283 113.553C118.277 114.684 118.096 115.674 117.738 116.523C117.387 117.373 116.897 118.029 116.271 118.492C115.644 118.949 114.932 119.178 114.135 119.178C113.332 119.178 112.617 118.949 111.99 118.492C111.363 118.029 110.871 117.373 110.514 116.523C110.162 115.674 109.986 114.684 109.986 113.553C109.986 112.428 110.162 111.443 110.514 110.6C110.871 109.75 111.363 109.097 111.99 108.64C112.617 108.177 113.332 107.945 114.135 107.945ZM114.135 109.703C113.684 109.703 113.285 109.855 112.939 110.16C112.6 110.465 112.336 110.907 112.148 111.487C111.961 112.067 111.867 112.756 111.867 113.553C111.867 114.355 111.961 115.047 112.148 115.627C112.336 116.207 112.6 116.652 112.939 116.963C113.285 117.268 113.684 117.42 114.135 117.42C114.58 117.42 114.973 117.268 115.312 116.963C115.652 116.652 115.916 116.207 116.104 115.627C116.291 115.047 116.385 114.355 116.385 113.553C116.385 112.756 116.291 112.07 116.104 111.496C115.916 110.916 115.652 110.474 115.312 110.169C114.973 109.858 114.58 109.703 114.135 109.703ZM132.627 112.516H127.617V114.467H127.969C129.164 114.467 130.157 114.44 130.948 114.388C131.739 114.329 132.527 114.227 133.312 114.08L133.506 115.662C132.604 115.814 131.681 115.914 130.737 115.961C129.8 116.008 128.502 116.031 126.844 116.031H125.684V111.057H130.676V109.281H125.648V107.734H132.627V112.516ZM138.34 116.576H136.389V113.957H133.576V112.393H136.389V110.617H133.576V109.053H136.389V106.803H138.34V116.576ZM138.34 122.676H136.389V118.896H127.477V117.332H138.34V122.676ZM146.461 110.6C146.461 111.596 146.613 112.56 146.918 113.491C147.229 114.417 147.68 115.237 148.271 115.952C148.869 116.667 149.578 117.203 150.398 117.561L149.221 119.125C148.342 118.697 147.583 118.082 146.944 117.279C146.312 116.477 145.822 115.545 145.477 114.484C145.119 115.609 144.615 116.6 143.965 117.455C143.32 118.311 142.553 118.967 141.662 119.424L140.432 117.842C141.27 117.449 141.99 116.875 142.594 116.119C143.203 115.363 143.666 114.505 143.982 113.544C144.305 112.583 144.469 111.602 144.475 110.6V108.068H146.461V110.6ZM153.914 122.693H151.98V113.5H148.641V111.918H151.98V106.785H153.914V122.693ZM170.666 120.83H156.146V119.213H162.404V116.629H157.869V111.426H167.01V109.457H157.834V107.875H168.943V112.973H159.82V115.029H169.312V116.629H164.338V119.213H170.666V120.83ZM181.688 110.037C181.688 110.617 181.831 111.174 182.118 111.707C182.405 112.24 182.833 112.715 183.401 113.131C183.97 113.547 184.658 113.863 185.467 114.08L184.588 115.574C183.686 115.34 182.906 114.974 182.25 114.476C181.6 113.972 181.093 113.374 180.729 112.683C180.372 113.438 179.859 114.092 179.191 114.643C178.529 115.193 177.738 115.604 176.818 115.873L175.887 114.326C176.701 114.109 177.398 113.784 177.979 113.351C178.559 112.917 178.995 112.413 179.288 111.839C179.587 111.265 179.736 110.664 179.736 110.037V109.984H176.414V108.438H179.736V106.715H181.705V108.438H185.01V109.984H181.688V110.037ZM188.508 110.477H190.723V112.094H188.508V115.891H186.557V106.785H188.508V110.477ZM188.736 118.193H184.535C184.658 118.639 184.934 119.061 185.361 119.459C185.795 119.857 186.357 120.206 187.049 120.505C187.74 120.798 188.525 121.006 189.404 121.129L188.701 122.623C187.471 122.447 186.398 122.11 185.484 121.612C184.57 121.114 183.879 120.499 183.41 119.767C182.947 120.487 182.262 121.094 181.354 121.586C180.451 122.078 179.391 122.412 178.172 122.588L177.451 121.111C178.342 120.988 179.13 120.783 179.815 120.496C180.507 120.209 181.063 119.869 181.485 119.477C181.913 119.078 182.188 118.65 182.312 118.193H178.102V116.629H188.736V118.193ZM204.398 112.832H193.395V107.365H195.328V111.285H204.398V112.832ZM206.033 116.225H191.514V114.678H206.033V116.225ZM204.504 122.307H193.254V117.631H195.205V120.725H204.504V122.307ZM217.617 117.868C219.141 117.78 220.5 117.648 221.695 117.473L221.854 118.914C220.277 119.201 218.666 119.389 217.02 119.477C215.379 119.559 213.598 119.6 211.676 119.6L211.43 118.018C213.275 118.006 214.688 117.985 215.666 117.956V115.293H217.617V117.868ZM221.045 110.318H217.644C217.679 110.893 217.849 111.435 218.153 111.944C218.458 112.448 218.895 112.894 219.463 113.28C220.031 113.661 220.705 113.951 221.484 114.15L220.588 115.68C219.662 115.428 218.865 115.041 218.197 114.52C217.529 113.998 217.011 113.377 216.642 112.656C216.29 113.418 215.78 114.071 215.112 114.616C214.45 115.155 213.656 115.551 212.73 115.803L211.799 114.326C212.584 114.109 213.255 113.802 213.812 113.403C214.374 113.005 214.808 112.542 215.112 112.015C215.417 111.487 215.587 110.922 215.622 110.318H212.273V108.736H215.666V106.926H217.617V108.736H221.045V110.318ZM224.596 122.693H222.645V106.785H224.596V122.693ZM232.752 109.51C232.752 110.166 232.896 110.805 233.183 111.426C233.47 112.041 233.895 112.595 234.457 113.087C235.02 113.573 235.699 113.951 236.496 114.221L235.512 115.732C234.645 115.451 233.895 115.026 233.262 114.458C232.635 113.89 232.143 113.225 231.785 112.463C231.428 113.312 230.918 114.054 230.256 114.687C229.594 115.313 228.803 115.779 227.883 116.084L226.881 114.537C227.701 114.268 228.401 113.875 228.981 113.359C229.567 112.838 230.01 112.246 230.309 111.584C230.613 110.916 230.766 110.23 230.766 109.527V109.316H227.461V107.752H236.039V109.316H232.752V109.51ZM240.223 122.676H238.271V118.58H229.395V117.016H240.223V122.676ZM240.223 116.26H238.271V112.322H235.564V110.723H238.271V106.785H240.223V116.26ZM253.898 116.717C255.047 116.723 256.043 116.846 256.887 117.086C257.73 117.32 258.381 117.66 258.838 118.105C259.301 118.551 259.535 119.084 259.541 119.705C259.535 120.314 259.301 120.839 258.838 121.278C258.381 121.724 257.728 122.063 256.878 122.298C256.034 122.538 255.041 122.658 253.898 122.658C252.762 122.658 251.769 122.538 250.919 122.298C250.075 122.063 249.422 121.724 248.959 121.278C248.502 120.839 248.273 120.314 248.273 119.705C248.273 119.084 248.502 118.551 248.959 118.105C249.422 117.66 250.075 117.32 250.919 117.086C251.763 116.846 252.756 116.723 253.898 116.717ZM253.898 118.193C252.75 118.193 251.851 118.325 251.2 118.589C250.556 118.853 250.236 119.225 250.242 119.705C250.236 120.168 250.556 120.525 251.2 120.777C251.845 121.023 252.744 121.146 253.898 121.146C255.059 121.146 255.964 121.023 256.614 120.777C257.271 120.525 257.602 120.168 257.607 119.705C257.602 119.225 257.271 118.853 256.614 118.589C255.964 118.325 255.059 118.193 253.898 118.193ZM259.436 108.859C259.436 109.703 259.409 110.436 259.356 111.057C259.31 111.678 259.189 112.352 258.996 113.078L257.062 112.902C257.238 112.205 257.353 111.575 257.405 111.013C257.458 110.444 257.484 109.803 257.484 109.088H248.432V107.541H259.436V108.859ZM261.193 115.574H246.779V113.992H252.369V111.109H254.303V113.992H261.193V115.574ZM275.273 109.773V109.967C275.268 110.846 275.25 111.61 275.221 112.261C275.197 112.905 275.142 113.655 275.054 114.511C274.966 115.36 274.828 116.283 274.641 117.279L272.672 117.068C272.859 116.143 272.997 115.27 273.085 114.449C273.173 113.623 273.229 112.891 273.252 112.252C273.281 111.613 273.299 110.863 273.305 110.002V109.809H263.812V108.244H275.273V109.773ZM276.785 120.619H262.301V119.02H267.645V113.5H269.578V119.02H276.785V120.619Z" fill="#474748"/>
<rect x="409" y="130.742" width="113.025" height="36.1487" rx="18.0744" fill="white"/>
<path d="M434.516 151.493H432.16L431.7 154.316H430.205L430.665 151.493H429.133L429.374 150.013H430.914L431.292 147.687H429.767L430.008 146.208H431.541L432.002 143.384H433.496L433.036 146.208H435.392L435.852 143.384H437.332L436.871 146.208H438.419L438.162 147.687H436.622L436.245 150.013H437.785L437.543 151.493H435.996L435.535 154.316H434.055L434.516 151.493ZM434.765 150.013L435.142 147.687H432.787L432.409 150.013H434.765ZM443.417 154.467C442.647 154.467 441.958 154.337 441.349 154.075C440.74 153.813 440.261 153.448 439.914 152.98C439.567 152.507 439.386 151.966 439.37 151.357H441.349C441.369 151.644 441.469 151.898 441.651 152.119C441.837 152.336 442.083 152.504 442.39 152.625C442.698 152.746 443.04 152.806 443.417 152.806C443.815 152.806 444.17 152.738 444.482 152.603C444.799 152.462 445.046 152.268 445.222 152.021C445.398 151.775 445.486 151.493 445.486 151.176C445.486 150.848 445.395 150.556 445.214 150.3C445.033 150.043 444.771 149.844 444.429 149.703C444.087 149.557 443.684 149.484 443.221 149.484H442.239V147.974H443.221C443.604 147.974 443.943 147.909 444.24 147.778C444.542 147.642 444.776 147.453 444.942 147.212C445.108 146.965 445.189 146.686 445.184 146.374C445.189 146.072 445.119 145.805 444.973 145.573C444.832 145.337 444.628 145.156 444.361 145.03C444.094 144.899 443.785 144.834 443.432 144.834C443.09 144.834 442.77 144.896 442.474 145.022C442.182 145.143 441.945 145.317 441.764 145.543C441.588 145.77 441.495 146.031 441.484 146.328H439.597C439.612 145.724 439.788 145.188 440.125 144.72C440.468 144.252 440.928 143.887 441.507 143.625C442.091 143.364 442.738 143.233 443.447 143.233C444.167 143.233 444.804 143.369 445.358 143.641C445.911 143.907 446.339 144.272 446.641 144.735C446.943 145.198 447.092 145.709 447.087 146.268C447.092 146.671 447.011 147.036 446.845 147.363C446.679 147.69 446.445 147.962 446.143 148.178C445.841 148.395 445.491 148.543 445.093 148.624V148.714C445.602 148.785 446.037 148.936 446.4 149.167C446.762 149.394 447.036 149.688 447.223 150.051C447.409 150.413 447.499 150.823 447.494 151.281C447.499 151.885 447.326 152.431 446.973 152.92C446.626 153.403 446.14 153.783 445.516 154.06C444.897 154.332 444.197 154.467 443.417 154.467ZM461.235 154.045H448.763V152.67H454.153V149.847H455.815V152.67H461.235V154.045ZM460.118 145.347H455.852C455.893 145.921 456.111 146.462 456.509 146.97C456.912 147.479 457.47 147.914 458.185 148.276C458.9 148.634 459.736 148.875 460.692 149.001L460.073 150.315C458.895 150.149 457.866 149.817 456.985 149.318C456.104 148.815 455.437 148.188 454.984 147.438C454.526 148.188 453.859 148.815 452.983 149.318C452.107 149.817 451.083 150.149 449.91 150.315L449.276 149.001C450.238 148.875 451.076 148.634 451.79 148.276C452.51 147.914 453.069 147.479 453.466 146.97C453.864 146.462 454.086 145.921 454.131 145.347H449.865V143.988H454.153V142.221H455.815V143.988H460.118V145.347ZM465.917 142.614C466.5 142.609 467.036 142.712 467.525 142.923C468.013 143.13 468.421 143.424 468.748 143.807C469.08 144.184 469.301 144.622 469.412 145.12H471.881V142.01H473.557V149.333H471.881V146.479H469.427C469.317 146.988 469.095 147.436 468.763 147.823C468.436 148.211 468.026 148.513 467.532 148.729C467.039 148.941 466.5 149.046 465.917 149.046C465.227 149.046 464.608 148.908 464.059 148.631C463.511 148.354 463.08 147.972 462.768 147.484C462.461 146.99 462.308 146.434 462.308 145.815C462.308 145.201 462.461 144.65 462.768 144.162C463.08 143.673 463.511 143.293 464.059 143.021C464.608 142.745 465.227 142.609 465.917 142.614ZM465.917 144.018C465.524 144.018 465.177 144.091 464.875 144.237C464.573 144.383 464.336 144.592 464.165 144.864C463.994 145.136 463.908 145.453 463.908 145.815C463.908 146.172 463.994 146.489 464.165 146.766C464.336 147.038 464.573 147.25 464.875 147.401C465.182 147.552 465.529 147.627 465.917 147.627C466.294 147.627 466.631 147.552 466.928 147.401C467.23 147.25 467.464 147.038 467.63 146.766C467.802 146.489 467.89 146.172 467.895 145.815C467.89 145.453 467.802 145.136 467.63 144.864C467.464 144.592 467.233 144.383 466.936 144.237C466.639 144.091 466.299 144.018 465.917 144.018ZM466.219 151.417H471.881V149.968H473.557V155.494H464.558V149.968H466.219V151.417ZM471.881 154.135V152.716H466.219V154.135H471.881ZM487.963 154.075H475.49V152.686H480.866V150.466H476.97V145.996H484.822V144.305H476.94V142.946H486.483V147.325H478.646V149.092H486.8V150.466H482.527V152.686H487.963V154.075ZM499.937 149.756H490.364V143.203H499.831V144.562H492.025V148.412H499.937V149.756ZM501.326 153.924H488.854V152.535H501.326V153.924Z" fill="#7951FF"/>
<g filter="url(#filter0_n_4149_26129)">
<path d="M489.092 198.434C511.139 161.756 524.166 74.0751 524.696 27.2862C524.714 25.7724 526.11 24.6761 527.592 24.9832C563.046 32.3297 598.242 34.0586 660.74 25.9208C662.263 25.7226 663.6 26.9793 663.445 28.5075L663.319 29.7546C657.63 86.0046 650.277 158.699 628.504 182.5C590.027 224.56 507.396 206.28 490.452 201.973C488.896 201.578 488.266 199.809 489.092 198.434Z" fill="url(#paint5_linear_4149_26129)"/>
</g>
<g filter="url(#filter1_n_4149_26129)">
<path d="M618.131 172.645C610.932 194.212 594.755 200.268 587.502 205.5C627.5 193.5 635.5 180.5 647.5 138.501C640.17 156.096 635.704 165.091 619.627 171.091C618.924 171.354 618.369 171.932 618.131 172.645Z" fill="url(#paint6_linear_4149_26129)"/>
</g>
<path d="M587.7 79.2354C600.393 79.2355 609.062 89.4688 607.076 102.005C607.006 102.448 606.923 102.889 606.828 103.326C618.693 104.13 626.607 113.992 624.699 126.042C622.707 138.617 610.771 148.812 598.039 148.812H555.28C542.548 148.812 533.841 138.617 535.833 126.042C537.743 113.979 548.804 104.108 560.941 103.324C560.984 102.887 561.041 102.448 561.111 102.005C563.097 89.4687 575.007 79.2354 587.7 79.2354ZM584.321 104.71C583.969 104.163 583.139 104.142 582.592 104.668L568.198 118.509C567.448 119.23 567.788 120.354 568.756 120.355H577.518L575.314 134.269H580.932L583.136 120.355H592.037C592.98 120.354 593.677 119.28 593.208 118.549L584.321 104.71Z" fill="#FCF8FF" fill-opacity="0.8"/>
<rect x="660.133" y="98.084" width="103.867" height="36.1487" rx="18.0744" fill="white"/>
<path d="M686.07 118.834H683.715L683.254 121.658H681.759L682.22 118.834H680.687L680.929 117.355H682.469L682.847 115.029H681.321L681.563 113.549H683.096L683.556 110.726H685.051L684.591 113.549H686.946L687.407 110.726H688.887L688.426 113.549H689.974L689.717 115.029H688.177L687.799 117.355H689.34L689.098 118.834H687.55L687.09 121.658H685.61L686.07 118.834ZM686.32 117.355L686.697 115.029H684.341L683.964 117.355H686.32ZM697.479 116.192H691.016V110.258H697.479V116.192ZM692.662 114.848H695.833V111.601H692.662V114.848ZM701.314 112.417H703.217V113.806H701.314V117.053H699.638V109.352H701.314V112.417ZM701.51 119.076H697.879C697.969 119.469 698.198 119.844 698.566 120.201C698.933 120.553 699.416 120.86 700.015 121.122C700.619 121.379 701.309 121.563 702.084 121.673L701.48 122.957C700.428 122.806 699.507 122.516 698.717 122.089C697.932 121.661 697.34 121.135 696.943 120.511C696.545 121.135 695.956 121.658 695.176 122.081C694.396 122.509 693.482 122.791 692.435 122.927L691.816 121.658C692.596 121.553 693.286 121.374 693.885 121.122C694.489 120.865 694.969 120.561 695.327 120.209C695.689 119.856 695.918 119.479 696.014 119.076H692.375V117.747H701.51V119.076ZM716.354 117.309H710.948V118.502H714.844V122.836H705.376V118.502H709.287V117.309H703.911V115.981H716.354V117.309ZM710.948 110.56H715.131V111.888H711.069C711.134 112.266 711.356 112.613 711.733 112.93C712.116 113.242 712.644 113.504 713.319 113.716C713.998 113.922 714.804 114.058 715.735 114.123L715.251 115.361C714.018 115.266 712.961 115.042 712.08 114.689C711.2 114.337 710.545 113.874 710.117 113.3C709.69 113.874 709.035 114.337 708.154 114.689C707.274 115.042 706.222 115.266 704.998 115.361L704.5 114.123C705.431 114.058 706.234 113.922 706.909 113.716C707.588 113.504 708.117 113.242 708.494 112.93C708.872 112.613 709.093 112.266 709.159 111.888H705.134V110.56H709.287V109.336H710.948V110.56ZM707.037 121.477H713.213V119.846H707.037V121.477ZM723.421 117.883C724.407 117.888 725.263 117.994 725.988 118.2C726.713 118.402 727.271 118.694 727.664 119.076C728.061 119.459 728.263 119.917 728.268 120.45C728.263 120.974 728.061 121.424 727.664 121.802C727.271 122.184 726.71 122.476 725.98 122.677C725.255 122.884 724.402 122.987 723.421 122.987C722.444 122.987 721.591 122.884 720.861 122.677C720.136 122.476 719.575 122.184 719.178 121.802C718.785 121.424 718.589 120.974 718.589 120.45C718.589 119.917 718.785 119.459 719.178 119.076C719.575 118.694 720.136 118.402 720.861 118.2C721.586 117.994 722.439 117.888 723.421 117.883ZM723.421 119.152C722.434 119.152 721.662 119.265 721.103 119.491C720.549 119.718 720.275 120.037 720.28 120.45C720.275 120.848 720.549 121.155 721.103 121.371C721.656 121.583 722.429 121.688 723.421 121.688C724.417 121.688 725.195 121.583 725.754 121.371C726.317 121.155 726.602 120.848 726.607 120.45C726.602 120.037 726.317 119.718 725.754 119.491C725.195 119.265 724.417 119.152 723.421 119.152ZM728.177 111.133C728.177 111.858 728.155 112.487 728.109 113.021C728.069 113.554 727.966 114.133 727.8 114.757L726.139 114.606C726.29 114.007 726.388 113.466 726.433 112.983C726.478 112.495 726.501 111.944 726.501 111.33H718.725V110.001H728.177V111.133ZM729.687 116.902H717.305V115.543H722.107V113.066H723.768V115.543H729.687V116.902ZM741.782 111.919V112.085C741.777 112.84 741.762 113.497 741.737 114.055C741.717 114.609 741.669 115.253 741.594 115.988C741.518 116.718 741.4 117.511 741.239 118.366L739.548 118.185C739.709 117.39 739.827 116.64 739.903 115.935C739.978 115.226 740.026 114.596 740.046 114.048C740.071 113.499 740.086 112.855 740.091 112.115V111.949H731.937V110.605H741.782V111.919ZM743.081 121.235H730.639V119.861H735.229V115.12H736.89V119.861H743.081V121.235Z" fill="#7951FF"/>
<rect x="624.141" y="57.1436" width="119.894" height="36.1487" rx="18.0744" fill="white"/>
<path d="M649.09 77.894H646.734L646.274 80.7178H644.779L645.239 77.894H643.707L643.948 76.4142H645.489L645.866 74.0888H644.341L644.583 72.609H646.115L646.576 69.7853H648.071L647.61 72.609H649.966L650.426 69.7853H651.906L651.446 72.609H652.993L652.737 74.0888H651.196L650.819 76.4142H652.359L652.118 77.894H650.57L650.109 80.7178H648.629L649.09 77.894ZM649.339 76.4142L649.717 74.0888H647.361L646.983 76.4142H649.339ZM664.922 82.0768H663.231V68.4111H664.922V82.0768ZM657.569 69.4077C658.253 69.4077 658.862 69.6066 659.396 70.0042C659.934 70.3968 660.357 70.958 660.664 71.6879C660.971 72.4127 661.127 73.2583 661.132 74.2247C661.127 75.1961 660.971 76.0468 660.664 76.7766C660.362 77.5065 659.942 78.0702 659.403 78.4678C658.865 78.8605 658.253 79.0568 657.569 79.0568C656.879 79.0568 656.265 78.8605 655.726 78.4678C655.188 78.0702 654.765 77.5065 654.458 76.7766C654.156 76.0468 654.005 75.1961 654.005 74.2247C654.005 73.2583 654.156 72.4127 654.458 71.6879C654.765 70.958 655.188 70.3968 655.726 70.0042C656.265 69.6066 656.879 69.4077 657.569 69.4077ZM657.569 70.9178C657.181 70.9178 656.839 71.0486 656.542 71.3104C656.25 71.5721 656.023 71.9521 655.862 72.4504C655.701 72.9487 655.621 73.5402 655.621 74.2247C655.621 74.9143 655.701 75.5082 655.862 76.0065C656.023 76.5048 656.25 76.8874 656.542 77.1541C656.839 77.4159 657.181 77.5467 657.569 77.5467C657.951 77.5467 658.288 77.4159 658.58 77.1541C658.872 76.8874 659.099 76.5048 659.26 76.0065C659.421 75.5082 659.502 74.9143 659.502 74.2247C659.502 73.5402 659.421 72.9513 659.26 72.458C659.099 71.9597 658.872 71.5797 658.58 71.3179C658.288 71.0512 657.951 70.9178 657.569 70.9178ZM673.454 73.3338H669.151V75.0099H669.453C670.479 75.0099 671.332 74.9873 672.012 74.942C672.692 74.8916 673.369 74.8035 674.043 74.6777L674.209 76.0367C673.434 76.1676 672.641 76.2532 671.831 76.2934C671.025 76.3337 669.911 76.3538 668.486 76.3538H667.49V72.0805H671.778V70.5554H667.459V69.2265H673.454V73.3338ZM678.362 76.8219H676.686V74.572H674.269V73.2281H676.686V71.703H674.269V70.3591H676.686V68.4262H678.362V76.8219ZM678.362 82.0617H676.686V78.8152H669.03V77.4712H678.362V82.0617ZM685.338 71.6879C685.338 72.5436 685.469 73.3715 685.731 74.1719C685.997 74.9671 686.385 75.6718 686.893 76.2859C687.407 76.8999 688.016 77.3605 688.72 77.6675L687.709 79.0115C686.954 78.644 686.302 78.1155 685.753 77.4259C685.21 76.7364 684.789 75.9361 684.492 75.025C684.185 75.9914 683.752 76.8421 683.194 77.5769C682.64 78.3118 681.981 78.8756 681.216 79.2682L680.159 77.9091C680.878 77.5719 681.497 77.0786 682.016 76.4293C682.539 75.78 682.937 75.0426 683.209 74.2172C683.486 73.3917 683.627 72.5486 683.632 71.6879V69.5135H685.338V71.6879ZM691.74 82.0768H690.079V74.1794H687.21V72.8204H690.079V68.4111H691.74V82.0768ZM708.018 73.7415H710.042V75.1458H708.018V82.0315H706.342V68.4111H708.018V73.7415ZM704.409 69.8306C704.409 74.3103 702.341 77.5669 698.203 79.6004L697.252 78.3017C698.913 77.4763 700.194 76.4771 701.095 75.3044C702.001 74.1316 702.54 72.7701 702.711 71.2198H697.992V69.8306H704.409ZM721.729 73.3187H712.307V68.6527H713.983V71.9597H721.729V73.3187ZM723.149 75.9914H710.691V74.6324H723.149V75.9914ZM716.897 76.9729C717.879 76.978 718.722 77.0812 719.427 77.2825C720.131 77.4788 720.672 77.7657 721.05 78.1432C721.427 78.5157 721.619 78.9662 721.624 79.4947C721.619 80.0232 721.427 80.4737 721.05 80.8461C720.672 81.2236 720.131 81.5105 719.427 81.7068C718.722 81.9031 717.879 82.0013 716.897 82.0013C715.906 82.0013 715.053 81.9031 714.338 81.7068C713.628 81.5105 713.084 81.2236 712.707 80.8461C712.329 80.4737 712.141 80.0232 712.141 79.4947C712.141 78.9662 712.329 78.5157 712.707 78.1432C713.084 77.7657 713.628 77.4788 714.338 77.2825C715.053 77.0812 715.906 76.978 716.897 76.9729ZM716.897 78.2866C714.849 78.3017 713.832 78.7044 713.847 79.4947C713.837 79.8873 714.094 80.1893 714.617 80.4007C715.141 80.6121 715.901 80.7178 716.897 80.7178C717.869 80.7178 718.616 80.6121 719.14 80.4007C719.668 80.1893 719.937 79.8873 719.947 79.4947C719.932 78.7044 718.916 78.3017 716.897 78.2866Z" fill="#7951FF"/>
</g>
<defs>
<filter id="filter0_n_4149_26129" x="488.727" y="24.9316" width="174.73" height="184.695" filterUnits="userSpaceOnUse" color-interpolation-filters="sRGB">
<feFlood flood-opacity="0" result="BackgroundImageFix"/>
<feBlend mode="normal" in="SourceGraphic" in2="BackgroundImageFix" result="shape"/>
<feTurbulence type="fractalNoise" baseFrequency="1.6827611923217773 1.6827611923217773" stitchTiles="stitch" numOctaves="3" result="noise" seed="36" />
<feColorMatrix in="noise" type="luminanceToAlpha" result="alphaNoise" />
<feComponentTransfer in="alphaNoise" result="coloredNoise1">
<feFuncA type="discrete" tableValues="1 1 1 1 1 1 1 1 1 1 1 1 1 1 1 1 1 1 1 1 1 1 1 1 1 1 1 1 1 1 1 1 1 1 1 1 1 1 1 1 1 1 1 1 1 1 1 1 1 1 1 0 0 0 0 0 0 0 0 0 0 0 0 0 0 0 0 0 0 0 0 0 0 0 0 0 0 0 0 0 0 0 0 0 0 0 0 0 0 0 0 0 0 0 0 0 0 0 0 0 "/>
</feComponentTransfer>
<feComposite operator="in" in2="shape" in="coloredNoise1" result="noise1Clipped" />
<feFlood flood-color="#C1AFFF" result="color1Flood" />
<feComposite operator="in" in2="noise1Clipped" in="color1Flood" result="color1" />
<feMerge result="effect1_noise_4149_26129">
<feMergeNode in="shape" />
<feMergeNode in="color1" />
</feMerge>
</filter>
<filter id="filter1_n_4149_26129" x="587.5" y="138.501" width="60" height="66.999" filterUnits="userSpaceOnUse" color-interpolation-filters="sRGB">
<feFlood flood-opacity="0" result="BackgroundImageFix"/>
<feBlend mode="normal" in="SourceGraphic" in2="BackgroundImageFix" result="shape"/>
<feTurbulence type="fractalNoise" baseFrequency="1.6827611923217773 1.6827611923217773" stitchTiles="stitch" numOctaves="3" result="noise" seed="2798" />
<feColorMatrix in="noise" type="luminanceToAlpha" result="alphaNoise" />
<feComponentTransfer in="alphaNoise" result="coloredNoise1">
<feFuncA type="discrete" tableValues="1 1 1 1 1 1 1 1 1 1 1 1 1 1 1 1 1 1 1 1 1 1 1 1 1 1 1 1 1 1 1 1 1 1 1 1 1 1 1 1 1 1 1 1 1 1 1 1 1 1 1 0 0 0 0 0 0 0 0 0 0 0 0 0 0 0 0 0 0 0 0 0 0 0 0 0 0 0 0 0 0 0 0 0 0 0 0 0 0 0 0 0 0 0 0 0 0 0 0 0 "/>
</feComponentTransfer>
<feComposite operator="in" in2="shape" in="coloredNoise1" result="noise1Clipped" />
<feFlood flood-color="rgba(169, 67, 237, 0.25)" result="color1Flood" />
<feComposite operator="in" in2="noise1Clipped" in="color1Flood" result="color1" />
<feMerge result="effect1_noise_4149_26129">
<feMergeNode in="shape" />
<feMergeNode in="color1" />
</feMerge>
</filter>
<linearGradient id="paint0_linear_4149_26129" x1="841" y1="119" x2="-148.5" y2="119" gradientUnits="userSpaceOnUse">
<stop stop-color="#EBDCF5"/>
<stop offset="0.585199" stop-color="#EBDCF5"/>
<stop offset="0.995732" stop-color="#FDF9FF"/>
</linearGradient>
<linearGradient id="paint1_linear_4149_26129" x1="-148.5" y1="119" x2="841" y2="119" gradientUnits="userSpaceOnUse">
<stop offset="0.0845162" stop-color="#F7F1FB"/>
<stop offset="0.517107" stop-color="#EBDCF5"/>
<stop offset="0.968809" stop-color="#EBDCF5"/>
</linearGradient>
<linearGradient id="paint2_linear_4149_26129" x1="398.092" y1="-9.19209" x2="781.914" y2="269.388" gradientUnits="userSpaceOnUse">
<stop stop-color="white"/>
<stop offset="1" stop-color="white"/>
</linearGradient>
<linearGradient id="paint3_linear_4149_26129" x1="450.914" y1="27.8418" x2="725.973" y2="227.482" gradientUnits="userSpaceOnUse">
<stop stop-color="white"/>
<stop offset="1" stop-color="white"/>
</linearGradient>
<linearGradient id="paint4_linear_4149_26129" x1="585" y1="6" x2="726.286" y2="309.381" gradientUnits="userSpaceOnUse">
<stop stop-color="white"/>
<stop offset="1" stop-color="white" stop-opacity="0.2"/>
</linearGradient>
<linearGradient id="paint5_linear_4149_26129" x1="474.838" y1="-106.722" x2="606.519" y2="179.283" gradientUnits="userSpaceOnUse">
<stop stop-color="#EED5FF"/>
<stop offset="1" stop-color="#C671FF"/>
</linearGradient>
<linearGradient id="paint6_linear_4149_26129" x1="635.462" y1="190.533" x2="612.618" y2="163.267" gradientUnits="userSpaceOnUse">
<stop offset="0.176189" stop-color="#DEADFF"/>
<stop offset="0.762689" stop-color="#7951FF"/>
</linearGradient>
<clipPath id="clip0_4149_26129">
<rect width="788" height="238" rx="8" fill="white"/>
</clipPath>
</defs>
</svg>
