<svg width="24" height="24" viewBox="0 0 24 24" fill="none" xmlns="http://www.w3.org/2000/svg">
<rect x="8" y="3" width="8" height="3" rx="0.666666" fill="#E1E1E4"/>
<path d="M19.333 6.60059C19.7011 6.60058 19.9999 6.89849 20 7.2666V8.55176C19.9999 8.91985 19.7011 9.21777 19.333 9.21777H19.1279C18.7599 9.21796 18.462 9.51674 18.4619 9.88477V20.333C18.4619 20.7012 18.1631 21 17.7949 21H6.5127C6.14452 21 5.8457 20.7012 5.8457 20.333V9.88574C5.8457 9.51765 5.54775 9.2189 5.17969 9.21875H4.66699C4.2988 9.21875 4 8.91995 4 8.55176V7.26758C4 6.8994 4.29881 6.60059 4.66699 6.60059H19.333ZM10.1523 17.1885H11.0752V10.4121H10.1523V17.1885ZM12.9219 10.4121V17.1885H13.8447V10.4121H12.9219Z" fill="#E1E1E4"/>
</svg>
